SplineFontDB: 3.2
FontName: Nunito-ExtraBold
FullName: Nunito ExtraBold
FamilyName: Nunito ExtraBold
Weight: Heavy
Copyright: Copyright 2014 The Nunito Project Authors (https://github.com/googlefonts/nunito)
Version: 3.602-ef
ItalicAngle: 0
UnderlinePosition: -94
UnderlineWidth: 28
Ascent: 800
Descent: 200
InvalidEm: 0
sfntRevision: 0x00039a1d
LayerCount: 2
Layer: 0 1 "Back" 1
Layer: 1 1 "Fore" 0
XUID: [1021 965 1680887925 8878770]
StyleMap: 0x0040
FSType: 0
OS2Version: 4
OS2_WeightWidthSlopeOnly: 0
OS2_UseTypoMetrics: 1
CreationTime: 1592915285
ModificationTime: 1719074829
PfmFamily: 81
TTFWeight: 800
TTFWidth: 5
LineGap: 0
VLineGap: 0
Panose: 0 0 0 0 0 0 0 0 0 0
OS2TypoAscent: 1011
OS2TypoAOffset: 0
OS2TypoDescent: -353
OS2TypoDOffset: 0
OS2TypoLinegap: 0
OS2WinAscent: 1077
OS2WinAOffset: 0
OS2WinDescent: 300
OS2WinDOffset: 0
HheadAscent: 1011
HheadAOffset: 0
HheadDescent: -353
HheadDOffset: 0
OS2SubXSize: 650
OS2SubYSize: 600
OS2SubXOff: 0
OS2SubYOff: 75
OS2SupXSize: 650
OS2SupYSize: 600
OS2SupXOff: 0
OS2SupYOff: 350
OS2StrikeYSize: 28
OS2StrikeYPos: 290
OS2CapHeight: 705
OS2XHeight: 484
OS2Vendor: 'NONE'
OS2CodePages: 20000197.00000000
OS2UnicodeRanges: a00002ff.5000204b.00000000.00000000
Lookup: 1 0 0 "'aalt' Access All Alternates lookup 0" { "'aalt' Access All Alternates lookup 0 subtable"  } ['aalt' ('DFLT' <'dflt' > 'cyrl' <'BSH ' 'CHU ' 'dflt' > 'latn' <'AZE ' 'CAT ' 'CRT ' 'KAZ ' 'MOL ' 'NLD ' 'ROM ' 'TAT ' 'TRK ' 'dflt' > ) ]
Lookup: 3 0 0 "'aalt' Access All Alternates lookup 1" { "'aalt' Access All Alternates lookup 1 subtable"  } ['aalt' ('DFLT' <'dflt' > 'cyrl' <'BSH ' 'CHU ' 'dflt' > 'latn' <'AZE ' 'CAT ' 'CRT ' 'KAZ ' 'MOL ' 'NLD ' 'ROM ' 'TAT ' 'TRK ' 'dflt' > ) ]

StartChar: .notdef
Encoding: 65536 -1 0
Width: 500
GlyphClass: 1
Flags: W
LayerCount: 2
Fore
SplineSet
50 -180 m 1,0,-1
 50 705 l 1,1,-1
 450 705 l 1,2,-1
 450 -180 l 1,3,-1
 50 -180 l 1,0,-1
100 -130 m 1,4,-1
 400 -130 l 1,5,-1
 400 655 l 1,6,-1
 100 655 l 1,7,-1
 100 -130 l 1,4,-1
EndSplineSet
EndChar

StartChar: A
Encoding: 65 65 1
Width: 753
GlyphClass: 2
Flags: W
AnchorPoint: "Anchor-3" 711 0 basechar 0
AnchorPoint: "Anchor-2" 377 0 basechar 0
AnchorPoint: "Anchor-0" 377 705 basechar 0
LayerCount: 2
Fore
SplineSet
91 -9 m 0,0,1
 63 -9 63 -9 45.5 4 c 128,-1,2
 28 17 28 17 23.5 39 c 128,-1,3
 19 61 19 61 32 88 c 2,4,-1
 288 649 l 2,5,6
 304 683 304 683 326 698.5 c 128,-1,7
 348 714 348 714 377 714 c 256,8,9
 406 714 406 714 428 698.5 c 128,-1,10
 450 683 450 683 465 649 c 2,11,-1
 723 88 l 2,12,13
 736 61 736 61 732.5 38.5 c 128,-1,14
 729 16 729 16 712 3.5 c 128,-1,15
 695 -9 695 -9 668 -9 c 0,16,17
 634 -9 634 -9 615.5 7 c 128,-1,18
 597 23 597 23 583 57 c 2,19,-1
 523 196 l 1,20,-1
 585 153 l 1,21,-1
 168 153 l 1,22,-1
 230 196 l 1,23,-1
 171 57 l 2,24,25
 156 22 156 22 139.5 6.5 c 128,-1,26
 123 -9 123 -9 91 -9 c 0,0,1
375 540 m 1,27,-1
 247 235 l 1,28,-1
 220 274 l 1,29,-1
 533 274 l 1,30,-1
 506 235 l 1,31,-1
 377 540 l 1,32,-1
 375 540 l 1,27,-1
EndSplineSet
Substitution2: "Single Substitution lookup 29 subtable" ordfeminine
Substitution2: "'aalt' Access All Alternates lookup 0 subtable" ordfeminine
EndChar

StartChar: Aogonek
Encoding: 260 260 24
Width: 753
GlyphClass: 1
Flags: W
LayerCount: 2
Fore
SplineSet
688 -197 m 0,0,1
 629 -197 629 -197 596 -167.5 c 128,-1,2
 563 -138 563 -138 563 -89 c 0,3,4
 563 -57 563 -57 578 -29.5 c 128,-1,5
 593 -2 593 -2 621 18 c 1,6,-1
 623 2 l 1,7,8
 610 11 610 11 601 24 c 128,-1,9
 592 37 592 37 583 57 c 2,10,-1
 523 196 l 1,11,-1
 585 153 l 1,12,-1
 168 153 l 1,13,-1
 230 196 l 1,14,-1
 171 57 l 2,15,16
 156 22 156 22 139.5 6.5 c 128,-1,17
 123 -9 123 -9 91 -9 c 0,18,19
 63 -9 63 -9 45.5 4 c 128,-1,20
 28 17 28 17 23.5 39 c 128,-1,21
 19 61 19 61 31 88 c 2,22,-1
 288 649 l 2,23,24
 304 683 304 683 326 698.5 c 128,-1,25
 348 714 348 714 377 714 c 256,26,27
 406 714 406 714 428 698.5 c 128,-1,28
 450 683 450 683 465 649 c 2,29,-1
 723 88 l 2,30,31
 737 58 737 58 731.5 34 c 128,-1,32
 726 10 726 10 706 0 c 0,33,34
 691 -7 691 -7 679.5 -18.5 c 128,-1,35
 668 -30 668 -30 661 -43.5 c 128,-1,36
 654 -57 654 -57 654 -72 c 0,37,38
 654 -95 654 -95 670 -107.5 c 128,-1,39
 686 -120 686 -120 709 -120 c 0,40,41
 716 -120 716 -120 723 -119 c 128,-1,42
 730 -118 730 -118 737 -116 c 0,43,44
 758 -112 758 -112 769.5 -120 c 128,-1,45
 781 -128 781 -128 783 -142 c 128,-1,46
 785 -156 785 -156 777.5 -169 c 128,-1,47
 770 -182 770 -182 753 -188 c 256,48,49
 736 -194 736 -194 719 -195.5 c 128,-1,50
 702 -197 702 -197 688 -197 c 0,0,1
375 540 m 1,51,-1
 247 235 l 1,52,-1
 220 274 l 1,53,-1
 533 274 l 1,54,-1
 506 235 l 1,55,-1
 377 540 l 1,56,-1
 375 540 l 1,51,-1
EndSplineSet
EndChar

StartChar: AE
Encoding: 198 198 28
Width: 1000
GlyphClass: 2
Flags: W
AnchorPoint: "Anchor-2" 488 0 basechar 0
AnchorPoint: "Anchor-0" 489 705 basechar 0
LayerCount: 2
Fore
SplineSet
61 -9 m 0,0,1
 27 -9 27 -9 10 5 c 128,-1,2
 -7 19 -7 19 -7 41 c 128,-1,3
 -7 63 -7 63 7 87 c 2,4,-1
 370 664 l 2,5,6
 383 686 383 686 401 695.5 c 128,-1,7
 419 705 419 705 445 705 c 2,8,-1
 893 705 l 2,9,10
 924 705 924 705 940 689.5 c 128,-1,11
 956 674 956 674 956 645 c 0,12,13
 956 615 956 615 940 599.5 c 128,-1,14
 924 584 924 584 893 584 c 2,15,-1
 516 584 l 1,16,-1
 554 620 l 1,17,-1
 607 376 l 1,18,-1
 556 419 l 1,19,-1
 872 419 l 2,20,21
 903 419 903 419 918.5 403.5 c 128,-1,22
 934 388 934 388 934 358 c 256,23,24
 934 328 934 328 918.5 312.5 c 128,-1,25
 903 297 903 297 872 297 c 2,26,-1
 583 297 l 1,27,-1
 615 340 l 1,28,-1
 672 79 l 1,29,-1
 619 121 l 1,30,-1
 893 121 l 2,31,32
 924 121 924 121 940 105.5 c 128,-1,33
 956 90 956 90 956 61 c 0,34,35
 956 31 956 31 940 15.5 c 128,-1,36
 924 0 924 0 893 0 c 2,37,-1
 608 0 l 2,38,39
 552 0 552 0 539 55 c 2,40,-1
 508 199 l 1,41,-1
 557 153 l 1,42,-1
 174 153 l 1,43,-1
 231 194 l 1,44,-1
 139 39 l 2,45,46
 125 16 125 16 107.5 3.5 c 128,-1,47
 90 -9 90 -9 61 -9 c 0,0,1
433 535 m 1,48,-1
 256 237 l 1,49,-1
 247 274 l 1,50,-1
 531 274 l 1,51,-1
 501 232 l 1,52,-1
 435 535 l 1,53,-1
 433 535 l 1,48,-1
EndSplineSet
EndChar

StartChar: B
Encoding: 66 66 30
Width: 695
GlyphClass: 2
Flags: W
AnchorPoint: "Anchor-2" 348 0 basechar 0
AnchorPoint: "Anchor-0" 348 705 basechar 0
LayerCount: 2
Fore
SplineSet
152 0 m 2,0,1
 113 0 113 0 92 21 c 128,-1,2
 71 42 71 42 71 81 c 2,3,-1
 71 624 l 2,4,5
 71 663 71 663 92 684 c 128,-1,6
 113 705 113 705 152 705 c 2,7,-1
 394 705 l 2,8,9
 469 705 469 705 522 683 c 128,-1,10
 575 661 575 661 602.5 620 c 128,-1,11
 630 579 630 579 630 522 c 0,12,13
 630 459 630 459 594 415 c 128,-1,14
 558 371 558 371 495 356 c 1,15,-1
 495 372 l 1,16,17
 568 359 568 359 608.5 314.5 c 128,-1,18
 649 270 649 270 649 199 c 0,19,20
 649 105 649 105 584 52.5 c 128,-1,21
 519 0 519 0 405 0 c 2,22,-1
 152 0 l 2,0,1
219 115 m 1,23,-1
 384 115 l 2,24,25
 444 115 444 115 472 138.5 c 128,-1,26
 500 162 500 162 500 208 c 256,27,28
 500 254 500 254 472 277 c 128,-1,29
 444 300 444 300 384 300 c 2,30,-1
 219 300 l 1,31,-1
 219 115 l 1,23,-1
219 415 m 1,32,-1
 367 415 l 2,33,34
 425 415 425 415 453 437 c 128,-1,35
 481 459 481 459 481 503 c 0,36,37
 481 546 481 546 453 568 c 128,-1,38
 425 590 425 590 367 590 c 2,39,-1
 219 590 l 1,40,-1
 219 415 l 1,32,-1
EndSplineSet
EndChar

StartChar: uni0181
Encoding: 385 385 31
Width: 860
GlyphClass: 1
Flags: W
LayerCount: 2
Fore
SplineSet
318 0 m 2,0,1
 278 0 278 0 257 21 c 128,-1,2
 236 42 236 42 236 81 c 2,3,-1
 236 597 l 1,4,-1
 214 597 l 2,5,6
 170 597 170 597 148 576.5 c 128,-1,7
 126 556 126 556 126 514 c 2,8,-1
 126 500 l 2,9,10
 126 489 126 489 119 476.5 c 128,-1,11
 112 464 112 464 98.5 455.5 c 128,-1,12
 85 447 85 447 63 447 c 0,13,14
 42 447 42 447 28 456 c 128,-1,15
 14 465 14 465 7 478 c 128,-1,16
 0 491 0 491 0 504 c 2,17,-1
 0 519 l 2,18,19
 0 608 0 608 56 656.5 c 128,-1,20
 112 705 112 705 220 705 c 2,21,-1
 560 705 l 2,22,23
 635 705 635 705 687.5 683 c 128,-1,24
 740 661 740 661 768 620 c 128,-1,25
 796 579 796 579 796 522 c 0,26,27
 796 459 796 459 759.5 415 c 128,-1,28
 723 371 723 371 661 356 c 1,29,-1
 661 372 l 1,30,31
 734 359 734 359 774 314.5 c 128,-1,32
 814 270 814 270 814 199 c 0,33,34
 814 105 814 105 749 52.5 c 128,-1,35
 684 0 684 0 570 0 c 2,36,-1
 318 0 l 2,0,1
385 115 m 1,37,-1
 550 115 l 2,38,39
 610 115 610 115 637.5 138.5 c 128,-1,40
 665 162 665 162 665 208 c 256,41,42
 665 254 665 254 637.5 277 c 128,-1,43
 610 300 610 300 550 300 c 2,44,-1
 385 300 l 1,45,-1
 385 115 l 1,37,-1
385 415 m 1,46,-1
 532 415 l 2,47,48
 591 415 591 415 619 437 c 128,-1,49
 647 459 647 459 647 503 c 0,50,51
 647 546 647 546 619 568 c 128,-1,52
 591 590 591 590 532 590 c 2,53,-1
 385 590 l 1,54,-1
 385 415 l 1,46,-1
EndSplineSet
EndChar

StartChar: C
Encoding: 67 67 32
Width: 684
GlyphClass: 2
Flags: W
AnchorPoint: "Anchor-2" 394 0 basechar 0
AnchorPoint: "Anchor-0" 395 705 basechar 0
LayerCount: 2
Fore
SplineSet
413 -11 m 0,0,1
 299 -11 299 -11 218 34 c 128,-1,2
 137 79 137 79 93.5 160.5 c 128,-1,3
 50 242 50 242 50 353 c 0,4,5
 50 436 50 436 74.5 502.5 c 128,-1,6
 99 569 99 569 146 616.5 c 128,-1,7
 193 664 193 664 260.5 690 c 128,-1,8
 328 716 328 716 413 716 c 0,9,10
 463 716 463 716 514.5 703.5 c 128,-1,11
 566 691 566 691 604 668 c 0,12,13
 629 654 629 654 638 633 c 128,-1,14
 647 612 647 612 643.5 591 c 128,-1,15
 640 570 640 570 626.5 555 c 128,-1,16
 613 540 613 540 593 536 c 128,-1,17
 573 532 573 532 548 545 c 0,18,19
 518 563 518 563 485 571 c 128,-1,20
 452 579 452 579 418 579 c 0,21,22
 351 579 351 579 305.5 552.5 c 128,-1,23
 260 526 260 526 237 476 c 128,-1,24
 214 426 214 426 214 353 c 0,25,26
 214 281 214 281 237 230 c 128,-1,27
 260 179 260 179 305.5 152.5 c 128,-1,28
 351 126 351 126 418 126 c 0,29,30
 450 126 450 126 483.5 134 c 128,-1,31
 517 142 517 142 548 159 c 0,32,33
 574 172 574 172 594.5 168.5 c 128,-1,34
 615 165 615 165 628.5 150.5 c 128,-1,35
 642 136 642 136 645.5 116 c 128,-1,36
 649 96 649 96 641 76 c 128,-1,37
 633 56 633 56 611 42 c 0,38,39
 574 17 574 17 520 3 c 128,-1,40
 466 -11 466 -11 413 -11 c 0,0,1
EndSplineSet
EndChar

StartChar: D
Encoding: 68 68 39
Width: 774
GlyphClass: 2
Flags: W
AnchorPoint: "Anchor-5" 200 358 basechar 0
AnchorPoint: "Anchor-2" 384 0 basechar 0
AnchorPoint: "Anchor-0" 384 705 basechar 0
LayerCount: 2
Fore
SplineSet
152 0 m 2,0,1
 113 0 113 0 92 21 c 128,-1,2
 71 42 71 42 71 81 c 2,3,-1
 71 624 l 2,4,5
 71 663 71 663 92 684 c 128,-1,6
 113 705 113 705 152 705 c 2,7,-1
 347 705 l 2,8,9
 528 705 528 705 626.5 613.5 c 128,-1,10
 725 522 725 522 725 353 c 0,11,12
 725 268 725 268 699.5 202.5 c 128,-1,13
 674 137 674 137 626 92 c 128,-1,14
 578 47 578 47 508 23.5 c 128,-1,15
 438 0 438 0 347 0 c 2,16,-1
 152 0 l 2,0,1
226 127 m 1,17,-1
 338 127 l 2,18,19
 395 127 395 127 437 141 c 128,-1,20
 479 155 479 155 507 183 c 128,-1,21
 535 211 535 211 549 253.5 c 128,-1,22
 563 296 563 296 563 353 c 0,23,24
 563 467 563 467 506.5 522.5 c 128,-1,25
 450 578 450 578 338 578 c 2,26,-1
 226 578 l 1,27,-1
 226 127 l 1,17,-1
EndSplineSet
EndChar

StartChar: uni018A
Encoding: 394 394 45
Width: 940
GlyphClass: 1
Flags: W
LayerCount: 2
Fore
SplineSet
318 0 m 2,0,1
 278 0 278 0 257 21 c 128,-1,2
 236 42 236 42 236 81 c 2,3,-1
 236 597 l 1,4,-1
 214 597 l 2,5,6
 170 597 170 597 148 576.5 c 128,-1,7
 126 556 126 556 126 514 c 2,8,-1
 126 500 l 2,9,10
 126 489 126 489 119 476.5 c 128,-1,11
 112 464 112 464 98.5 455.5 c 128,-1,12
 85 447 85 447 63 447 c 0,13,14
 42 447 42 447 28 456 c 128,-1,15
 14 465 14 465 7 478 c 128,-1,16
 0 491 0 491 0 504 c 2,17,-1
 0 519 l 2,18,19
 0 608 0 608 55.5 656.5 c 128,-1,20
 111 705 111 705 216 705 c 2,21,-1
 512 705 l 2,22,23
 693 705 693 705 791.5 613.5 c 128,-1,24
 890 522 890 522 890 353 c 0,25,26
 890 268 890 268 865 202.5 c 128,-1,27
 840 137 840 137 791.5 92 c 128,-1,28
 743 47 743 47 673 23.5 c 128,-1,29
 603 0 603 0 512 0 c 2,30,-1
 318 0 l 2,0,1
391 127 m 1,31,-1
 503 127 l 2,32,33
 560 127 560 127 602 141 c 128,-1,34
 644 155 644 155 672.5 183 c 128,-1,35
 701 211 701 211 714.5 253.5 c 128,-1,36
 728 296 728 296 728 353 c 0,37,38
 728 467 728 467 672 522.5 c 128,-1,39
 616 578 616 578 503 578 c 2,40,-1
 391 578 l 1,41,-1
 391 127 l 1,31,-1
EndSplineSet
EndChar

StartChar: E
Encoding: 69 69 48
Width: 605
GlyphClass: 2
Flags: W
AnchorPoint: "Anchor-3" 501 0 basechar 0
AnchorPoint: "Anchor-2" 331 0 basechar 0
AnchorPoint: "Anchor-0" 331 705 basechar 0
LayerCount: 2
Fore
SplineSet
152 0 m 2,0,1
 113 0 113 0 92 21 c 128,-1,2
 71 42 71 42 71 81 c 2,3,-1
 71 624 l 2,4,5
 71 663 71 663 92 684 c 128,-1,6
 113 705 113 705 152 705 c 2,7,-1
 501 705 l 2,8,9
 531 705 531 705 546.5 689.5 c 128,-1,10
 562 674 562 674 562 645 c 0,11,12
 562 615 562 615 546.5 599.5 c 128,-1,13
 531 584 531 584 501 584 c 2,14,-1
 219 584 l 1,15,-1
 219 419 l 1,16,-1
 478 419 l 2,17,18
 509 419 509 419 524.5 403.5 c 128,-1,19
 540 388 540 388 540 358 c 256,20,21
 540 328 540 328 524.5 312.5 c 128,-1,22
 509 297 509 297 478 297 c 2,23,-1
 219 297 l 1,24,-1
 219 121 l 1,25,-1
 501 121 l 2,26,27
 531 121 531 121 546.5 105.5 c 128,-1,28
 562 90 562 90 562 61 c 0,29,30
 562 31 562 31 546.5 15.5 c 128,-1,31
 531 0 531 0 501 0 c 2,32,-1
 152 0 l 2,0,1
EndSplineSet
EndChar

StartChar: uni018F
Encoding: 399 399 72
Width: 796
GlyphClass: 2
Flags: W
AnchorPoint: "Anchor-2" 400 0 basechar 0
AnchorPoint: "Anchor-0" 400 705 basechar 0
LayerCount: 2
Fore
SplineSet
406 -11 m 0,0,1
 319 -11 319 -11 252 16.5 c 128,-1,2
 185 44 185 44 140 93.5 c 128,-1,3
 95 143 95 143 72.5 212 c 128,-1,4
 50 281 50 281 50 364 c 0,5,6
 50 389 50 389 62 401.5 c 128,-1,7
 74 414 74 414 97 414 c 2,8,-1
 626 414 l 1,9,-1
 626 292 l 1,10,-1
 167 292 l 1,11,-1
 208 354 l 1,12,13
 208 275 208 275 229.5 221.5 c 128,-1,14
 251 168 251 168 293.5 141.5 c 128,-1,15
 336 115 336 115 398 115 c 0,16,17
 458 115 458 115 499.5 142 c 128,-1,18
 541 169 541 169 563 221.5 c 128,-1,19
 585 274 585 274 585 353 c 0,20,21
 585 429 585 429 559 480 c 128,-1,22
 533 531 533 531 482 557.5 c 128,-1,23
 431 584 431 584 355 584 c 0,24,25
 310 584 310 584 267 575.5 c 128,-1,26
 224 567 224 567 184 547 c 0,27,28
 157 536 157 536 136.5 540.5 c 128,-1,29
 116 545 116 545 103.5 560 c 128,-1,30
 91 575 91 575 88.5 595 c 128,-1,31
 86 615 86 615 95 633.5 c 128,-1,32
 104 652 104 652 128 663 c 0,33,34
 177 688 177 688 241 702 c 128,-1,35
 305 716 305 716 375 716 c 0,36,37
 487 716 487 716 570.5 671.5 c 128,-1,38
 654 627 654 627 700.5 546 c 128,-1,39
 747 465 747 465 747 352 c 0,40,41
 747 269 747 269 722 202.5 c 128,-1,42
 697 136 697 136 651.5 88 c 128,-1,43
 606 40 606 40 543.5 14.5 c 128,-1,44
 481 -11 481 -11 406 -11 c 0,0,1
EndSplineSet
EndChar

StartChar: F
Encoding: 70 70 73
Width: 570
GlyphClass: 2
Flags: W
AnchorPoint: "Anchor-2" 302 0 basechar 0
AnchorPoint: "Anchor-0" 306 705 basechar 0
LayerCount: 2
Fore
SplineSet
150 -9 m 0,0,1
 112 -9 112 -9 91.5 12 c 128,-1,2
 71 33 71 33 71 73 c 2,3,-1
 71 624 l 2,4,5
 71 663 71 663 92 684 c 128,-1,6
 113 705 113 705 152 705 c 2,7,-1
 494 705 l 2,8,9
 524 705 524 705 539.5 689.5 c 128,-1,10
 555 674 555 674 555 645 c 0,11,12
 555 615 555 615 539.5 599.5 c 128,-1,13
 524 584 524 584 494 584 c 2,14,-1
 226 584 l 1,15,-1
 226 412 l 1,16,-1
 472 412 l 2,17,18
 502 412 502 412 518 396.5 c 128,-1,19
 534 381 534 381 534 352 c 256,20,21
 534 323 534 323 518 307 c 128,-1,22
 502 291 502 291 472 291 c 2,23,-1
 226 291 l 1,24,-1
 226 73 l 2,25,26
 226 -9 226 -9 150 -9 c 0,0,1
EndSplineSet
EndChar

StartChar: G
Encoding: 71 71 74
Width: 742
GlyphClass: 2
Flags: W
AnchorPoint: "Anchor-2" 414 0 basechar 0
AnchorPoint: "Anchor-0" 407 705 basechar 0
LayerCount: 2
Fore
SplineSet
420 -11 m 0,0,1
 301 -11 301 -11 218.5 34 c 128,-1,2
 136 79 136 79 93 160 c 128,-1,3
 50 241 50 241 50 350 c 0,4,5
 50 434 50 434 75.5 501.5 c 128,-1,6
 101 569 101 569 149.5 616.5 c 128,-1,7
 198 664 198 664 267.5 690 c 128,-1,8
 337 716 337 716 425 716 c 0,9,10
 479 716 479 716 533 704 c 128,-1,11
 587 692 587 692 637 664 c 0,12,13
 658 652 658 652 665.5 633.5 c 128,-1,14
 673 615 673 615 669.5 594.5 c 128,-1,15
 666 574 666 574 653.5 558.5 c 128,-1,16
 641 543 641 543 621.5 538.5 c 128,-1,17
 602 534 602 534 577 546 c 0,18,19
 544 564 544 564 507 572.5 c 128,-1,20
 470 581 470 581 426 581 c 0,21,22
 355 581 355 581 307 554.5 c 128,-1,23
 259 528 259 528 235.5 476.5 c 128,-1,24
 212 425 212 425 212 350 c 0,25,26
 212 237 212 237 266.5 179 c 128,-1,27
 321 121 321 121 428 121 c 0,28,29
 464 121 464 121 502 128 c 128,-1,30
 540 135 540 135 577 148 c 1,31,-1
 548 85 l 1,32,-1
 548 277 l 1,33,-1
 458 277 l 2,34,35
 428 277 428 277 412 292 c 128,-1,36
 396 307 396 307 396 333 c 0,37,38
 396 360 396 360 412 374.5 c 128,-1,39
 428 389 428 389 458 389 c 2,40,-1
 615 389 l 2,41,42
 645 389 645 389 660.5 373 c 128,-1,43
 676 357 676 357 676 327 c 2,44,-1
 676 95 l 2,45,46
 676 69 676 69 666 51 c 128,-1,47
 656 33 656 33 632 25 c 0,48,49
 587 9 587 9 531 -1 c 128,-1,50
 475 -11 475 -11 420 -11 c 0,0,1
EndSplineSet
EndChar

StartChar: H
Encoding: 72 72 81
Width: 780
GlyphClass: 2
Flags: W
AnchorPoint: "Anchor-5" 390 565 basechar 0
AnchorPoint: "Anchor-2" 390 0 basechar 0
AnchorPoint: "Anchor-0" 389 705 basechar 0
LayerCount: 2
Fore
SplineSet
149 -9 m 256,0,1
 111 -9 111 -9 91 12 c 128,-1,2
 71 33 71 33 71 71 c 2,3,-1
 71 634 l 2,4,5
 71 672 71 672 91 693 c 128,-1,6
 111 714 111 714 149 714 c 0,7,8
 186 714 186 714 206 693 c 128,-1,9
 226 672 226 672 226 634 c 2,10,-1
 226 422 l 1,11,-1
 554 422 l 1,12,-1
 554 634 l 2,13,14
 554 672 554 672 574 693 c 128,-1,15
 594 714 594 714 631 714 c 0,16,17
 669 714 669 714 689 693 c 128,-1,18
 709 672 709 672 709 634 c 2,19,-1
 709 71 l 2,20,21
 709 33 709 33 689 12 c 128,-1,22
 669 -9 669 -9 631 -9 c 0,23,24
 594 -9 594 -9 574 12 c 128,-1,25
 554 33 554 33 554 71 c 2,26,-1
 554 293 l 1,27,-1
 226 293 l 1,28,-1
 226 71 l 2,29,30
 226 33 226 33 206.5 12 c 128,-1,31
 187 -9 187 -9 149 -9 c 256,0,1
EndSplineSet
EndChar

StartChar: Hbar
Encoding: 294 294 82
Width: 829
GlyphClass: 1
Flags: W
LayerCount: 2
Fore
SplineSet
174 -9 m 256,0,1
 136 -9 136 -9 115.5 12 c 128,-1,2
 95 33 95 33 95 71 c 2,3,-1
 95 523 l 1,4,-1
 142 506 l 1,5,-1
 63 506 l 2,6,7
 5 506 5 506 5 562 c 0,8,9
 5 589 5 589 20 603.5 c 128,-1,10
 35 618 35 618 63 618 c 2,11,-1
 123 618 l 1,12,-1
 95 570 l 1,13,-1
 95 634 l 2,14,15
 95 672 95 672 115.5 693 c 128,-1,16
 136 714 136 714 174 714 c 0,17,18
 211 714 211 714 231 693 c 128,-1,19
 251 672 251 672 251 634 c 2,20,-1
 251 570 l 1,21,-1
 230 618 l 1,22,-1
 599 618 l 1,23,-1
 578 570 l 1,24,-1
 578 634 l 2,25,26
 578 672 578 672 598.5 693 c 128,-1,27
 619 714 619 714 657 714 c 0,28,29
 694 714 694 714 714 693 c 128,-1,30
 734 672 734 672 734 634 c 2,31,-1
 734 570 l 1,32,-1
 700 618 l 1,33,-1
 767 618 l 2,34,35
 824 618 824 618 824 562 c 0,36,37
 824 535 824 535 809 520.5 c 128,-1,38
 794 506 794 506 767 506 c 2,39,-1
 680 506 l 1,40,-1
 734 526 l 1,41,-1
 734 71 l 2,42,43
 734 33 734 33 714 12 c 128,-1,44
 694 -9 694 -9 657 -9 c 0,45,46
 619 -9 619 -9 598.5 12 c 128,-1,47
 578 33 578 33 578 71 c 2,48,-1
 578 280 l 1,49,-1
 251 280 l 1,50,-1
 251 71 l 2,51,52
 251 33 251 33 231.5 12 c 128,-1,53
 212 -9 212 -9 174 -9 c 256,0,1
251 409 m 1,54,-1
 578 409 l 1,55,-1
 578 506 l 1,56,-1
 251 506 l 1,57,-1
 251 409 l 1,54,-1
EndSplineSet
EndChar

StartChar: I
Encoding: 73 73 86
Width: 297
GlyphClass: 2
Flags: W
AnchorPoint: "Anchor-3" 190 0 basechar 0
AnchorPoint: "Anchor-2" 148 0 basechar 0
AnchorPoint: "Anchor-0" 148 705 basechar 0
LayerCount: 2
Fore
SplineSet
149 -9 m 256,0,1
 111 -9 111 -9 91 12 c 128,-1,2
 71 33 71 33 71 71 c 2,3,-1
 71 634 l 2,4,5
 71 672 71 672 91 693 c 128,-1,6
 111 714 111 714 149 714 c 0,7,8
 186 714 186 714 206 693 c 128,-1,9
 226 672 226 672 226 634 c 2,10,-1
 226 71 l 2,11,12
 226 33 226 33 206.5 12 c 128,-1,13
 187 -9 187 -9 149 -9 c 256,0,1
EndSplineSet
EndChar

StartChar: Iogonek
Encoding: 302 302 100
Width: 297
GlyphClass: 1
Flags: W
LayerCount: 2
Fore
SplineSet
168 -197 m 0,0,1
 108 -197 108 -197 75 -167.5 c 128,-1,2
 42 -138 42 -138 42 -89 c 0,3,4
 42 -59 42 -59 56.5 -32 c 128,-1,5
 71 -5 71 -5 96 15 c 1,6,-1
 96 8 l 1,7,8
 83 18 83 18 77 34 c 128,-1,9
 71 50 71 50 71 71 c 2,10,-1
 71 634 l 2,11,12
 71 672 71 672 91 693 c 128,-1,13
 111 714 111 714 149 714 c 0,14,15
 186 714 186 714 206 693 c 128,-1,16
 226 672 226 672 226 634 c 2,17,-1
 226 71 l 2,18,19
 226 44 226 44 215.5 25 c 128,-1,20
 205 6 205 6 187 -2 c 0,21,22
 163 -12 163 -12 148.5 -31 c 128,-1,23
 134 -50 134 -50 134 -72 c 0,24,25
 134 -95 134 -95 149.5 -107.5 c 128,-1,26
 165 -120 165 -120 188 -120 c 0,27,28
 195 -120 195 -120 202 -119 c 128,-1,29
 209 -118 209 -118 217 -116 c 0,30,31
 237 -112 237 -112 248.5 -120 c 128,-1,32
 260 -128 260 -128 262.5 -142 c 128,-1,33
 265 -156 265 -156 257.5 -169 c 128,-1,34
 250 -182 250 -182 232 -188 c 0,35,36
 216 -194 216 -194 199 -195.5 c 128,-1,37
 182 -197 182 -197 168 -197 c 0,0,1
EndSplineSet
EndChar

StartChar: J
Encoding: 74 74 102
Width: 372
GlyphClass: 2
Flags: W
AnchorPoint: "Anchor-2" 224 0 basechar 0
AnchorPoint: "Anchor-0" 223 705 basechar 0
LayerCount: 2
Fore
SplineSet
57 -8 m 2,0,1
 23 -9 23 -9 4 10 c 128,-1,2
 -15 29 -15 29 -15 59 c 0,3,4
 -15 82 -15 82 -1.5 99.5 c 128,-1,5
 12 117 12 117 38 118 c 2,6,-1
 67 120 l 2,7,8
 107 123 107 123 127 143 c 128,-1,9
 147 163 147 163 147 204 c 2,10,-1
 147 635 l 2,11,12
 147 673 147 673 167 693.5 c 128,-1,13
 187 714 187 714 224 714 c 0,14,15
 262 714 262 714 282 693.5 c 128,-1,16
 302 673 302 673 302 635 c 2,17,-1
 302 206 l 2,18,19
 302 140 302 140 278.5 94.5 c 128,-1,20
 255 49 255 49 208 24 c 128,-1,21
 161 -1 161 -1 92 -6 c 2,22,-1
 57 -8 l 2,0,1
EndSplineSet
EndChar

StartChar: K
Encoding: 75 75 104
Width: 688
GlyphClass: 2
Flags: W
AnchorPoint: "Anchor-2" 341 0 basechar 0
AnchorPoint: "Anchor-0" 341 705 basechar 0
LayerCount: 2
Fore
SplineSet
149 -9 m 256,0,1
 111 -9 111 -9 91 12 c 128,-1,2
 71 33 71 33 71 71 c 2,3,-1
 71 635 l 2,4,5
 71 673 71 673 91 693.5 c 128,-1,6
 111 714 111 714 149 714 c 0,7,8
 186 714 186 714 206 693.5 c 128,-1,9
 226 673 226 673 226 635 c 2,10,-1
 226 398 l 1,11,-1
 228 398 l 1,12,-1
 494 676 l 2,13,14
 511 694 511 694 529.5 703.5 c 128,-1,15
 548 713 548 713 572 713 c 0,16,17
 607 713 607 713 622.5 695 c 128,-1,18
 638 677 638 677 636 653 c 128,-1,19
 634 629 634 629 614 608 c 2,20,-1
 347 335 l 1,21,-1
 348 402 l 1,22,-1
 628 103 l 2,23,24
 651 78 651 78 651.5 52 c 128,-1,25
 652 26 652 26 634.5 8.5 c 128,-1,26
 617 -9 617 -9 583 -9 c 0,27,28
 554 -9 554 -9 536.5 3 c 128,-1,29
 519 15 519 15 498 38 c 2,30,-1
 228 322 l 1,31,-1
 226 322 l 1,32,-1
 226 71 l 2,33,34
 226 33 226 33 206.5 12 c 128,-1,35
 187 -9 187 -9 149 -9 c 256,0,1
EndSplineSet
EndChar

StartChar: L
Encoding: 76 76 106
Width: 573
GlyphClass: 2
Flags: W
AnchorPoint: "Anchor-5" 195 387 basechar 0
AnchorPoint: "Anchor-2" 312 0 basechar 0
AnchorPoint: "Anchor-1" 327 705 basechar 0
AnchorPoint: "Anchor-0" 148 705 basechar 0
LayerCount: 2
Fore
SplineSet
150 0 m 2,0,1
 112 0 112 0 91.5 21 c 128,-1,2
 71 42 71 42 71 79 c 2,3,-1
 71 628 l 2,4,5
 71 667 71 667 91 687 c 128,-1,6
 111 707 111 707 149 707 c 0,7,8
 186 707 186 707 206 687 c 128,-1,9
 226 667 226 667 226 628 c 2,10,-1
 226 131 l 1,11,-1
 494 131 l 2,12,13
 526 131 526 131 543.5 114 c 128,-1,14
 561 97 561 97 561 66 c 0,15,16
 561 34 561 34 543.5 17 c 128,-1,17
 526 0 526 0 494 0 c 2,18,-1
 150 0 l 2,0,1
EndSplineSet
EndChar

StartChar: M
Encoding: 77 77 116
Width: 876
GlyphClass: 2
Flags: W
AnchorPoint: "Anchor-2" 439 0 basechar 0
AnchorPoint: "Anchor-0" 439 705 basechar 0
LayerCount: 2
Fore
SplineSet
143 -9 m 0,0,1
 109 -9 109 -9 91 10 c 128,-1,2
 73 29 73 29 73 63 c 2,3,-1
 73 642 l 2,4,5
 73 676 73 676 92.5 695 c 128,-1,6
 112 714 112 714 146 714 c 0,7,8
 176 714 176 714 193.5 702.5 c 128,-1,9
 211 691 211 691 226 663 c 2,10,-1
 457 241 l 1,11,-1
 423 241 l 1,12,-1
 654 663 l 2,13,14
 669 691 669 691 686.5 702.5 c 128,-1,15
 704 714 704 714 733 714 c 0,16,17
 767 714 767 714 785.5 695 c 128,-1,18
 804 676 804 676 804 642 c 2,19,-1
 804 63 l 2,20,21
 804 29 804 29 786 10 c 128,-1,22
 768 -9 768 -9 734 -9 c 256,23,24
 700 -9 700 -9 681.5 10 c 128,-1,25
 663 29 663 29 663 63 c 2,26,-1
 663 468 l 1,27,-1
 685 468 l 1,28,-1
 499 135 l 2,29,30
 487 116 487 116 473.5 106.5 c 128,-1,31
 460 97 460 97 438 97 c 256,32,33
 416 97 416 97 402 107 c 128,-1,34
 388 117 388 117 377 135 c 2,35,-1
 189 469 l 1,36,-1
 213 469 l 1,37,-1
 213 63 l 2,38,39
 213 29 213 29 195.5 10 c 128,-1,40
 178 -9 178 -9 143 -9 c 0,0,1
EndSplineSet
EndChar

StartChar: N
Encoding: 78 78 118
Width: 753
GlyphClass: 2
Flags: W
AnchorPoint: "Anchor-2" 377 0 basechar 0
AnchorPoint: "Anchor-0" 376 705 basechar 0
LayerCount: 2
Fore
SplineSet
143 -9 m 0,0,1
 108 -9 108 -9 89.5 10.5 c 128,-1,2
 71 30 71 30 71 66 c 2,3,-1
 71 636 l 2,4,5
 71 674 71 674 89.5 694 c 128,-1,6
 108 714 108 714 139 714 c 0,7,8
 166 714 166 714 180.5 703.5 c 128,-1,9
 195 693 195 693 214 669 c 2,10,-1
 565 222 l 1,11,-1
 538 222 l 1,12,-1
 538 640 l 2,13,14
 538 675 538 675 556.5 694.5 c 128,-1,15
 575 714 575 714 610 714 c 256,16,17
 645 714 645 714 663.5 694.5 c 128,-1,18
 682 675 682 675 682 640 c 2,19,-1
 682 63 l 2,20,21
 682 30 682 30 665 10.5 c 128,-1,22
 648 -9 648 -9 619 -9 c 0,23,24
 591 -9 591 -9 574.5 2 c 128,-1,25
 558 13 558 13 539 37 c 2,26,-1
 189 484 l 1,27,-1
 215 484 l 1,28,-1
 215 66 l 2,29,30
 215 30 215 30 197 10.5 c 128,-1,31
 179 -9 179 -9 143 -9 c 0,0,1
EndSplineSet
EndChar

StartChar: Eng
Encoding: 330 330 128
Width: 753
GlyphClass: 2
Flags: W
AnchorPoint: "Anchor-2" 377 0 basechar 0
AnchorPoint: "Anchor-0" 376 705 basechar 0
LayerCount: 2
Fore
SplineSet
480 -188 m 0,0,1
 454 -189 454 -189 438 -179 c 128,-1,2
 422 -169 422 -169 416 -153.5 c 128,-1,3
 410 -138 410 -138 413 -122 c 128,-1,4
 416 -106 416 -106 427 -94 c 128,-1,5
 438 -82 438 -82 457 -80 c 0,6,7
 496 -76 496 -76 517 -58.5 c 128,-1,8
 538 -41 538 -41 538 -2 c 2,9,-1
 538 59 l 1,10,-1
 568 0 l 1,11,-1
 189 484 l 1,12,-1
 215 484 l 1,13,-1
 215 66 l 2,14,15
 215 30 215 30 197 10.5 c 128,-1,16
 179 -9 179 -9 143 -9 c 0,17,18
 108 -9 108 -9 89.5 10.5 c 128,-1,19
 71 30 71 30 71 66 c 2,20,-1
 71 636 l 2,21,22
 71 674 71 674 89.5 694 c 128,-1,23
 108 714 108 714 139 714 c 0,24,25
 166 714 166 714 180.5 703.5 c 128,-1,26
 195 693 195 693 214 669 c 2,27,-1
 565 222 l 1,28,-1
 538 222 l 1,29,-1
 538 640 l 2,30,31
 538 675 538 675 556.5 694.5 c 128,-1,32
 575 714 575 714 610 714 c 256,33,34
 645 714 645 714 663.5 694.5 c 128,-1,35
 682 675 682 675 682 640 c 2,36,-1
 682 18 l 2,37,38
 682 -90 682 -90 632.5 -136.5 c 128,-1,39
 583 -183 583 -183 480 -188 c 0,0,1
EndSplineSet
EndChar

StartChar: O
Encoding: 79 79 129
Width: 796
GlyphClass: 2
Flags: W
AnchorPoint: "Anchor-5" 398 353 basechar 0
AnchorPoint: "Anchor-3" 459 0 basechar 0
AnchorPoint: "Anchor-2" 397 0 basechar 0
AnchorPoint: "Anchor-1" 465 705 basechar 0
AnchorPoint: "Anchor-0" 397 705 basechar 0
LayerCount: 2
Fore
SplineSet
398 -11 m 0,0,1
 294 -11 294 -11 215.5 34.5 c 128,-1,2
 137 80 137 80 93.5 162 c 128,-1,3
 50 244 50 244 50 353 c 0,4,5
 50 436 50 436 74.5 502.5 c 128,-1,6
 99 569 99 569 145 616.5 c 128,-1,7
 191 664 191 664 255.5 690 c 128,-1,8
 320 716 320 716 398 716 c 0,9,10
 504 716 504 716 582 671 c 128,-1,11
 660 626 660 626 703.5 544.5 c 128,-1,12
 747 463 747 463 747 354 c 0,13,14
 747 271 747 271 722 204 c 128,-1,15
 697 137 697 137 651 89 c 128,-1,16
 605 41 605 41 541 15 c 128,-1,17
 477 -11 477 -11 398 -11 c 0,0,1
398 121 m 0,18,19
 457 121 457 121 498.5 148.5 c 128,-1,20
 540 176 540 176 562.5 228.5 c 128,-1,21
 585 281 585 281 585 353 c 0,22,23
 585 463 585 463 536 523.5 c 128,-1,24
 487 584 487 584 398 584 c 0,25,26
 340 584 340 584 298 557 c 128,-1,27
 256 530 256 530 234 478 c 128,-1,28
 212 426 212 426 212 353 c 0,29,30
 212 244 212 244 261 182.5 c 128,-1,31
 310 121 310 121 398 121 c 0,18,19
EndSplineSet
Substitution2: "Single Substitution lookup 29 subtable" ordmasculine
Substitution2: "'aalt' Access All Alternates lookup 0 subtable" ordmasculine
EndChar

StartChar: OE
Encoding: 338 338 163
Width: 1062
GlyphClass: 2
Flags: W
AnchorPoint: "Anchor-2" 602 0 basechar 0
AnchorPoint: "Anchor-0" 602 705 basechar 0
LayerCount: 2
Fore
SplineSet
427 0 m 2,0,1
 247 0 247 0 148.5 92.5 c 128,-1,2
 50 185 50 185 50 353 c 0,3,4
 50 437 50 437 75 502.5 c 128,-1,5
 100 568 100 568 148.5 613.5 c 128,-1,6
 197 659 197 659 267.5 682 c 128,-1,7
 338 705 338 705 427 705 c 2,8,-1
 957 705 l 2,9,10
 987 705 987 705 1003 689.5 c 128,-1,11
 1019 674 1019 674 1019 645 c 0,12,13
 1019 615 1019 615 1003 599.5 c 128,-1,14
 987 584 987 584 957 584 c 2,15,-1
 676 584 l 1,16,-1
 676 419 l 1,17,-1
 935 419 l 2,18,19
 965 419 965 419 980.5 403.5 c 128,-1,20
 996 388 996 388 996 358 c 256,21,22
 996 328 996 328 980.5 312.5 c 128,-1,23
 965 297 965 297 935 297 c 2,24,-1
 676 297 l 1,25,-1
 676 121 l 1,26,-1
 957 121 l 2,27,28
 987 121 987 121 1003 105.5 c 128,-1,29
 1019 90 1019 90 1019 61 c 0,30,31
 1019 31 1019 31 1003 15.5 c 128,-1,32
 987 0 987 0 957 0 c 2,33,-1
 427 0 l 2,0,1
437 127 m 2,34,-1
 527 127 l 1,35,-1
 527 578 l 1,36,-1
 437 578 l 2,37,38
 380 578 380 578 338 564.5 c 128,-1,39
 296 551 296 551 268 522.5 c 128,-1,40
 240 494 240 494 226 452 c 128,-1,41
 212 410 212 410 212 353 c 0,42,43
 212 239 212 239 267.5 183 c 128,-1,44
 323 127 323 127 437 127 c 2,34,-1
EndSplineSet
EndChar

StartChar: P
Encoding: 80 80 164
Width: 664
GlyphClass: 2
Flags: W
AnchorPoint: "Anchor-2" 337 0 basechar 0
AnchorPoint: "Anchor-0" 337 705 basechar 0
LayerCount: 2
Fore
SplineSet
149 -9 m 256,0,1
 111 -9 111 -9 91 12 c 128,-1,2
 71 33 71 33 71 71 c 2,3,-1
 71 626 l 2,4,5
 71 665 71 665 91.5 685 c 128,-1,6
 112 705 112 705 150 705 c 2,7,-1
 393 705 l 2,8,9
 511 705 511 705 575 645.5 c 128,-1,10
 639 586 639 586 639 480 c 256,11,12
 639 374 639 374 575 314 c 128,-1,13
 511 254 511 254 393 254 c 2,14,-1
 226 254 l 1,15,-1
 226 71 l 2,16,17
 226 33 226 33 206.5 12 c 128,-1,18
 187 -9 187 -9 149 -9 c 256,0,1
226 374 m 1,19,-1
 367 374 l 2,20,21
 427 374 427 374 458.5 401 c 128,-1,22
 490 428 490 428 490 480 c 256,23,24
 490 532 490 532 458.5 558 c 128,-1,25
 427 584 427 584 367 584 c 2,26,-1
 226 584 l 1,27,-1
 226 374 l 1,19,-1
EndSplineSet
EndChar

StartChar: Thorn
Encoding: 222 222 165
Width: 667
GlyphClass: 2
Flags: W
AnchorPoint: "Anchor-2" 340 0 basechar 0
AnchorPoint: "Anchor-0" 339 705 basechar 0
LayerCount: 2
Fore
SplineSet
149 -2 m 256,0,1
 111 -2 111 -2 91 19 c 128,-1,2
 71 40 71 40 71 77 c 2,3,-1
 71 628 l 2,4,5
 71 667 71 667 92 687 c 128,-1,6
 113 707 113 707 151 707 c 0,7,8
 187 707 187 707 206.5 687.5 c 128,-1,9
 226 668 226 668 226 638 c 2,10,-1
 226 593 l 1,11,-1
 396 593 l 2,12,13
 514 593 514 593 578 533 c 128,-1,14
 642 473 642 473 642 367 c 256,15,16
 642 261 642 261 578 201 c 128,-1,17
 514 141 514 141 396 141 c 2,18,-1
 226 141 l 1,19,-1
 226 77 l 2,20,21
 226 40 226 40 206.5 19 c 128,-1,22
 187 -2 187 -2 149 -2 c 256,0,1
226 262 m 1,23,-1
 369 262 l 2,24,25
 430 262 430 262 461.5 288.5 c 128,-1,26
 493 315 493 315 493 367 c 0,27,28
 493 420 493 420 461.5 446 c 128,-1,29
 430 472 430 472 369 472 c 2,30,-1
 226 472 l 1,31,-1
 226 262 l 1,23,-1
EndSplineSet
EndChar

StartChar: Q
Encoding: 81 81 166
Width: 796
GlyphClass: 2
Flags: W
AnchorPoint: "Anchor-5" 398 353 basechar 0
AnchorPoint: "Anchor-3" 459 0 basechar 0
AnchorPoint: "Anchor-2" 377 0 basechar 0
AnchorPoint: "Anchor-1" 465 705 basechar 0
AnchorPoint: "Anchor-0" 377 705 basechar 0
LayerCount: 2
Fore
SplineSet
684 -101 m 2,0,1
 700 -127 700 -127 696 -148.5 c 128,-1,2
 692 -170 692 -170 676 -184.5 c 128,-1,3
 660 -199 660 -199 637.5 -203 c 128,-1,4
 615 -207 615 -207 592.5 -198.5 c 128,-1,5
 570 -190 570 -190 554 -166 c 2,6,-1
 483 -50 l 2,7,8
 470 -30 470 -30 449.5 -20.5 c 128,-1,9
 429 -11 429 -11 397 -11 c 1,10,-1
 515 34 l 1,11,12
 561 34 561 34 590.5 18 c 128,-1,13
 620 2 620 2 644 -37 c 2,14,-1
 684 -101 l 2,0,1
398 -11 m 0,15,16
 294 -11 294 -11 215.5 34.5 c 128,-1,17
 137 80 137 80 93.5 162 c 128,-1,18
 50 244 50 244 50 353 c 0,19,20
 50 436 50 436 74.5 502.5 c 128,-1,21
 99 569 99 569 145 616.5 c 128,-1,22
 191 664 191 664 255.5 690 c 128,-1,23
 320 716 320 716 398 716 c 0,24,25
 504 716 504 716 582 671 c 128,-1,26
 660 626 660 626 703.5 544.5 c 128,-1,27
 747 463 747 463 747 354 c 0,28,29
 747 271 747 271 722 204 c 128,-1,30
 697 137 697 137 651 89 c 128,-1,31
 605 41 605 41 541 15 c 128,-1,32
 477 -11 477 -11 398 -11 c 0,15,16
398 121 m 0,33,34
 457 121 457 121 498.5 148.5 c 128,-1,35
 540 176 540 176 562.5 228.5 c 128,-1,36
 585 281 585 281 585 353 c 0,37,38
 585 463 585 463 536 523.5 c 128,-1,39
 487 584 487 584 398 584 c 0,40,41
 340 584 340 584 298 557 c 128,-1,42
 256 530 256 530 234 478 c 128,-1,43
 212 426 212 426 212 353 c 0,44,45
 212 244 212 244 261 182.5 c 128,-1,46
 310 121 310 121 398 121 c 0,33,34
EndSplineSet
EndChar

StartChar: R
Encoding: 82 82 167
Width: 696
GlyphClass: 2
Flags: W
AnchorPoint: "Anchor-2" 353 0 basechar 0
AnchorPoint: "Anchor-0" 352 705 basechar 0
LayerCount: 2
Fore
SplineSet
149 -9 m 256,0,1
 111 -9 111 -9 91 12 c 128,-1,2
 71 33 71 33 71 71 c 2,3,-1
 71 626 l 2,4,5
 71 665 71 665 91.5 685 c 128,-1,6
 112 705 112 705 150 705 c 2,7,-1
 393 705 l 2,8,9
 511 705 511 705 575 648 c 128,-1,10
 639 591 639 591 639 489 c 0,11,12
 639 423 639 423 610 375 c 128,-1,13
 581 327 581 327 526.5 301 c 128,-1,14
 472 275 472 275 393 275 c 1,15,-1
 401 292 l 1,16,-1
 442 292 l 2,17,18
 484 292 484 292 515.5 271.5 c 128,-1,19
 547 251 547 251 570 209 c 2,20,-1
 632 94 l 2,21,22
 646 69 646 69 645 45 c 128,-1,23
 644 21 644 21 627 6 c 128,-1,24
 610 -9 610 -9 577 -9 c 256,25,26
 544 -9 544 -9 523.5 5 c 128,-1,27
 503 19 503 19 487 48 c 2,28,-1
 391 225 l 2,29,30
 376 253 376 253 354.5 263 c 128,-1,31
 333 273 333 273 302 273 c 2,32,-1
 226 273 l 1,33,-1
 226 71 l 2,34,35
 226 33 226 33 206.5 12 c 128,-1,36
 187 -9 187 -9 149 -9 c 256,0,1
226 385 m 1,37,-1
 365 385 l 2,38,39
 427 385 427 385 458.5 410 c 128,-1,40
 490 435 490 435 490 485 c 0,41,42
 490 534 490 534 458.5 559 c 128,-1,43
 427 584 427 584 365 584 c 2,44,-1
 226 584 l 1,45,-1
 226 385 l 1,37,-1
EndSplineSet
EndChar

StartChar: S
Encoding: 83 83 175
Width: 641
GlyphClass: 2
Flags: W
AnchorPoint: "Anchor-2" 327 0 basechar 0
AnchorPoint: "Anchor-0" 331 705 basechar 0
LayerCount: 2
Fore
SplineSet
323 -11 m 0,0,1
 281 -11 281 -11 237.5 -4.5 c 128,-1,2
 194 2 194 2 154.5 14 c 128,-1,3
 115 26 115 26 84 44 c 0,4,5
 62 56 62 56 53 75.5 c 128,-1,6
 44 95 44 95 46.5 115 c 128,-1,7
 49 135 49 135 61.5 150.5 c 128,-1,8
 74 166 74 166 93.5 170.5 c 128,-1,9
 113 175 113 175 137 163 c 0,10,11
 178 140 178 140 226.5 129 c 128,-1,12
 275 118 275 118 323 118 c 0,13,14
 396 118 396 118 427 140.5 c 128,-1,15
 458 163 458 163 458 197 c 0,16,17
 458 226 458 226 436 243 c 128,-1,18
 414 260 414 260 359 272 c 2,19,-1
 246 296 l 2,20,21
 150 316 150 316 103.5 364.5 c 128,-1,22
 57 413 57 413 57 492 c 0,23,24
 57 542 57 542 78 583 c 128,-1,25
 99 624 99 624 137 654 c 128,-1,26
 175 684 175 684 227.5 700 c 128,-1,27
 280 716 280 716 343 716 c 0,28,29
 399 716 399 716 453 702.5 c 128,-1,30
 507 689 507 689 548 663 c 0,31,32
 568 651 568 651 575.5 632.5 c 128,-1,33
 583 614 583 614 580.5 595.5 c 128,-1,34
 578 577 578 577 565.5 563 c 128,-1,35
 553 549 553 549 534 545 c 128,-1,36
 515 541 515 541 488 554 c 0,37,38
 455 571 455 571 418 579 c 128,-1,39
 381 587 381 587 342 587 c 0,40,41
 300 587 300 587 270.5 576 c 128,-1,42
 241 565 241 565 225.5 545 c 128,-1,43
 210 525 210 525 210 499 c 0,44,45
 210 470 210 470 231 452 c 128,-1,46
 252 434 252 434 304 423 c 2,47,-1
 417 399 l 2,48,49
 515 378 515 378 563 331.5 c 128,-1,50
 611 285 611 285 611 209 c 0,51,52
 611 159 611 159 591 118.5 c 128,-1,53
 571 78 571 78 533 49 c 128,-1,54
 495 20 495 20 442 4.5 c 128,-1,55
 389 -11 389 -11 323 -11 c 0,0,1
EndSplineSet
EndChar

StartChar: uni1E9E
Encoding: 7838 7838 186
Width: 741
GlyphClass: 1
Flags: W
LayerCount: 2
Fore
SplineSet
464 -11 m 0,0,1
 419 -11 419 -11 380 -2 c 128,-1,2
 341 7 341 7 311 22 c 0,3,4
 290 33 290 33 282 50.5 c 128,-1,5
 274 68 274 68 276 86.5 c 128,-1,6
 278 105 278 105 288 120 c 128,-1,7
 298 135 298 135 314 140 c 128,-1,8
 330 145 330 145 349 136 c 0,9,10
 374 123 374 123 398 117.5 c 128,-1,11
 422 112 422 112 447 112 c 0,12,13
 494 112 494 112 520 136.5 c 128,-1,14
 546 161 546 161 546 203 c 0,15,16
 546 248 546 248 515.5 270.5 c 128,-1,17
 485 293 485 293 422 293 c 2,18,-1
 368 293 l 2,19,20
 342 293 342 293 325 308.5 c 128,-1,21
 308 324 308 324 308 353 c 0,22,23
 308 383 308 383 323 397.5 c 128,-1,24
 338 412 338 412 361 412 c 2,25,-1
 405 412 l 2,26,27
 453 412 453 412 481 435.5 c 128,-1,28
 509 459 509 459 509 502 c 0,29,30
 509 546 509 546 477 568.5 c 128,-1,31
 445 591 445 591 384 591 c 0,32,33
 305 591 305 591 265.5 554.5 c 128,-1,34
 226 518 226 518 226 443 c 2,35,-1
 226 71 l 2,36,37
 226 33 226 33 206 12 c 128,-1,38
 186 -9 186 -9 149 -9 c 0,39,40
 111 -9 111 -9 91 12 c 128,-1,41
 71 33 71 33 71 71 c 2,42,-1
 71 444 l 2,43,44
 71 533 71 533 108.5 593.5 c 128,-1,45
 146 654 146 654 217.5 684.5 c 128,-1,46
 289 715 289 715 392 715 c 0,47,48
 474 715 474 715 533.5 692 c 128,-1,49
 593 669 593 669 625.5 626 c 128,-1,50
 658 583 658 583 658 523 c 256,51,52
 658 463 658 463 625 418 c 128,-1,53
 592 373 592 373 533 354 c 1,54,-1
 533 372 l 1,55,56
 582 367 582 367 618.5 343.5 c 128,-1,57
 655 320 655 320 674.5 281.5 c 128,-1,58
 694 243 694 243 694 192 c 0,59,60
 694 128 694 128 666.5 83 c 128,-1,61
 639 38 639 38 587.5 13.5 c 128,-1,62
 536 -11 536 -11 464 -11 c 0,0,1
EndSplineSet
EndChar

StartChar: T
Encoding: 84 84 187
Width: 632
GlyphClass: 2
Flags: W
AnchorPoint: "Anchor-5" 316 358 basechar 0
AnchorPoint: "Anchor-2" 317 0 basechar 0
AnchorPoint: "Anchor-0" 316 705 basechar 0
LayerCount: 2
Fore
SplineSet
317 -9 m 256,0,1
 279 -9 279 -9 259 12 c 128,-1,2
 239 33 239 33 239 71 c 2,3,-1
 239 577 l 1,4,-1
 62 577 l 2,5,6
 31 577 31 577 14 594 c 128,-1,7
 -3 611 -3 611 -3 641 c 0,8,9
 -3 672 -3 672 14 688.5 c 128,-1,10
 31 705 31 705 62 705 c 2,11,-1
 571 705 l 2,12,13
 602 705 602 705 619 688.5 c 128,-1,14
 636 672 636 672 636 641 c 0,15,16
 636 611 636 611 619 594 c 128,-1,17
 602 577 602 577 571 577 c 2,18,-1
 394 577 l 1,19,-1
 394 71 l 2,20,21
 394 33 394 33 374.5 12 c 128,-1,22
 355 -9 355 -9 317 -9 c 256,0,1
EndSplineSet
EndChar

StartChar: U
Encoding: 85 85 194
Width: 743
GlyphClass: 2
Flags: W
AnchorPoint: "Anchor-3" 430 0 basechar 0
AnchorPoint: "Anchor-2" 373 0 basechar 0
AnchorPoint: "Anchor-1" 568 705 basechar 0
AnchorPoint: "Anchor-0" 373 705 basechar 0
LayerCount: 2
Fore
SplineSet
373 -11 m 0,0,1
 298 -11 298 -11 240.5 8.5 c 128,-1,2
 183 28 183 28 144 66 c 128,-1,3
 105 104 105 104 85.5 161.5 c 128,-1,4
 66 219 66 219 66 295 c 2,5,-1
 66 635 l 2,6,7
 66 674 66 674 86 694 c 128,-1,8
 106 714 106 714 144 714 c 0,9,10
 181 714 181 714 201 694 c 128,-1,11
 221 674 221 674 221 635 c 2,12,-1
 221 294 l 2,13,14
 221 208 221 208 260 164.5 c 128,-1,15
 299 121 299 121 373 121 c 256,16,17
 447 121 447 121 485.5 164.5 c 128,-1,18
 524 208 524 208 524 294 c 2,19,-1
 524 635 l 2,20,21
 524 674 524 674 544 694 c 128,-1,22
 564 714 564 714 601 714 c 256,23,24
 638 714 638 714 657.5 694 c 128,-1,25
 677 674 677 674 677 635 c 2,26,-1
 677 295 l 2,27,28
 677 194 677 194 642.5 125.5 c 128,-1,29
 608 57 608 57 540.5 23 c 128,-1,30
 473 -11 473 -11 373 -11 c 0,0,1
EndSplineSet
EndChar

StartChar: V
Encoding: 86 86 217
Width: 727
GlyphClass: 2
Flags: W
AnchorPoint: "Anchor-2" 364 0 basechar 0
AnchorPoint: "Anchor-0" 363 705 basechar 0
LayerCount: 2
Fore
SplineSet
364 -9 m 0,0,1
 332 -9 332 -9 311.5 5.5 c 128,-1,2
 291 20 291 20 278 50 c 2,3,-1
 26 610 l 2,4,5
 12 640 12 640 18 663.5 c 128,-1,6
 24 687 24 687 43 700.5 c 128,-1,7
 62 714 62 714 89 714 c 0,8,9
 123 714 123 714 141 698.5 c 128,-1,10
 159 683 159 683 171 653 c 2,11,-1
 392 142 l 1,12,-1
 342 142 l 1,13,-1
 563 654 l 2,14,15
 576 684 576 684 594 699 c 128,-1,16
 612 714 612 714 644 714 c 0,17,18
 671 714 671 714 688.5 700.5 c 128,-1,19
 706 687 706 687 710.5 663.5 c 128,-1,20
 715 640 715 640 702 610 c 2,21,-1
 450 50 l 2,22,23
 436 20 436 20 416.5 5.5 c 128,-1,24
 397 -9 397 -9 364 -9 c 0,0,1
EndSplineSet
EndChar

StartChar: W
Encoding: 87 87 218
Width: 1120
GlyphClass: 2
Flags: W
AnchorPoint: "Anchor-2" 560 0 basechar 0
AnchorPoint: "Anchor-0" 561 705 basechar 0
LayerCount: 2
Fore
SplineSet
332 -9 m 256,0,1
 300 -9 300 -9 280 6.5 c 128,-1,2
 260 22 260 22 248 54 c 2,3,-1
 46 622 l 2,4,5
 33 660 33 660 51.5 687 c 128,-1,6
 70 714 70 714 116 714 c 0,7,8
 148 714 148 714 165.5 699 c 128,-1,9
 183 684 183 684 194 652 c 2,10,-1
 359 161 l 1,11,-1
 316 161 l 1,12,-1
 490 651 l 2,13,14
 502 683 502 683 519.5 698.5 c 128,-1,15
 537 714 537 714 566 714 c 0,16,17
 594 714 594 714 611 698.5 c 128,-1,18
 628 683 628 683 640 650 c 2,19,-1
 806 161 l 1,20,-1
 769 161 l 1,21,-1
 937 652 l 2,22,23
 947 683 947 683 965 698.5 c 128,-1,24
 983 714 983 714 1014 714 c 0,25,26
 1053 714 1053 714 1071 687 c 128,-1,27
 1089 660 1089 660 1075 622 c 2,28,-1
 871 53 l 2,29,30
 860 22 860 22 841 6.5 c 128,-1,31
 822 -9 822 -9 789 -9 c 0,32,33
 757 -9 757 -9 738 6.5 c 128,-1,34
 719 22 719 22 707 54 c 2,35,-1
 549 501 l 1,36,-1
 573 501 l 1,37,-1
 413 53 l 2,38,39
 401 22 401 22 382.5 6.5 c 128,-1,40
 364 -9 364 -9 332 -9 c 256,0,1
EndSplineSet
EndChar

StartChar: X
Encoding: 88 88 223
Width: 685
GlyphClass: 2
Flags: W
AnchorPoint: "Anchor-2" 344 0 basechar 0
AnchorPoint: "Anchor-0" 342 705 basechar 0
LayerCount: 2
Fore
SplineSet
115 -9 m 0,0,1
 85 -9 85 -9 65.5 7.5 c 128,-1,2
 46 24 46 24 43 48.5 c 128,-1,3
 40 73 40 73 59 99 c 2,4,-1
 280 392 l 1,5,-1
 280 323 l 1,6,-1
 68 605 l 2,7,8
 49 632 49 632 51.5 656.5 c 128,-1,9
 54 681 54 681 73.5 697.5 c 128,-1,10
 93 714 93 714 122 714 c 0,11,12
 147 714 147 714 165.5 702 c 128,-1,13
 184 690 184 690 203 664 c 2,14,-1
 368 436 l 1,15,-1
 318 436 l 1,16,-1
 482 664 l 2,17,18
 501 691 501 691 520 702.5 c 128,-1,19
 539 714 539 714 564 714 c 0,20,21
 594 714 594 714 613.5 698 c 128,-1,22
 633 682 633 682 635.5 657.5 c 128,-1,23
 638 633 638 633 618 605 c 2,24,-1
 405 323 l 1,25,-1
 405 392 l 1,26,-1
 625 99 l 2,27,28
 645 73 645 73 642.5 48.5 c 128,-1,29
 640 24 640 24 620.5 7.5 c 128,-1,30
 601 -9 601 -9 570 -9 c 0,31,32
 546 -9 546 -9 527.5 3 c 128,-1,33
 509 15 509 15 489 42 c 2,34,-1
 317 279 l 1,35,-1
 368 279 l 1,36,-1
 196 42 l 2,37,38
 177 15 177 15 158 3 c 128,-1,39
 139 -9 139 -9 115 -9 c 0,0,1
EndSplineSet
EndChar

StartChar: Y
Encoding: 89 89 224
Width: 631
GlyphClass: 2
Flags: W
AnchorPoint: "Anchor-2" 317 0 basechar 0
AnchorPoint: "Anchor-0" 315 705 basechar 0
LayerCount: 2
Fore
SplineSet
316 -9 m 0,0,1
 278 -9 278 -9 258 12 c 128,-1,2
 238 33 238 33 238 72 c 2,3,-1
 238 362 l 1,4,-1
 270 273 l 1,5,-1
 34 608 l 2,6,7
 20 629 20 629 22 653.5 c 128,-1,8
 24 678 24 678 42 696 c 128,-1,9
 60 714 60 714 93 714 c 0,10,11
 117 714 117 714 136.5 702 c 128,-1,12
 156 690 156 690 174 664 c 2,13,-1
 334 433 l 1,14,-1
 302 433 l 1,15,-1
 462 664 l 2,16,17
 481 691 481 691 499.5 702.5 c 128,-1,18
 518 714 518 714 543 714 c 0,19,20
 575 714 575 714 593 697.5 c 128,-1,21
 611 681 611 681 612 656.5 c 128,-1,22
 613 632 613 632 595 606 c 2,23,-1
 362 273 l 1,24,-1
 393 362 l 1,25,-1
 393 72 l 2,26,27
 393 -9 393 -9 316 -9 c 0,0,1
EndSplineSet
EndChar

StartChar: uni01B3
Encoding: 435 435 231
Width: 644
GlyphClass: 1
Flags: W
LayerCount: 2
Fore
SplineSet
316 -9 m 0,0,1
 278 -9 278 -9 258 12 c 128,-1,2
 238 33 238 33 238 73 c 2,3,-1
 238 362 l 1,4,-1
 270 273 l 1,5,-1
 34 608 l 2,6,7
 20 629 20 629 22 653.5 c 128,-1,8
 24 678 24 678 42 696 c 128,-1,9
 60 714 60 714 94 714 c 0,10,11
 115 714 115 714 128.5 708.5 c 128,-1,12
 142 703 142 703 153.5 690 c 128,-1,13
 165 677 165 677 180 655 c 2,14,-1
 334 433 l 1,15,-1
 302 433 l 1,16,-1
 425 614 l 2,17,18
 449 648 449 648 476 670 c 128,-1,19
 503 692 503 692 536.5 703.5 c 128,-1,20
 570 715 570 715 611 715 c 0,21,22
 656 715 656 715 680.5 703 c 128,-1,23
 705 691 705 691 705 652 c 0,24,25
 705 635 705 635 699.5 624 c 128,-1,26
 694 613 694 613 685 607.5 c 128,-1,27
 676 602 676 602 665 603 c 0,28,29
 658 603 658 603 651.5 603.5 c 128,-1,30
 645 604 645 604 639 604 c 0,31,32
 617 604 617 604 596 593 c 128,-1,33
 575 582 575 582 558 557 c 2,34,-1
 362 273 l 1,35,-1
 393 362 l 1,36,-1
 393 73 l 2,37,38
 393 -9 393 -9 316 -9 c 0,0,1
EndSplineSet
EndChar

StartChar: Z
Encoding: 90 90 235
Width: 615
GlyphClass: 2
Flags: W
AnchorPoint: "Anchor-2" 318 0 basechar 0
AnchorPoint: "Anchor-0" 317 705 basechar 0
LayerCount: 2
Fore
SplineSet
117 0 m 2,0,1
 87 0 87 0 68 12.5 c 128,-1,2
 49 25 49 25 42.5 46.5 c 128,-1,3
 36 68 36 68 42.5 94 c 128,-1,4
 49 120 49 120 70 146 c 2,5,-1
 434 623 l 1,6,-1
 434 576 l 1,7,-1
 105 576 l 2,8,9
 72 576 72 576 54.5 593 c 128,-1,10
 37 610 37 610 37 641 c 256,11,12
 37 672 37 672 54.5 688.5 c 128,-1,13
 72 705 72 705 105 705 c 2,14,-1
 507 705 l 2,15,16
 538 705 538 705 556.5 692.5 c 128,-1,17
 575 680 575 680 582 659 c 128,-1,18
 589 638 589 638 582 611.5 c 128,-1,19
 575 585 575 585 554 559 c 2,20,-1
 190 83 l 1,21,-1
 190 129 l 1,22,-1
 535 129 l 2,23,24
 568 129 568 129 585.5 112.5 c 128,-1,25
 603 96 603 96 603 65 c 0,26,27
 603 33 603 33 585.5 16.5 c 128,-1,28
 568 0 568 0 535 0 c 2,29,-1
 117 0 l 2,0,1
EndSplineSet
EndChar

StartChar: a
Encoding: 97 97 242
Width: 557
GlyphClass: 2
Flags: W
AnchorPoint: "Anchor-3" 456 0 basechar 0
AnchorPoint: "Anchor-2" 279 0 basechar 0
AnchorPoint: "Anchor-0" 283 484 basechar 0
LayerCount: 2
Fore
SplineSet
224 -11 m 0,0,1
 170 -11 170 -11 127 10 c 128,-1,2
 84 31 84 31 60 67 c 128,-1,3
 36 103 36 103 36 148 c 0,4,5
 36 202 36 202 64 233.5 c 128,-1,6
 92 265 92 265 155 278.5 c 128,-1,7
 218 292 218 292 322 292 c 2,8,-1
 375 292 l 1,9,-1
 375 214 l 1,10,-1
 323 214 l 2,11,12
 272 214 272 214 240.5 208.5 c 128,-1,13
 209 203 209 203 195.5 190 c 128,-1,14
 182 177 182 177 182 154 c 0,15,16
 182 126 182 126 201.5 108 c 128,-1,17
 221 90 221 90 258 90 c 0,18,19
 287 90 287 90 309.5 103.5 c 128,-1,20
 332 117 332 117 345 140.5 c 128,-1,21
 358 164 358 164 358 194 c 2,22,-1
 358 309 l 2,23,24
 358 353 358 353 338 371.5 c 128,-1,25
 318 390 318 390 270 390 c 0,26,27
 243 390 243 390 211.5 383.5 c 128,-1,28
 180 377 180 377 142 362 c 0,29,30
 120 352 120 352 103 357.5 c 128,-1,31
 86 363 86 363 77 377.5 c 128,-1,32
 68 392 68 392 68 409.5 c 128,-1,33
 68 427 68 427 78 443.5 c 128,-1,34
 88 460 88 460 111 468 c 0,35,36
 158 487 158 487 199.5 494 c 128,-1,37
 241 501 241 501 276 501 c 0,38,39
 353 501 353 501 402.5 478.5 c 128,-1,40
 452 456 452 456 477 409.5 c 128,-1,41
 502 363 502 363 502 290 c 2,42,-1
 502 68 l 2,43,44
 502 31 502 31 484 11 c 128,-1,45
 466 -9 466 -9 432 -9 c 256,46,47
 398 -9 398 -9 379.5 11 c 128,-1,48
 361 31 361 31 361 68 c 2,49,-1
 361 105 l 1,50,-1
 368 99 l 1,51,52
 362 65 362 65 342.5 40.5 c 128,-1,53
 323 16 323 16 293 2.5 c 128,-1,54
 263 -11 263 -11 224 -11 c 0,0,1
EndSplineSet
Substitution2: "'ss01' Style Set 1 lookup 35 subtable" a.ss01
Substitution2: "'salt' Stylistic Alternatives lookup 34 subtable" a.ss01
Substitution2: "Single Substitution lookup 29 subtable" ordfeminine
AlternateSubs2: "'aalt' Access All Alternates lookup 1 subtable" a.ss01 ordfeminine
EndChar

StartChar: aogonek
Encoding: 261 261 265
Width: 557
GlyphClass: 1
Flags: W
LayerCount: 2
Fore
SplineSet
433 -197 m 0,0,1
 374 -197 374 -197 341 -167.5 c 128,-1,2
 308 -138 308 -138 308 -89 c 0,3,4
 308 -53 308 -53 328 -22 c 128,-1,5
 348 9 348 9 381 30 c 1,6,-1
 379 12 l 1,7,8
 369 23 369 23 365 36.5 c 128,-1,9
 361 50 361 50 361 68 c 2,10,-1
 361 105 l 1,11,-1
 368 99 l 1,12,13
 362 65 362 65 342.5 40.5 c 128,-1,14
 323 16 323 16 293 2.5 c 128,-1,15
 263 -11 263 -11 224 -11 c 0,16,17
 170 -11 170 -11 127 10 c 128,-1,18
 84 31 84 31 60 67 c 128,-1,19
 36 103 36 103 36 148 c 0,20,21
 36 202 36 202 64 233.5 c 128,-1,22
 92 265 92 265 155 278.5 c 128,-1,23
 218 292 218 292 322 292 c 2,24,-1
 375 292 l 1,25,-1
 375 214 l 1,26,-1
 323 214 l 2,27,28
 272 214 272 214 240.5 208.5 c 128,-1,29
 209 203 209 203 195.5 190 c 128,-1,30
 182 177 182 177 182 154 c 0,31,32
 182 126 182 126 201.5 108 c 128,-1,33
 221 90 221 90 258 90 c 0,34,35
 287 90 287 90 309.5 103.5 c 128,-1,36
 332 117 332 117 345 140.5 c 128,-1,37
 358 164 358 164 358 194 c 2,38,-1
 358 309 l 2,39,40
 358 353 358 353 338 371.5 c 128,-1,41
 318 390 318 390 270 390 c 0,42,43
 243 390 243 390 211.5 383.5 c 128,-1,44
 180 377 180 377 142 362 c 0,45,46
 120 352 120 352 103 357.5 c 128,-1,47
 86 363 86 363 77 377.5 c 128,-1,48
 68 392 68 392 68 409.5 c 128,-1,49
 68 427 68 427 78 443.5 c 128,-1,50
 88 460 88 460 111 468 c 0,51,52
 158 487 158 487 199.5 494 c 128,-1,53
 241 501 241 501 276 501 c 0,54,55
 353 501 353 501 402.5 478.5 c 128,-1,56
 452 456 452 456 477 409.5 c 128,-1,57
 502 363 502 363 502 290 c 2,58,-1
 502 68 l 2,59,60
 502 35 502 35 488.5 17 c 128,-1,61
 475 -1 475 -1 449 -8 c 0,62,63
 427 -15 427 -15 413 -32.5 c 128,-1,64
 399 -50 399 -50 399 -72 c 0,65,66
 399 -95 399 -95 414.5 -107.5 c 128,-1,67
 430 -120 430 -120 454 -120 c 0,68,69
 461 -120 461 -120 468 -119 c 128,-1,70
 475 -118 475 -118 482 -116 c 0,71,72
 503 -112 503 -112 514.5 -120 c 128,-1,73
 526 -128 526 -128 528 -142 c 128,-1,74
 530 -156 530 -156 522.5 -169 c 128,-1,75
 515 -182 515 -182 498 -188 c 256,76,77
 481 -194 481 -194 464 -195.5 c 128,-1,78
 447 -197 447 -197 433 -197 c 0,0,1
EndSplineSet
Substitution2: "'ss01' Style Set 1 lookup 35 subtable" aogonek.ss01
Substitution2: "'salt' Stylistic Alternatives lookup 34 subtable" aogonek.ss01
Substitution2: "'aalt' Access All Alternates lookup 0 subtable" aogonek.ss01
EndChar

StartChar: ae
Encoding: 230 230 269
Width: 868
GlyphClass: 2
Flags: W
AnchorPoint: "Anchor-2" 415 0 basechar 0
AnchorPoint: "Anchor-0" 415 484 basechar 0
LayerCount: 2
Fore
SplineSet
237 -11 m 0,0,1
 175 -11 175 -11 130 10 c 128,-1,2
 85 31 85 31 60.5 67 c 128,-1,3
 36 103 36 103 36 148 c 0,4,5
 36 202 36 202 64.5 233.5 c 128,-1,6
 93 265 93 265 156 278.5 c 128,-1,7
 219 292 219 292 326 292 c 2,8,-1
 371 292 l 1,9,-1
 371 214 l 1,10,-1
 323 214 l 2,11,12
 272 214 272 214 240.5 208.5 c 128,-1,13
 209 203 209 203 195.5 190 c 128,-1,14
 182 177 182 177 182 154 c 0,15,16
 182 126 182 126 201.5 108 c 128,-1,17
 221 90 221 90 258 90 c 0,18,19
 288 90 288 90 310 103.5 c 128,-1,20
 332 117 332 117 344.5 141.5 c 128,-1,21
 357 166 357 166 357 197 c 2,22,-1
 357 310 l 2,23,24
 357 353 357 353 337 371.5 c 128,-1,25
 317 390 317 390 270 390 c 0,26,27
 244 390 244 390 212 383.5 c 128,-1,28
 180 377 180 377 143 362 c 0,29,30
 120 352 120 352 103.5 357.5 c 128,-1,31
 87 363 87 363 77.5 377.5 c 128,-1,32
 68 392 68 392 68.5 409.5 c 128,-1,33
 69 427 69 427 79 443.5 c 128,-1,34
 89 460 89 460 112 468 c 0,35,36
 158 487 158 487 200 494 c 128,-1,37
 242 501 242 501 276 501 c 0,38,39
 343 501 343 501 390.5 479 c 128,-1,40
 438 457 438 457 460 410 c 1,41,-1
 428 410 l 1,42,43
 455 455 455 455 503.5 478 c 128,-1,44
 552 501 552 501 606 501 c 0,45,46
 659 501 659 501 701.5 484 c 128,-1,47
 744 467 744 467 774.5 435 c 128,-1,48
 805 403 805 403 821.5 357.5 c 128,-1,49
 838 312 838 312 838 255 c 2,50,-1
 838 250 l 2,51,52
 838 232 838 232 827 223 c 128,-1,53
 816 214 816 214 791 214 c 2,54,-1
 492 214 l 1,55,-1
 492 292 l 1,56,-1
 728 292 l 1,57,-1
 713 278 l 1,58,59
 713 319 713 319 701.5 346.5 c 128,-1,60
 690 374 690 374 667.5 387.5 c 128,-1,61
 645 401 645 401 612 401 c 0,62,63
 577 401 577 401 552 385 c 128,-1,64
 527 369 527 369 514 337 c 128,-1,65
 501 305 501 305 501 259 c 2,66,-1
 501 252 l 2,67,68
 501 174 501 174 533.5 138 c 128,-1,69
 566 102 566 102 637 102 c 0,70,71
 662 102 662 102 692 108 c 128,-1,72
 722 114 722 114 750 127 c 0,73,74
 773 139 773 139 790.5 135 c 128,-1,75
 808 131 808 131 818 118 c 128,-1,76
 828 105 828 105 829.5 88 c 128,-1,77
 831 71 831 71 822 54.5 c 128,-1,78
 813 38 813 38 793 27 c 0,79,80
 758 8 758 8 715.5 -1.5 c 128,-1,81
 673 -11 673 -11 633 -11 c 0,82,83
 551 -11 551 -11 490 21.5 c 128,-1,84
 429 54 429 54 403 119 c 1,85,-1
 427 119 l 1,86,87
 409 58 409 58 359.5 23.5 c 128,-1,88
 310 -11 310 -11 237 -11 c 0,0,1
EndSplineSet
EndChar

StartChar: b
Encoding: 98 98 271
Width: 610
GlyphClass: 2
Flags: W
AnchorPoint: "Anchor-2" 306 0 basechar 0
AnchorPoint: "Anchor-0" 317 705 basechar 0
LayerCount: 2
Fore
SplineSet
361 -11 m 0,0,1
 302 -11 302 -11 256.5 18.5 c 128,-1,2
 211 48 211 48 196 97 c 1,3,-1
 207 130 l 1,4,-1
 207 68 l 2,5,6
 207 31 207 31 188 11 c 128,-1,7
 169 -9 169 -9 133 -9 c 256,8,9
 97 -9 97 -9 77.5 11 c 128,-1,10
 58 31 58 31 58 68 c 2,11,-1
 58 637 l 2,12,13
 58 675 58 675 77.5 694.5 c 128,-1,14
 97 714 97 714 134 714 c 0,15,16
 170 714 170 714 189.5 694.5 c 128,-1,17
 209 675 209 675 209 637 c 2,18,-1
 209 400 l 1,19,-1
 197 400 l 1,20,21
 213 445 213 445 258 473 c 128,-1,22
 303 501 303 501 361 501 c 0,23,24
 426 501 426 501 474 470 c 128,-1,25
 522 439 522 439 549 382 c 128,-1,26
 576 325 576 325 576 246 c 256,27,28
 576 167 576 167 549 109 c 128,-1,29
 522 51 522 51 473.5 20 c 128,-1,30
 425 -11 425 -11 361 -11 c 0,0,1
316 102 m 0,31,32
 348 102 348 102 372.5 118 c 128,-1,33
 397 134 397 134 410.5 165.5 c 128,-1,34
 424 197 424 197 424 246 c 0,35,36
 424 319 424 319 394 353.5 c 128,-1,37
 364 388 364 388 316 388 c 0,38,39
 284 388 284 388 259.5 373 c 128,-1,40
 235 358 235 358 221 326.5 c 128,-1,41
 207 295 207 295 207 246 c 0,42,43
 207 173 207 173 237 137.5 c 128,-1,44
 267 102 267 102 316 102 c 0,31,32
EndSplineSet
EndChar

StartChar: uni0253
Encoding: 595 595 272
Width: 610
GlyphClass: 1
Flags: W
LayerCount: 2
Fore
SplineSet
361 -11 m 0,0,1
 302 -11 302 -11 256.5 18.5 c 128,-1,2
 211 48 211 48 196 97 c 1,3,-1
 207 130 l 1,4,-1
 207 68 l 2,5,6
 207 31 207 31 188 11 c 128,-1,7
 169 -9 169 -9 133 -9 c 256,8,9
 97 -9 97 -9 77.5 11 c 128,-1,10
 58 31 58 31 58 68 c 2,11,-1
 58 508 l 2,12,13
 58 602 58 602 111 658.5 c 128,-1,14
 164 715 164 715 266 715 c 0,15,16
 313 715 313 715 331.5 698.5 c 128,-1,17
 350 682 350 682 350 656 c 0,18,19
 350 627 350 627 340.5 610.5 c 128,-1,20
 331 594 331 594 311 595 c 0,21,22
 306 596 306 596 299.5 596.5 c 128,-1,23
 293 597 293 597 284 597 c 0,24,25
 250 597 250 597 229.5 575.5 c 128,-1,26
 209 554 209 554 209 509 c 2,27,-1
 209 400 l 1,28,-1
 197 400 l 1,29,30
 213 445 213 445 258 473 c 128,-1,31
 303 501 303 501 361 501 c 0,32,33
 426 501 426 501 474 470 c 128,-1,34
 522 439 522 439 549 382 c 128,-1,35
 576 325 576 325 576 246 c 256,36,37
 576 167 576 167 549 109 c 128,-1,38
 522 51 522 51 473.5 20 c 128,-1,39
 425 -11 425 -11 361 -11 c 0,0,1
316 102 m 0,40,41
 348 102 348 102 372.5 118 c 128,-1,42
 397 134 397 134 410.5 165.5 c 128,-1,43
 424 197 424 197 424 246 c 0,44,45
 424 319 424 319 394 353.5 c 128,-1,46
 364 388 364 388 316 388 c 0,47,48
 284 388 284 388 259.5 373 c 128,-1,49
 235 358 235 358 221 326.5 c 128,-1,50
 207 295 207 295 207 246 c 0,51,52
 207 173 207 173 237 137.5 c 128,-1,53
 267 102 267 102 316 102 c 0,40,41
EndSplineSet
EndChar

StartChar: c
Encoding: 99 99 273
Width: 478
GlyphClass: 2
Flags: W
AnchorPoint: "Anchor-2" 287 0 basechar 0
AnchorPoint: "Anchor-0" 287 484 basechar 0
LayerCount: 2
Fore
SplineSet
297 -11 m 0,0,1
 217 -11 217 -11 157.5 20.5 c 128,-1,2
 98 52 98 52 66 110 c 128,-1,3
 34 168 34 168 34 247 c 0,4,5
 34 306 34 306 52 353 c 128,-1,6
 70 400 70 400 104.5 433 c 128,-1,7
 139 466 139 466 188 483.5 c 128,-1,8
 237 501 237 501 297 501 c 0,9,10
 328 501 328 501 363 493.5 c 128,-1,11
 398 486 398 486 432 468 c 0,12,13
 452 459 452 459 459.5 442.5 c 128,-1,14
 467 426 467 426 465 408.5 c 128,-1,15
 463 391 463 391 452.5 377.5 c 128,-1,16
 442 364 442 364 426 359.5 c 128,-1,17
 410 355 410 355 390 365 c 0,18,19
 371 376 371 376 350.5 381 c 128,-1,20
 330 386 330 386 312 386 c 0,21,22
 282 386 282 386 259 376.5 c 128,-1,23
 236 367 236 367 220.5 349.5 c 128,-1,24
 205 332 205 332 196.5 306 c 128,-1,25
 188 280 188 280 188 246 c 0,26,27
 188 180 188 180 220.5 142.5 c 128,-1,28
 253 105 253 105 312 105 c 0,29,30
 330 105 330 105 350 109.5 c 128,-1,31
 370 114 370 114 390 125 c 0,32,33
 410 135 410 135 426 130 c 128,-1,34
 442 125 442 125 451.5 111.5 c 128,-1,35
 461 98 461 98 462.5 80.5 c 128,-1,36
 464 63 464 63 456.5 46.5 c 128,-1,37
 449 30 449 30 430 21 c 0,38,39
 396 4 396 4 362 -3.5 c 128,-1,40
 328 -11 328 -11 297 -11 c 0,0,1
EndSplineSet
EndChar

StartChar: d
Encoding: 100 100 280
Width: 610
GlyphClass: 2
Flags: W
AnchorPoint: "Anchor-5" 299 246 basechar 0
AnchorPoint: "Anchor-4" 426 590 basechar 0
AnchorPoint: "Anchor-2" 307 0 basechar 0
AnchorPoint: "Anchor-1" 589 705 basechar 0
AnchorPoint: "Anchor-0" 306 705 basechar 0
LayerCount: 2
Fore
SplineSet
249 -11 m 0,0,1
 185 -11 185 -11 136.5 20 c 128,-1,2
 88 51 88 51 61 109 c 128,-1,3
 34 167 34 167 34 246 c 256,4,5
 34 325 34 325 61 382 c 128,-1,6
 88 439 88 439 136.5 470 c 128,-1,7
 185 501 185 501 249 501 c 0,8,9
 307 501 307 501 351.5 473 c 128,-1,10
 396 445 396 445 412 400 c 1,11,-1
 401 400 l 1,12,-1
 401 637 l 2,13,14
 401 675 401 675 420 694.5 c 128,-1,15
 439 714 439 714 476 714 c 0,16,17
 512 714 512 714 532 694.5 c 128,-1,18
 552 675 552 675 552 637 c 2,19,-1
 552 68 l 2,20,21
 552 31 552 31 532.5 11 c 128,-1,22
 513 -9 513 -9 477 -9 c 256,23,24
 441 -9 441 -9 421.5 11 c 128,-1,25
 402 31 402 31 402 68 c 2,26,-1
 402 136 l 1,27,-1
 413 97 l 1,28,29
 399 48 399 48 353.5 18.5 c 128,-1,30
 308 -11 308 -11 249 -11 c 0,0,1
294 102 m 0,31,32
 327 102 327 102 351 118 c 128,-1,33
 375 134 375 134 389 165.5 c 128,-1,34
 403 197 403 197 403 246 c 0,35,36
 403 319 403 319 373 353.5 c 128,-1,37
 343 388 343 388 294 388 c 0,38,39
 262 388 262 388 237.5 373 c 128,-1,40
 213 358 213 358 199.5 326.5 c 128,-1,41
 186 295 186 295 186 246 c 0,42,43
 186 173 186 173 216 137.5 c 128,-1,44
 246 102 246 102 294 102 c 0,31,32
EndSplineSet
EndChar

StartChar: eth
Encoding: 240 240 281
Width: 593
GlyphClass: 1
Flags: W
LayerCount: 2
Fore
SplineSet
288 -11 m 0,0,1
 213 -11 213 -11 155.5 19 c 128,-1,2
 98 49 98 49 66 101 c 128,-1,3
 34 153 34 153 34 222 c 0,4,5
 34 289 34 289 64.5 339.5 c 128,-1,6
 95 390 95 390 149.5 419 c 128,-1,7
 204 448 204 448 274 448 c 0,8,9
 318 448 318 448 353 435.5 c 128,-1,10
 388 423 388 423 412.5 396 c 128,-1,11
 437 369 437 369 448 324 c 1,12,-1
 419 324 l 1,13,14
 419 401 419 401 383 458.5 c 128,-1,15
 347 516 347 516 294 552 c 1,16,-1
 316 551 l 1,17,-1
 171 484 l 2,18,19
 148 473 148 473 131 479 c 128,-1,20
 114 485 114 485 107 500 c 128,-1,21
 100 515 100 515 106.5 532 c 128,-1,22
 113 549 113 549 137 559 c 2,23,-1
 228 601 l 1,24,-1
 232 586 l 1,25,26
 216 594 216 594 199 600 c 128,-1,27
 182 606 182 606 164 612 c 0,28,29
 136 620 136 620 126 638 c 128,-1,30
 116 656 116 656 121.5 674.5 c 128,-1,31
 127 693 127 693 146 704 c 128,-1,32
 165 715 165 715 195 707 c 0,33,34
 240 697 240 697 279 681 c 128,-1,35
 318 665 318 665 352 645 c 1,36,-1
 320 643 l 1,37,-1
 446 702 l 2,38,39
 469 713 469 713 486 706.5 c 128,-1,40
 503 700 503 700 510.5 685.5 c 128,-1,41
 518 671 518 671 512.5 655 c 128,-1,42
 507 639 507 639 483 628 c 2,43,-1
 402 590 l 1,44,-1
 407 606 l 1,45,46
 458 566 458 566 492 514.5 c 128,-1,47
 526 463 526 463 543.5 406.5 c 128,-1,48
 561 350 561 350 561 290 c 0,49,50
 561 220 561 220 543 164.5 c 128,-1,51
 525 109 525 109 490 69.5 c 128,-1,52
 455 30 455 30 404.5 9.5 c 128,-1,53
 354 -11 354 -11 288 -11 c 0,0,1
294 104 m 0,54,55
 328 104 328 104 352.5 118 c 128,-1,56
 377 132 377 132 389.5 159 c 128,-1,57
 402 186 402 186 402 221 c 0,58,59
 402 275 402 275 374 306 c 128,-1,60
 346 337 346 337 293 337 c 0,61,62
 260 337 260 337 236 323 c 128,-1,63
 212 309 212 309 199 283 c 128,-1,64
 186 257 186 257 186 221 c 0,65,66
 186 166 186 166 214.5 135 c 128,-1,67
 243 104 243 104 294 104 c 0,54,55
EndSplineSet
EndChar

StartChar: dcroat
Encoding: 273 273 283
Width: 610
GlyphClass: 1
Flags: W
LayerCount: 2
Fore
SplineSet
249 -11 m 0,0,1
 186 -11 186 -11 137.5 20 c 128,-1,2
 89 51 89 51 61.5 108 c 128,-1,3
 34 165 34 165 34 242 c 0,4,5
 34 321 34 321 61.5 377.5 c 128,-1,6
 89 434 89 434 137.5 464.5 c 128,-1,7
 186 495 186 495 249 495 c 0,8,9
 307 495 307 495 351.5 467 c 128,-1,10
 396 439 396 439 412 394 c 1,11,-1
 401 394 l 1,12,-1
 401 538 l 1,13,-1
 264 538 l 2,14,15
 239 538 239 538 224.5 551.5 c 128,-1,16
 210 565 210 565 210 590 c 256,17,18
 210 615 210 615 224.5 628.5 c 128,-1,19
 239 642 239 642 264 642 c 2,20,-1
 469 642 l 1,21,-1
 401 574 l 1,22,-1
 401 651 l 2,23,24
 401 678 401 678 420.5 696 c 128,-1,25
 440 714 440 714 476 714 c 0,26,27
 513 714 513 714 532.5 696 c 128,-1,28
 552 678 552 678 552 651 c 2,29,-1
 552 574 l 1,30,-1
 484 642 l 1,31,-1
 589 642 l 2,32,33
 615 642 615 642 628.5 628.5 c 128,-1,34
 642 615 642 615 642 590 c 256,35,36
 642 565 642 565 628.5 551.5 c 128,-1,37
 615 538 615 538 589 538 c 2,38,-1
 552 538 l 1,39,-1
 552 68 l 2,40,41
 552 31 552 31 533 11 c 128,-1,42
 514 -9 514 -9 478 -9 c 0,43,44
 441 -9 441 -9 422 11 c 128,-1,45
 403 31 403 31 403 68 c 2,46,-1
 403 134 l 1,47,-1
 413 94 l 1,48,49
 398 48 398 48 353.5 18.5 c 128,-1,50
 309 -11 309 -11 249 -11 c 0,0,1
295 102 m 0,51,52
 327 102 327 102 351.5 117.5 c 128,-1,53
 376 133 376 133 390 164 c 128,-1,54
 404 195 404 195 404 242 c 0,55,56
 404 314 404 314 373.5 348 c 128,-1,57
 343 382 343 382 295 382 c 0,58,59
 263 382 263 382 238.5 367 c 128,-1,60
 214 352 214 352 200 321 c 128,-1,61
 186 290 186 290 186 242 c 0,62,63
 186 172 186 172 216 137 c 128,-1,64
 246 102 246 102 295 102 c 0,51,52
EndSplineSet
EndChar

StartChar: uni0257
Encoding: 599 599 285
Width: 610
GlyphClass: 1
Flags: W
LayerCount: 2
Fore
SplineSet
249 -11 m 0,0,1
 185 -11 185 -11 136.5 20 c 128,-1,2
 88 51 88 51 61 109 c 128,-1,3
 34 167 34 167 34 246 c 256,4,5
 34 325 34 325 61 382 c 128,-1,6
 88 439 88 439 136.5 470 c 128,-1,7
 185 501 185 501 249 501 c 0,8,9
 307 501 307 501 351.5 473 c 128,-1,10
 396 445 396 445 412 400 c 1,11,-1
 401 400 l 1,12,-1
 401 508 l 2,13,14
 401 602 401 602 453.5 658.5 c 128,-1,15
 506 715 506 715 605 715 c 0,16,17
 655 715 655 715 673.5 698.5 c 128,-1,18
 692 682 692 682 692 656 c 0,19,20
 692 627 692 627 682.5 610.5 c 128,-1,21
 673 594 673 594 653 595 c 0,22,23
 649 596 649 596 642 596.5 c 128,-1,24
 635 597 635 597 626 597 c 0,25,26
 592 597 592 597 572 575.5 c 128,-1,27
 552 554 552 554 552 509 c 2,28,-1
 552 68 l 2,29,30
 552 31 552 31 532.5 11 c 128,-1,31
 513 -9 513 -9 477 -9 c 256,32,33
 441 -9 441 -9 421.5 11 c 128,-1,34
 402 31 402 31 402 68 c 2,35,-1
 402 136 l 1,36,-1
 413 97 l 1,37,38
 399 48 399 48 353.5 18.5 c 128,-1,39
 308 -11 308 -11 249 -11 c 0,0,1
294 103 m 0,40,41
 327 103 327 103 351 118.5 c 128,-1,42
 375 134 375 134 389 165.5 c 128,-1,43
 403 197 403 197 403 246 c 0,44,45
 403 319 403 319 373 353.5 c 128,-1,46
 343 388 343 388 294 388 c 0,47,48
 262 388 262 388 237.5 373 c 128,-1,49
 213 358 213 358 199.5 326.5 c 128,-1,50
 186 295 186 295 186 246 c 0,51,52
 186 173 186 173 216 138 c 128,-1,53
 246 103 246 103 294 103 c 0,40,41
EndSplineSet
EndChar

StartChar: e
Encoding: 101 101 288
Width: 549
GlyphClass: 2
Flags: W
AnchorPoint: "Anchor-3" 380 0 basechar 0
AnchorPoint: "Anchor-2" 287 0 basechar 0
AnchorPoint: "Anchor-0" 287 484 basechar 0
LayerCount: 2
Fore
SplineSet
313 -11 m 0,0,1
 226 -11 226 -11 163.5 20.5 c 128,-1,2
 101 52 101 52 67.5 109.5 c 128,-1,3
 34 167 34 167 34 245 c 0,4,5
 34 321 34 321 66 378.5 c 128,-1,6
 98 436 98 436 155.5 468.5 c 128,-1,7
 213 501 213 501 286 501 c 0,8,9
 339 501 339 501 382 483.5 c 128,-1,10
 425 466 425 466 456 433.5 c 128,-1,11
 487 401 487 401 503 354.5 c 128,-1,12
 519 308 519 308 519 251 c 0,13,14
 519 232 519 232 507 222.5 c 128,-1,15
 495 213 495 213 472 213 c 2,16,-1
 158 213 l 1,17,-1
 158 291 l 1,18,-1
 410 291 l 1,19,-1
 394 277 l 1,20,21
 394 318 394 318 382 345.5 c 128,-1,22
 370 373 370 373 347.5 387 c 128,-1,23
 325 401 325 401 292 401 c 0,24,25
 255 401 255 401 229 384 c 128,-1,26
 203 367 203 367 189 335 c 128,-1,27
 175 303 175 303 175 258 c 2,28,-1
 175 250 l 2,29,30
 175 174 175 174 210.5 138 c 128,-1,31
 246 102 246 102 316 102 c 0,32,33
 340 102 340 102 371 108 c 128,-1,34
 402 114 402 114 429 127 c 0,35,36
 452 138 452 138 470 134.5 c 128,-1,37
 488 131 488 131 498 118 c 128,-1,38
 508 105 508 105 509.5 88 c 128,-1,39
 511 71 511 71 502 54.5 c 128,-1,40
 493 38 493 38 472 27 c 0,41,42
 438 8 438 8 395.5 -1.5 c 128,-1,43
 353 -11 353 -11 313 -11 c 0,0,1
EndSplineSet
EndChar

StartChar: uni0259
Encoding: 601 601 311
Width: 549
GlyphClass: 1
Flags: W
LayerCount: 2
Fore
SplineSet
266 -11 m 0,0,1
 192 -11 192 -11 139.5 18.5 c 128,-1,2
 87 48 87 48 58.5 104 c 128,-1,3
 30 160 30 160 30 237 c 0,4,5
 30 257 30 257 42.5 267.5 c 128,-1,6
 55 278 55 278 78 278 c 2,7,-1
 391 278 l 1,8,-1
 391 200 l 1,9,-1
 139 200 l 1,10,-1
 160 213 l 1,11,12
 160 173 160 173 171.5 145.5 c 128,-1,13
 183 118 183 118 205 103.5 c 128,-1,14
 227 89 227 89 260 89 c 0,15,16
 297 89 297 89 322.5 106 c 128,-1,17
 348 123 348 123 361 155.5 c 128,-1,18
 374 188 374 188 374 233 c 2,19,-1
 374 240 l 2,20,21
 374 318 374 318 339 353.5 c 128,-1,22
 304 389 304 389 236 389 c 0,23,24
 212 389 212 389 181 383 c 128,-1,25
 150 377 150 377 123 363 c 0,26,27
 99 352 99 352 81.5 355.5 c 128,-1,28
 64 359 64 359 53 371.5 c 128,-1,29
 42 384 42 384 40.5 401.5 c 128,-1,30
 39 419 39 419 47.5 435.5 c 128,-1,31
 56 452 56 452 77 463 c 0,32,33
 112 482 112 482 156.5 491.5 c 128,-1,34
 201 501 201 501 240 501 c 0,35,36
 325 501 325 501 386.5 470 c 128,-1,37
 448 439 448 439 482 381.5 c 128,-1,38
 516 324 516 324 516 245 c 0,39,40
 516 170 516 170 483.5 112.5 c 128,-1,41
 451 55 451 55 395 22 c 128,-1,42
 339 -11 339 -11 266 -11 c 0,0,1
EndSplineSet
EndChar

StartChar: f
Encoding: 102 102 314
Width: 382
GlyphClass: 2
Flags: W
AnchorPoint: "Anchor-2" 172 0 basechar 0
AnchorPoint: "Anchor-0" 172 705 basechar 0
LayerCount: 2
Fore
SplineSet
172 -9 m 0,0,1
 135 -9 135 -9 115.5 11 c 128,-1,2
 96 31 96 31 96 68 c 2,3,-1
 96 378 l 1,4,-1
 60 378 l 2,5,6
 32 378 32 378 16.5 393 c 128,-1,7
 1 408 1 408 1 434 c 0,8,9
 1 462 1 462 16.5 476.5 c 128,-1,10
 32 491 32 491 60 491 c 2,11,-1
 140 491 l 1,12,-1
 96 451 l 1,13,-1
 96 482 l 2,14,15
 96 589 96 589 149.5 642 c 128,-1,16
 203 695 203 695 307 706 c 2,17,-1
 339 709 l 2,18,19
 365 711 365 711 380.5 701 c 128,-1,20
 396 691 396 691 401 675 c 128,-1,21
 406 659 406 659 403 642.5 c 128,-1,22
 400 626 400 626 389.5 613.5 c 128,-1,23
 379 601 379 601 361 600 c 2,24,-1
 347 599 l 2,25,26
 293 595 293 595 270 573.5 c 128,-1,27
 247 552 247 552 247 508 c 2,28,-1
 247 474 l 1,29,-1
 228 491 l 1,30,-1
 318 491 l 2,31,32
 347 491 347 491 362 476.5 c 128,-1,33
 377 462 377 462 377 434 c 0,34,35
 377 408 377 408 362 393 c 128,-1,36
 347 378 347 378 318 378 c 2,37,-1
 247 378 l 1,38,-1
 247 68 l 2,39,40
 247 -9 247 -9 172 -9 c 0,0,1
EndSplineSet
EndChar

StartChar: g
Encoding: 103 103 315
Width: 615
GlyphClass: 2
Flags: W
AnchorPoint: "Anchor-0" 307 484 basechar 0
LayerCount: 2
Fore
SplineSet
294 -191 m 0,0,1
 240 -191 240 -191 190.5 -182 c 128,-1,2
 141 -173 141 -173 103 -155 c 0,3,4
 80 -145 80 -145 70.5 -129 c 128,-1,5
 61 -113 61 -113 62.5 -95 c 128,-1,6
 64 -77 64 -77 74.5 -63 c 128,-1,7
 85 -49 85 -49 101 -43.5 c 128,-1,8
 117 -38 117 -38 135 -46 c 0,9,10
 179 -66 179 -66 216.5 -72 c 128,-1,11
 254 -78 254 -78 281 -78 c 0,12,13
 345 -78 345 -78 377 -49 c 128,-1,14
 409 -20 409 -20 409 40 c 2,15,-1
 409 116 l 1,16,-1
 418 116 l 1,17,18
 403 70 403 70 356 41 c 128,-1,19
 309 12 309 12 252 12 c 0,20,21
 186 12 186 12 137 42.5 c 128,-1,22
 88 73 88 73 61 128.5 c 128,-1,23
 34 184 34 184 34 257 c 0,24,25
 34 312 34 312 49.5 357 c 128,-1,26
 65 402 65 402 93.5 434 c 128,-1,27
 122 466 122 466 162.5 483.5 c 128,-1,28
 203 501 203 501 252 501 c 0,29,30
 311 501 311 501 356.5 472.5 c 128,-1,31
 402 444 402 444 417 398 c 1,32,-1
 407 366 l 1,33,-1
 407 423 l 2,34,35
 407 460 407 460 426.5 479.5 c 128,-1,36
 446 499 446 499 482 499 c 256,37,38
 518 499 518 499 537 479.5 c 128,-1,39
 556 460 556 460 556 423 c 2,40,-1
 556 57 l 2,41,42
 556 -66 556 -66 488.5 -128.5 c 128,-1,43
 421 -191 421 -191 294 -191 c 0,0,1
297 125 m 0,44,45
 331 125 331 125 355.5 141 c 128,-1,46
 380 157 380 157 394 186.5 c 128,-1,47
 408 216 408 216 408 257 c 0,48,49
 408 319 408 319 377.5 353.5 c 128,-1,50
 347 388 347 388 297 388 c 0,51,52
 263 388 263 388 238 372.5 c 128,-1,53
 213 357 213 357 199.5 327.5 c 128,-1,54
 186 298 186 298 186 257 c 0,55,56
 186 195 186 195 216 160 c 128,-1,57
 246 125 246 125 297 125 c 0,44,45
EndSplineSet
EndChar

StartChar: uni01E5
Encoding: 485 485 322
Width: 615
GlyphClass: 1
Flags: W
LayerCount: 2
Fore
SplineSet
294 -191 m 0,0,1
 233 -191 233 -191 179 -180 c 128,-1,2
 125 -169 125 -169 85 -148 c 0,3,4
 65 -137 65 -137 58.5 -121 c 128,-1,5
 52 -105 52 -105 55.5 -88 c 128,-1,6
 59 -71 59 -71 70 -58.5 c 128,-1,7
 81 -46 81 -46 96.5 -42.5 c 128,-1,8
 112 -39 112 -39 130 -48 c 0,9,10
 165 -66 165 -66 209 -75 c 128,-1,11
 253 -84 253 -84 281 -84 c 0,12,13
 321 -84 321 -84 347.5 -73 c 128,-1,14
 374 -62 374 -62 389 -41 c 1,15,-1
 399 -49 l 1,16,-1
 318 -49 l 2,17,18
 300 -49 300 -49 288.5 -38 c 128,-1,19
 277 -27 277 -27 277 -10 c 256,20,21
 277 7 277 7 288.5 18 c 128,-1,22
 300 29 300 29 318 29 c 2,23,-1
 419 29 l 1,24,-1
 406 -1 l 1,25,26
 407 8 407 8 408 16 c 128,-1,27
 409 24 409 24 409 34 c 2,28,-1
 409 150 l 1,29,-1
 417 150 l 1,30,31
 403 105 403 105 356.5 77 c 128,-1,32
 310 49 310 49 253 49 c 0,33,34
 188 49 188 49 138.5 77.5 c 128,-1,35
 89 106 89 106 61.5 157.5 c 128,-1,36
 34 209 34 209 34 275 c 0,37,38
 34 324 34 324 49.5 365.5 c 128,-1,39
 65 407 65 407 94 437.5 c 128,-1,40
 123 468 123 468 163.5 484.5 c 128,-1,41
 204 501 204 501 253 501 c 0,42,43
 310 501 310 501 356.5 473 c 128,-1,44
 403 445 403 445 417 400 c 1,45,-1
 407 383 l 1,46,-1
 407 424 l 2,47,48
 407 460 407 460 426.5 479.5 c 128,-1,49
 446 499 446 499 482 499 c 256,50,51
 518 499 518 499 537 479.5 c 128,-1,52
 556 460 556 460 556 424 c 2,53,-1
 556 57 l 2,54,55
 556 43 556 43 555 29.5 c 128,-1,56
 554 16 554 16 552 2 c 1,57,-1
 545 29 l 1,58,-1
 577 29 l 2,59,60
 595 29 595 29 606 18 c 128,-1,61
 617 7 617 7 617 -10 c 256,62,63
 617 -27 617 -27 606 -38 c 128,-1,64
 595 -49 595 -49 577 -49 c 2,65,-1
 525 -49 l 1,66,-1
 543 -39 l 1,67,68
 520 -115 520 -115 457 -153 c 128,-1,69
 394 -191 394 -191 294 -191 c 0,0,1
297 161 m 0,70,71
 329 161 329 161 354 175 c 128,-1,72
 379 189 379 189 393 214.5 c 128,-1,73
 407 240 407 240 407 274 c 0,74,75
 407 326 407 326 376.5 357 c 128,-1,76
 346 388 346 388 297 388 c 0,77,78
 264 388 264 388 239 374 c 128,-1,79
 214 360 214 360 200 334.5 c 128,-1,80
 186 309 186 309 186 274 c 0,81,82
 186 222 186 222 217 191.5 c 128,-1,83
 248 161 248 161 297 161 c 0,70,71
EndSplineSet
EndChar

StartChar: h
Encoding: 104 104 323
Width: 595
GlyphClass: 2
Flags: W
AnchorPoint: "Anchor-5" 299 249 basechar 0
AnchorPoint: "Anchor-4" 184 590 basechar 0
AnchorPoint: "Anchor-2" 299 0 basechar 0
AnchorPoint: "Anchor-1" 236 705 basechar 0
AnchorPoint: "Anchor-0" 299 705 basechar 0
LayerCount: 2
Fore
SplineSet
134 -9 m 0,0,1
 97 -9 97 -9 77.5 11 c 128,-1,2
 58 31 58 31 58 68 c 2,3,-1
 58 637 l 2,4,5
 58 675 58 675 77.5 694.5 c 128,-1,6
 97 714 97 714 134 714 c 0,7,8
 170 714 170 714 189.5 694.5 c 128,-1,9
 209 675 209 675 209 637 c 2,10,-1
 209 399 l 1,11,-1
 195 399 l 1,12,13
 218 448 218 448 263.5 474.5 c 128,-1,14
 309 501 309 501 367 501 c 0,15,16
 426 501 426 501 464 478.5 c 128,-1,17
 502 456 502 456 521 410.5 c 128,-1,18
 540 365 540 365 540 295 c 2,19,-1
 540 68 l 2,20,21
 540 31 540 31 520.5 11 c 128,-1,22
 501 -9 501 -9 464 -9 c 0,23,24
 428 -9 428 -9 408.5 11 c 128,-1,25
 389 31 389 31 389 68 c 2,26,-1
 389 288 l 2,27,28
 389 339 389 339 370.5 361.5 c 128,-1,29
 352 384 352 384 314 384 c 0,30,31
 266 384 266 384 237.5 354 c 128,-1,32
 209 324 209 324 209 274 c 2,33,-1
 209 68 l 2,34,35
 209 -9 209 -9 134 -9 c 0,0,1
EndSplineSet
EndChar

StartChar: hbar
Encoding: 295 295 324
Width: 595
GlyphClass: 1
Flags: W
LayerCount: 2
Fore
SplineSet
134 -9 m 0,0,1
 97 -9 97 -9 77.5 11 c 128,-1,2
 58 31 58 31 58 68 c 2,3,-1
 58 538 l 1,4,-1
 24 538 l 2,5,6
 -3 538 -3 538 -17 551.5 c 128,-1,7
 -31 565 -31 565 -31 590 c 0,8,9
 -31 642 -31 642 24 642 c 2,10,-1
 92 642 l 1,11,-1
 58 582 l 1,12,-1
 58 644 l 2,13,14
 58 676 58 676 77.5 695 c 128,-1,15
 97 714 97 714 134 714 c 0,16,17
 170 714 170 714 189.5 695 c 128,-1,18
 209 676 209 676 209 644 c 2,19,-1
 209 582 l 1,20,-1
 175 642 l 1,21,-1
 345 642 l 2,22,23
 372 642 372 642 385.5 628.5 c 128,-1,24
 399 615 399 615 399 590 c 0,25,26
 399 538 399 538 345 538 c 2,27,-1
 209 538 l 1,28,-1
 209 392 l 1,29,-1
 195 392 l 1,30,31
 218 442 218 442 263.5 468.5 c 128,-1,32
 309 495 309 495 367 495 c 0,33,34
 426 495 426 495 464 472.5 c 128,-1,35
 502 450 502 450 521 404 c 128,-1,36
 540 358 540 358 540 288 c 2,37,-1
 540 68 l 2,38,39
 540 31 540 31 520.5 11 c 128,-1,40
 501 -9 501 -9 464 -9 c 0,41,42
 428 -9 428 -9 408.5 11 c 128,-1,43
 389 31 389 31 389 68 c 2,44,-1
 389 282 l 2,45,46
 389 333 389 333 370.5 355.5 c 128,-1,47
 352 378 352 378 314 378 c 0,48,49
 266 378 266 378 237.5 348 c 128,-1,50
 209 318 209 318 209 268 c 2,51,-1
 209 68 l 2,52,53
 209 -9 209 -9 134 -9 c 0,0,1
EndSplineSet
EndChar

StartChar: i
Encoding: 105 105 329
Width: 268
GlyphClass: 2
Flags: W
AnchorPoint: "Anchor-3" 175 0 basechar 0
AnchorPoint: "Anchor-2" 134 0 basechar 0
LayerCount: 2
Fore
SplineSet
134 -8 m 256,0,1
 97 -8 97 -8 77.5 13.5 c 128,-1,2
 58 35 58 35 58 74 c 2,3,-1
 58 416 l 2,4,5
 58 456 58 456 77.5 477.5 c 128,-1,6
 97 499 97 499 134 499 c 0,7,8
 170 499 170 499 189.5 477.5 c 128,-1,9
 209 456 209 456 209 416 c 2,10,-1
 209 74 l 2,11,12
 209 35 209 35 190 13.5 c 128,-1,13
 171 -8 171 -8 134 -8 c 256,0,1
134 581 m 256,14,15
 92 581 92 581 69.5 600.5 c 128,-1,16
 47 620 47 620 47 656 c 0,17,18
 47 693 47 693 69.5 712.5 c 128,-1,19
 92 732 92 732 134 732 c 256,20,21
 176 732 176 732 198 712.5 c 128,-1,22
 220 693 220 693 220 656 c 0,23,24
 220 620 220 620 198 600.5 c 128,-1,25
 176 581 176 581 134 581 c 256,14,15
EndSplineSet
Substitution2: "'locl' Localized Forms in Latin lookup 10 subtable" i.loclTRK
Substitution2: "Single Substitution lookup 4 subtable" dotlessi
Substitution2: "Single Substitution lookup 3 subtable" dotlessi
Substitution2: "'aalt' Access All Alternates lookup 0 subtable" i.loclTRK
EndChar

StartChar: dotlessi
Encoding: 305 305 330
Width: 268
GlyphClass: 2
Flags: W
AnchorPoint: "Anchor-3" 175 0 basechar 0
AnchorPoint: "Anchor-2" 134 0 basechar 0
AnchorPoint: "Anchor-0" 134 484 basechar 0
LayerCount: 2
Fore
SplineSet
134 -8 m 256,0,1
 97 -8 97 -8 77.5 13.5 c 128,-1,2
 58 35 58 35 58 74 c 2,3,-1
 58 416 l 2,4,5
 58 456 58 456 77.5 477.5 c 128,-1,6
 97 499 97 499 134 499 c 0,7,8
 170 499 170 499 189.5 477.5 c 128,-1,9
 209 456 209 456 209 416 c 2,10,-1
 209 74 l 2,11,12
 209 35 209 35 190 13.5 c 128,-1,13
 171 -8 171 -8 134 -8 c 256,0,1
EndSplineSet
EndChar

StartChar: iogonek
Encoding: 303 303 343
Width: 268
GlyphClass: 1
Flags: W
LayerCount: 2
Fore
SplineSet
153 -197 m 0,0,1
 93 -197 93 -197 60 -167.5 c 128,-1,2
 27 -138 27 -138 27 -89 c 0,3,4
 27 -56 27 -56 43.5 -28 c 128,-1,5
 60 0 60 0 88 20 c 1,6,-1
 87 6 l 1,7,8
 73 16 73 16 65.5 33.5 c 128,-1,9
 58 51 58 51 58 74 c 2,10,-1
 58 416 l 2,11,12
 58 456 58 456 77.5 477.5 c 128,-1,13
 97 499 97 499 134 499 c 0,14,15
 170 499 170 499 189.5 477.5 c 128,-1,16
 209 456 209 456 209 416 c 2,17,-1
 209 74 l 2,18,19
 209 46 209 46 199 26.5 c 128,-1,20
 189 7 189 7 169 -3 c 0,21,22
 147 -15 147 -15 133 -32.5 c 128,-1,23
 119 -50 119 -50 119 -72 c 0,24,25
 119 -95 119 -95 134.5 -107.5 c 128,-1,26
 150 -120 150 -120 173 -120 c 0,27,28
 180 -120 180 -120 187 -119 c 128,-1,29
 194 -118 194 -118 202 -116 c 0,30,31
 222 -112 222 -112 233.5 -120 c 128,-1,32
 245 -128 245 -128 247.5 -142 c 128,-1,33
 250 -156 250 -156 242.5 -169 c 128,-1,34
 235 -182 235 -182 217 -188 c 0,35,36
 201 -194 201 -194 184 -195.5 c 128,-1,37
 167 -197 167 -197 153 -197 c 0,0,1
134 581 m 256,38,39
 92 581 92 581 69.5 600.5 c 128,-1,40
 47 620 47 620 47 656 c 0,41,42
 47 693 47 693 69.5 712.5 c 128,-1,43
 92 732 92 732 134 732 c 256,44,45
 176 732 176 732 198 712.5 c 128,-1,46
 220 693 220 693 220 656 c 0,47,48
 220 620 220 620 198 600.5 c 128,-1,49
 176 581 176 581 134 581 c 256,38,39
EndSplineSet
EndChar

StartChar: j
Encoding: 106 106 345
Width: 273
GlyphClass: 1
Flags: W
LayerCount: 2
Fore
SplineSet
14 -188 m 0,0,1
 -13 -189 -13 -189 -29 -179 c 128,-1,2
 -45 -169 -45 -169 -51 -153.5 c 128,-1,3
 -57 -138 -57 -138 -54.5 -122 c 128,-1,4
 -52 -106 -52 -106 -41 -94 c 128,-1,5
 -30 -82 -30 -82 -11 -80 c 0,6,7
 28 -77 28 -77 45.5 -58.5 c 128,-1,8
 63 -40 63 -40 63 -2 c 2,9,-1
 63 423 l 2,10,11
 63 460 63 460 83 479.5 c 128,-1,12
 103 499 103 499 139 499 c 256,13,14
 175 499 175 499 194.5 479.5 c 128,-1,15
 214 460 214 460 214 423 c 2,16,-1
 214 12 l 2,17,18
 214 -54 214 -54 192.5 -97 c 128,-1,19
 171 -140 171 -140 127 -162.5 c 128,-1,20
 83 -185 83 -185 14 -188 c 0,0,1
138 581 m 0,21,22
 97 581 97 581 74.5 600.5 c 128,-1,23
 52 620 52 620 52 656 c 0,24,25
 52 693 52 693 74.5 712.5 c 128,-1,26
 97 732 97 732 138 732 c 0,27,28
 180 732 180 732 202 712.5 c 128,-1,29
 224 693 224 693 224 656 c 0,30,31
 224 620 224 620 202 600.5 c 128,-1,32
 180 581 180 581 138 581 c 0,21,22
EndSplineSet
Substitution2: "Single Substitution lookup 4 subtable" uni0237
Substitution2: "Single Substitution lookup 3 subtable" uni0237
EndChar

StartChar: uni0237
Encoding: 567 567 346
Width: 273
GlyphClass: 2
Flags: W
AnchorPoint: "Anchor-2" 138 0 basechar 0
AnchorPoint: "Anchor-0" 138 484 basechar 0
LayerCount: 2
Fore
SplineSet
14 -188 m 0,0,1
 -13 -189 -13 -189 -29 -179 c 128,-1,2
 -45 -169 -45 -169 -51 -153.5 c 128,-1,3
 -57 -138 -57 -138 -54.5 -122 c 128,-1,4
 -52 -106 -52 -106 -41 -94 c 128,-1,5
 -30 -82 -30 -82 -11 -80 c 0,6,7
 28 -77 28 -77 45.5 -58.5 c 128,-1,8
 63 -40 63 -40 63 -2 c 2,9,-1
 63 423 l 2,10,11
 63 460 63 460 83 479.5 c 128,-1,12
 103 499 103 499 139 499 c 256,13,14
 175 499 175 499 194.5 479.5 c 128,-1,15
 214 460 214 460 214 423 c 2,16,-1
 214 12 l 2,17,18
 214 -54 214 -54 192.5 -97 c 128,-1,19
 171 -140 171 -140 127 -162.5 c 128,-1,20
 83 -185 83 -185 14 -188 c 0,0,1
EndSplineSet
EndChar

StartChar: k
Encoding: 107 107 348
Width: 558
GlyphClass: 2
Flags: W
AnchorPoint: "Anchor-2" 279 0 basechar 0
AnchorPoint: "Anchor-0" 299 705 basechar 0
LayerCount: 2
Fore
SplineSet
134 -9 m 0,0,1
 97 -9 97 -9 77.5 11 c 128,-1,2
 58 31 58 31 58 68 c 2,3,-1
 58 637 l 2,4,5
 58 675 58 675 77.5 694.5 c 128,-1,6
 97 714 97 714 134 714 c 0,7,8
 170 714 170 714 189.5 694.5 c 128,-1,9
 209 675 209 675 209 637 c 2,10,-1
 209 288 l 1,11,-1
 211 288 l 1,12,-1
 356 449 l 2,13,14
 378 474 378 474 396.5 486.5 c 128,-1,15
 415 499 415 499 446 499 c 256,16,17
 477 499 477 499 493.5 483 c 128,-1,18
 510 467 510 467 510.5 444.5 c 128,-1,19
 511 422 511 422 491 399 c 2,20,-1
 338 228 l 1,21,-1
 338 285 l 1,22,-1
 508 89 l 2,23,24
 527 66 527 66 524.5 43 c 128,-1,25
 522 20 522 20 504 5.5 c 128,-1,26
 486 -9 486 -9 458 -9 c 0,27,28
 424 -9 424 -9 403.5 4 c 128,-1,29
 383 17 383 17 362 44 c 2,30,-1
 211 212 l 1,31,-1
 209 212 l 1,32,-1
 209 68 l 2,33,34
 209 -9 209 -9 134 -9 c 0,0,1
EndSplineSet
EndChar

StartChar: kgreenlandic
Encoding: 312 312 351
Width: 558
GlyphClass: 2
Flags: W
AnchorPoint: "Anchor-2" 279 0 basechar 0
AnchorPoint: "Anchor-0" 279 484 basechar 0
LayerCount: 2
Fore
SplineSet
134 -9 m 256,0,1
 97 -9 97 -9 77.5 11 c 128,-1,2
 58 31 58 31 58 68 c 2,3,-1
 58 423 l 2,4,5
 58 460 58 460 77.5 479.5 c 128,-1,6
 97 499 97 499 134 499 c 0,7,8
 170 499 170 499 189.5 479.5 c 128,-1,9
 209 460 209 460 209 423 c 2,10,-1
 209 288 l 1,11,-1
 211 288 l 1,12,-1
 356 449 l 2,13,14
 378 474 378 474 396.5 486.5 c 128,-1,15
 415 499 415 499 446 499 c 256,16,17
 477 499 477 499 493.5 483 c 128,-1,18
 510 467 510 467 510.5 444.5 c 128,-1,19
 511 422 511 422 491 399 c 2,20,-1
 338 228 l 1,21,-1
 338 285 l 1,22,-1
 508 89 l 2,23,24
 527 66 527 66 524.5 43 c 128,-1,25
 522 20 522 20 504 5.5 c 128,-1,26
 486 -9 486 -9 458 -9 c 0,27,28
 424 -9 424 -9 403.5 4 c 128,-1,29
 383 17 383 17 362 44 c 2,30,-1
 211 212 l 1,31,-1
 209 212 l 1,32,-1
 209 68 l 2,33,34
 209 31 209 31 190 11 c 128,-1,35
 171 -9 171 -9 134 -9 c 256,0,1
EndSplineSet
EndChar

StartChar: l
Encoding: 108 108 352
Width: 333
GlyphClass: 2
Flags: W
AnchorPoint: "Anchor-5" 144 357 basechar 0
AnchorPoint: "Anchor-2" 195 0 basechar 0
AnchorPoint: "Anchor-1" 246 705 basechar 0
AnchorPoint: "Anchor-0" 134 705 basechar 0
LayerCount: 2
Fore
SplineSet
235 -11 m 0,0,1
 146 -11 146 -11 102 38.5 c 128,-1,2
 58 88 58 88 58 186 c 2,3,-1
 58 637 l 2,4,5
 58 675 58 675 77.5 694.5 c 128,-1,6
 97 714 97 714 134 714 c 0,7,8
 170 714 170 714 189.5 694.5 c 128,-1,9
 209 675 209 675 209 637 c 2,10,-1
 209 192 l 2,11,12
 209 151 209 151 226.5 131.5 c 128,-1,13
 244 112 244 112 273 112 c 0,14,15
 281 112 281 112 288 113 c 128,-1,16
 295 114 295 114 303 114 c 0,17,18
 319 116 319 116 325.5 104.5 c 128,-1,19
 332 93 332 93 332 59 c 0,20,21
 332 29 332 29 320 13.5 c 128,-1,22
 308 -2 308 -2 283 -7 c 0,23,24
 273 -8 273 -8 260 -9.5 c 128,-1,25
 247 -11 247 -11 235 -11 c 0,0,1
EndSplineSet
Substitution2: "'ss02' Style Set 2 lookup 36 subtable" l.ss02
Substitution2: "'aalt' Access All Alternates lookup 0 subtable" l.ss02
EndChar

StartChar: m
Encoding: 109 109 361
Width: 889
GlyphClass: 2
Flags: W
AnchorPoint: "Anchor-2" 446 0 basechar 0
AnchorPoint: "Anchor-0" 446 484 basechar 0
LayerCount: 2
Fore
SplineSet
136 -9 m 0,0,1
 99 -9 99 -9 79.5 11 c 128,-1,2
 60 31 60 31 60 68 c 2,3,-1
 60 423 l 2,4,5
 60 460 60 460 79.5 479.5 c 128,-1,6
 99 499 99 499 134 499 c 0,7,8
 170 499 170 499 189 479.5 c 128,-1,9
 208 460 208 460 208 423 c 2,10,-1
 208 359 l 1,11,-1
 197 399 l 1,12,13
 217 445 217 445 259 473 c 128,-1,14
 301 501 301 501 358 501 c 256,15,16
 415 501 415 501 453 474 c 128,-1,17
 491 447 491 447 507 391 c 1,18,-1
 493 391 l 1,19,20
 515 442 515 442 560.5 471.5 c 128,-1,21
 606 501 606 501 665 501 c 0,22,23
 722 501 722 501 758.5 478.5 c 128,-1,24
 795 456 795 456 813 410.5 c 128,-1,25
 831 365 831 365 831 295 c 2,26,-1
 831 68 l 2,27,28
 831 31 831 31 811.5 11 c 128,-1,29
 792 -9 792 -9 756 -9 c 0,30,31
 719 -9 719 -9 699.5 11 c 128,-1,32
 680 31 680 31 680 68 c 2,33,-1
 680 290 l 2,34,35
 680 339 680 339 664.5 361.5 c 128,-1,36
 649 384 649 384 612 384 c 0,37,38
 569 384 569 384 545 354 c 128,-1,39
 521 324 521 324 521 269 c 2,40,-1
 521 68 l 2,41,42
 521 31 521 31 501.5 11 c 128,-1,43
 482 -9 482 -9 446 -9 c 256,44,45
 410 -9 410 -9 390 11 c 128,-1,46
 370 31 370 31 370 68 c 2,47,-1
 370 290 l 2,48,49
 370 339 370 339 354.5 361.5 c 128,-1,50
 339 384 339 384 302 384 c 0,51,52
 259 384 259 384 235 354 c 128,-1,53
 211 324 211 324 211 269 c 2,54,-1
 211 68 l 2,55,56
 211 -9 211 -9 136 -9 c 0,0,1
EndSplineSet
EndChar

StartChar: n
Encoding: 110 110 363
Width: 595
GlyphClass: 2
Flags: W
AnchorPoint: "Anchor-2" 299 0 basechar 0
AnchorPoint: "Anchor-0" 299 484 basechar 0
LayerCount: 2
Fore
SplineSet
134 -9 m 0,0,1
 97 -9 97 -9 77.5 11 c 128,-1,2
 58 31 58 31 58 68 c 2,3,-1
 58 423 l 2,4,5
 58 460 58 460 77.5 479.5 c 128,-1,6
 97 499 97 499 132 499 c 0,7,8
 168 499 168 499 187 479.5 c 128,-1,9
 206 460 206 460 206 423 c 2,10,-1
 206 366 l 1,11,-1
 195 399 l 1,12,13
 218 448 218 448 263.5 474.5 c 128,-1,14
 309 501 309 501 367 501 c 0,15,16
 426 501 426 501 464 478.5 c 128,-1,17
 502 456 502 456 521 410.5 c 128,-1,18
 540 365 540 365 540 295 c 2,19,-1
 540 68 l 2,20,21
 540 31 540 31 520.5 11 c 128,-1,22
 501 -9 501 -9 464 -9 c 0,23,24
 428 -9 428 -9 408.5 11 c 128,-1,25
 389 31 389 31 389 68 c 2,26,-1
 389 288 l 2,27,28
 389 339 389 339 370.5 361.5 c 128,-1,29
 352 384 352 384 314 384 c 0,30,31
 266 384 266 384 237.5 354 c 128,-1,32
 209 324 209 324 209 274 c 2,33,-1
 209 68 l 2,34,35
 209 -9 209 -9 134 -9 c 0,0,1
EndSplineSet
EndChar

StartChar: eng
Encoding: 331 331 373
Width: 595
GlyphClass: 1
Flags: W
LayerCount: 2
Fore
SplineSet
334 -189 m 0,0,1
 307 -191 307 -191 291.5 -181 c 128,-1,2
 276 -171 276 -171 269.5 -155.5 c 128,-1,3
 263 -140 263 -140 266 -123.5 c 128,-1,4
 269 -107 269 -107 281 -95 c 128,-1,5
 293 -83 293 -83 311 -81 c 0,6,7
 352 -76 352 -76 370.5 -58.5 c 128,-1,8
 389 -41 389 -41 389 -2 c 2,9,-1
 389 288 l 2,10,11
 389 339 389 339 370.5 361.5 c 128,-1,12
 352 384 352 384 314 384 c 0,13,14
 266 384 266 384 237.5 354 c 128,-1,15
 209 324 209 324 209 274 c 2,16,-1
 209 68 l 2,17,18
 209 -9 209 -9 134 -9 c 0,19,20
 97 -9 97 -9 77.5 11 c 128,-1,21
 58 31 58 31 58 68 c 2,22,-1
 58 423 l 2,23,24
 58 460 58 460 77.5 479.5 c 128,-1,25
 97 499 97 499 132 499 c 0,26,27
 168 499 168 499 187 479.5 c 128,-1,28
 206 460 206 460 206 423 c 2,29,-1
 206 366 l 1,30,-1
 195 399 l 1,31,32
 218 448 218 448 263.5 474.5 c 128,-1,33
 309 501 309 501 367 501 c 0,34,35
 426 501 426 501 464 478.5 c 128,-1,36
 502 456 502 456 521 410.5 c 128,-1,37
 540 365 540 365 540 295 c 2,38,-1
 540 12 l 2,39,40
 540 -54 540 -54 518 -97 c 128,-1,41
 496 -140 496 -140 451 -162.5 c 128,-1,42
 406 -185 406 -185 334 -189 c 0,0,1
EndSplineSet
EndChar

StartChar: o
Encoding: 111 111 374
Width: 589
GlyphClass: 2
Flags: W
AnchorPoint: "Anchor-5" 294 246 basechar 0
AnchorPoint: "Anchor-3" 353 0 basechar 0
AnchorPoint: "Anchor-2" 294 0 basechar 0
AnchorPoint: "Anchor-1" 357 484 basechar 0
AnchorPoint: "Anchor-0" 294 484 basechar 0
LayerCount: 2
Fore
SplineSet
294 -11 m 0,0,1
 215 -11 215 -11 156.5 20 c 128,-1,2
 98 51 98 51 66 109 c 128,-1,3
 34 167 34 167 34 246 c 0,4,5
 34 305 34 305 52 352 c 128,-1,6
 70 399 70 399 104.5 432.5 c 128,-1,7
 139 466 139 466 187 483.5 c 128,-1,8
 235 501 235 501 294 501 c 0,9,10
 373 501 373 501 431.5 470 c 128,-1,11
 490 439 490 439 522.5 382 c 128,-1,12
 555 325 555 325 555 246 c 0,13,14
 555 186 555 186 536.5 139 c 128,-1,15
 518 92 518 92 484 58 c 128,-1,16
 450 24 450 24 401.5 6.5 c 128,-1,17
 353 -11 353 -11 294 -11 c 0,0,1
294 102 m 0,18,19
 327 102 327 102 351 118 c 128,-1,20
 375 134 375 134 389 165.5 c 128,-1,21
 403 197 403 197 403 246 c 0,22,23
 403 319 403 319 373 353.5 c 128,-1,24
 343 388 343 388 294 388 c 0,25,26
 262 388 262 388 237.5 373 c 128,-1,27
 213 358 213 358 199.5 326.5 c 128,-1,28
 186 295 186 295 186 246 c 0,29,30
 186 173 186 173 216 137.5 c 128,-1,31
 246 102 246 102 294 102 c 0,18,19
EndSplineSet
Substitution2: "Single Substitution lookup 29 subtable" ordmasculine
Substitution2: "'aalt' Access All Alternates lookup 0 subtable" ordmasculine
EndChar

StartChar: oslash
Encoding: 248 248 402
Width: 589
GlyphClass: 2
Flags: W
AnchorPoint: "Anchor-5" 295 246 basechar 0
AnchorPoint: "Anchor-0" 294 484 basechar 0
LayerCount: 2
Fore
SplineSet
294 -11 m 0,0,1
 215 -11 215 -11 156.5 20 c 128,-1,2
 98 51 98 51 66 109 c 128,-1,3
 34 167 34 167 34 246 c 0,4,5
 34 305 34 305 52 352 c 128,-1,6
 70 399 70 399 104.5 432.5 c 128,-1,7
 139 466 139 466 187 483.5 c 128,-1,8
 235 501 235 501 294 501 c 0,9,10
 373 501 373 501 431.5 470 c 128,-1,11
 490 439 490 439 522.5 382 c 128,-1,12
 555 325 555 325 555 246 c 0,13,14
 555 186 555 186 536.5 139 c 128,-1,15
 518 92 518 92 484 58 c 128,-1,16
 450 24 450 24 401.5 6.5 c 128,-1,17
 353 -11 353 -11 294 -11 c 0,0,1
295 98 m 0,18,19
 329 98 329 98 355 114 c 128,-1,20
 381 130 381 130 395.5 163 c 128,-1,21
 410 196 410 196 410 246 c 0,22,23
 410 321 410 321 378.5 357 c 128,-1,24
 347 393 347 393 294 393 c 0,25,26
 260 393 260 393 234 377 c 128,-1,27
 208 361 208 361 193 328 c 128,-1,28
 178 295 178 295 178 246 c 0,29,30
 178 172 178 172 210.5 135 c 128,-1,31
 243 98 243 98 295 98 c 0,18,19
179 -36 m 2,32,33
 169 -54 169 -54 152 -57 c 128,-1,34
 135 -60 135 -60 120 -51.5 c 128,-1,35
 105 -43 105 -43 99.5 -26.5 c 128,-1,36
 94 -10 94 -10 106 10 c 2,37,-1
 410 527 l 2,38,39
 421 546 421 546 438 548 c 128,-1,40
 455 550 455 550 469.5 541.5 c 128,-1,41
 484 533 484 533 490 516.5 c 128,-1,42
 496 500 496 500 484 480 c 2,43,-1
 179 -36 l 2,32,33
EndSplineSet
EndChar

StartChar: oe
Encoding: 339 339 408
Width: 918
GlyphClass: 2
Flags: W
AnchorPoint: "Anchor-2" 477 0 basechar 0
AnchorPoint: "Anchor-0" 476 484 basechar 0
LayerCount: 2
Fore
SplineSet
289 -11 m 0,0,1
 212 -11 212 -11 154.5 20.5 c 128,-1,2
 97 52 97 52 65.5 110 c 128,-1,3
 34 168 34 168 34 247 c 0,4,5
 34 306 34 306 52 352.5 c 128,-1,6
 70 399 70 399 103.5 432.5 c 128,-1,7
 137 466 137 466 184 483.5 c 128,-1,8
 231 501 231 501 289 501 c 0,9,10
 359 501 359 501 411 473.5 c 128,-1,11
 463 446 463 446 493 396 c 1,12,-1
 462 396 l 1,13,14
 490 443 490 443 541 472 c 128,-1,15
 592 501 592 501 656 501 c 0,16,17
 728 501 728 501 779.5 470.5 c 128,-1,18
 831 440 831 440 859.5 384 c 128,-1,19
 888 328 888 328 888 251 c 0,20,21
 888 232 888 232 876 222.5 c 128,-1,22
 864 213 864 213 840 213 c 2,23,-1
 533 213 l 1,24,-1
 533 291 l 1,25,-1
 779 291 l 1,26,-1
 763 277 l 1,27,28
 763 318 763 318 751.5 345.5 c 128,-1,29
 740 373 740 373 717.5 387 c 128,-1,30
 695 401 695 401 661 401 c 0,31,32
 625 401 625 401 600.5 384 c 128,-1,33
 576 367 576 367 563.5 335 c 128,-1,34
 551 303 551 303 551 258 c 2,35,-1
 551 250 l 2,36,37
 551 174 551 174 584 138 c 128,-1,38
 617 102 617 102 686 102 c 0,39,40
 708 102 708 102 739 107.5 c 128,-1,41
 770 113 770 113 797 127 c 0,42,43
 821 139 821 139 838.5 135 c 128,-1,44
 856 131 856 131 866 118.5 c 128,-1,45
 876 106 876 106 877.5 88.5 c 128,-1,46
 879 71 879 71 869.5 54 c 128,-1,47
 860 37 860 37 839 27 c 0,48,49
 806 8 806 8 764 -1.5 c 128,-1,50
 722 -11 722 -11 683 -11 c 0,51,52
 604 -11 604 -11 546.5 18.5 c 128,-1,53
 489 48 489 48 461 102 c 1,54,-1
 494 102 l 1,55,56
 463 49 463 49 411.5 19 c 128,-1,57
 360 -11 360 -11 289 -11 c 0,0,1
295 102 m 0,58,59
 327 102 327 102 351.5 118 c 128,-1,60
 376 134 376 134 389.5 165.5 c 128,-1,61
 403 197 403 197 403 246 c 0,62,63
 403 319 403 319 373 353.5 c 128,-1,64
 343 388 343 388 294 388 c 0,65,66
 262 388 262 388 237.5 373 c 128,-1,67
 213 358 213 358 199.5 326.5 c 128,-1,68
 186 295 186 295 186 246 c 0,69,70
 186 174 186 174 216 138 c 128,-1,71
 246 102 246 102 295 102 c 0,58,59
EndSplineSet
EndChar

StartChar: p
Encoding: 112 112 409
Width: 610
GlyphClass: 2
Flags: W
AnchorPoint: "Anchor-2" 304 0 basechar 0
AnchorPoint: "Anchor-0" 304 484 basechar 0
LayerCount: 2
Fore
SplineSet
134 -189 m 0,0,1
 97 -189 97 -189 77.5 -169.5 c 128,-1,2
 58 -150 58 -150 58 -112 c 2,3,-1
 58 423 l 2,4,5
 58 460 58 460 77.5 479.5 c 128,-1,6
 97 499 97 499 132 499 c 0,7,8
 169 499 169 499 188 479.5 c 128,-1,9
 207 460 207 460 207 423 c 2,10,-1
 207 355 l 1,11,-1
 196 394 l 1,12,13
 211 442 211 442 256.5 471.5 c 128,-1,14
 302 501 302 501 361 501 c 0,15,16
 425 501 425 501 473.5 470 c 128,-1,17
 522 439 522 439 549 382 c 128,-1,18
 576 325 576 325 576 246 c 256,19,20
 576 167 576 167 549 109 c 128,-1,21
 522 51 522 51 474 20 c 128,-1,22
 426 -11 426 -11 361 -11 c 0,23,24
 303 -11 303 -11 258 17.5 c 128,-1,25
 213 46 213 46 197 92 c 1,26,-1
 209 92 l 1,27,-1
 209 -112 l 2,28,29
 209 -150 209 -150 189.5 -169.5 c 128,-1,30
 170 -189 170 -189 134 -189 c 0,0,1
316 102 m 0,31,32
 348 102 348 102 372.5 118 c 128,-1,33
 397 134 397 134 410.5 165.5 c 128,-1,34
 424 197 424 197 424 246 c 0,35,36
 424 319 424 319 394 353.5 c 128,-1,37
 364 388 364 388 316 388 c 0,38,39
 284 388 284 388 259.5 373 c 128,-1,40
 235 358 235 358 221 326.5 c 128,-1,41
 207 295 207 295 207 246 c 0,42,43
 207 173 207 173 237 137.5 c 128,-1,44
 267 102 267 102 316 102 c 0,31,32
EndSplineSet
EndChar

StartChar: thorn
Encoding: 254 254 410
Width: 610
GlyphClass: 2
Flags: W
AnchorPoint: "Anchor-2" 307 0 basechar 0
AnchorPoint: "Anchor-0" 307 484 basechar 0
LayerCount: 2
Fore
SplineSet
134 -189 m 0,0,1
 97 -189 97 -189 77.5 -169.5 c 128,-1,2
 58 -150 58 -150 58 -112 c 2,3,-1
 58 637 l 2,4,5
 58 675 58 675 78 694.5 c 128,-1,6
 98 714 98 714 134 714 c 256,7,8
 170 714 170 714 189.5 694.5 c 128,-1,9
 209 675 209 675 209 637 c 2,10,-1
 209 394 l 1,11,-1
 196 394 l 1,12,13
 211 442 211 442 256.5 471.5 c 128,-1,14
 302 501 302 501 361 501 c 0,15,16
 425 501 425 501 473.5 470 c 128,-1,17
 522 439 522 439 549 382 c 128,-1,18
 576 325 576 325 576 246 c 256,19,20
 576 167 576 167 549 109 c 128,-1,21
 522 51 522 51 474 20 c 128,-1,22
 426 -11 426 -11 361 -11 c 0,23,24
 303 -11 303 -11 258 17.5 c 128,-1,25
 213 46 213 46 197 92 c 1,26,-1
 209 92 l 1,27,-1
 209 -112 l 2,28,29
 209 -150 209 -150 189.5 -169.5 c 128,-1,30
 170 -189 170 -189 134 -189 c 0,0,1
316 102 m 0,31,32
 348 102 348 102 372.5 118 c 128,-1,33
 397 134 397 134 410.5 165.5 c 128,-1,34
 424 197 424 197 424 246 c 0,35,36
 424 319 424 319 394 353.5 c 128,-1,37
 364 388 364 388 316 388 c 0,38,39
 284 388 284 388 259.5 373 c 128,-1,40
 235 358 235 358 221 326.5 c 128,-1,41
 207 295 207 295 207 246 c 0,42,43
 207 173 207 173 237 137.5 c 128,-1,44
 267 102 267 102 316 102 c 0,31,32
EndSplineSet
EndChar

StartChar: q
Encoding: 113 113 411
Width: 610
GlyphClass: 2
Flags: W
AnchorPoint: "Anchor-2" 307 0 basechar 0
AnchorPoint: "Anchor-0" 307 484 basechar 0
LayerCount: 2
Fore
SplineSet
476 -189 m 0,0,1
 439 -189 439 -189 420 -169.5 c 128,-1,2
 401 -150 401 -150 401 -112 c 2,3,-1
 401 92 l 1,4,-1
 412 92 l 1,5,6
 396 46 396 46 351.5 17.5 c 128,-1,7
 307 -11 307 -11 249 -11 c 0,8,9
 185 -11 185 -11 136.5 20 c 128,-1,10
 88 51 88 51 61 109 c 128,-1,11
 34 167 34 167 34 246 c 256,12,13
 34 325 34 325 61 382 c 128,-1,14
 88 439 88 439 136.5 470 c 128,-1,15
 185 501 185 501 249 501 c 0,16,17
 308 501 308 501 353.5 471.5 c 128,-1,18
 399 442 399 442 413 394 c 1,19,-1
 402 355 l 1,20,-1
 402 423 l 2,21,22
 402 460 402 460 421.5 479.5 c 128,-1,23
 441 499 441 499 477 499 c 256,24,25
 513 499 513 499 532.5 479.5 c 128,-1,26
 552 460 552 460 552 423 c 2,27,-1
 552 -112 l 2,28,29
 552 -150 552 -150 532 -169.5 c 128,-1,30
 512 -189 512 -189 476 -189 c 0,0,1
294 102 m 0,31,32
 327 102 327 102 351 118 c 128,-1,33
 375 134 375 134 389 165.5 c 128,-1,34
 403 197 403 197 403 246 c 0,35,36
 403 319 403 319 373 353.5 c 128,-1,37
 343 388 343 388 294 388 c 0,38,39
 262 388 262 388 237.5 373 c 128,-1,40
 213 358 213 358 199.5 326.5 c 128,-1,41
 186 295 186 295 186 246 c 0,42,43
 186 173 186 173 216 137.5 c 128,-1,44
 246 102 246 102 294 102 c 0,31,32
EndSplineSet
EndChar

StartChar: r
Encoding: 114 114 412
Width: 412
GlyphClass: 2
Flags: W
AnchorPoint: "Anchor-2" 135 0 basechar 0
AnchorPoint: "Anchor-0" 234 484 basechar 0
LayerCount: 2
Fore
SplineSet
136 -9 m 0,0,1
 98 -9 98 -9 78 11 c 128,-1,2
 58 31 58 31 58 68 c 2,3,-1
 58 423 l 2,4,5
 58 460 58 460 77.5 479.5 c 128,-1,6
 97 499 97 499 132 499 c 0,7,8
 168 499 168 499 187 479.5 c 128,-1,9
 206 460 206 460 206 423 c 2,10,-1
 206 371 l 1,11,-1
 196 371 l 1,12,13
 208 431 208 431 249 464 c 128,-1,14
 290 497 290 497 355 501 c 0,15,16
 380 503 380 503 393.5 488.5 c 128,-1,17
 407 474 407 474 408 441 c 0,18,19
 410 410 410 410 395.5 392 c 128,-1,20
 381 374 381 374 347 370 c 2,21,-1
 324 368 l 2,22,23
 267 363 267 363 239.5 335 c 128,-1,24
 212 307 212 307 212 254 c 2,25,-1
 212 68 l 2,26,27
 212 31 212 31 192.5 11 c 128,-1,28
 173 -9 173 -9 136 -9 c 0,0,1
EndSplineSet
EndChar

StartChar: s
Encoding: 115 115 420
Width: 492
GlyphClass: 2
Flags: W
AnchorPoint: "Anchor-2" 247 0 basechar 0
AnchorPoint: "Anchor-0" 255 484 basechar 0
LayerCount: 2
Fore
SplineSet
246 -11 m 0,0,1
 202 -11 202 -11 155.5 -3 c 128,-1,2
 109 5 109 5 71 24 c 0,3,4
 51 34 51 34 42.5 49.5 c 128,-1,5
 34 65 34 65 35 81 c 128,-1,6
 36 97 36 97 45.5 110 c 128,-1,7
 55 123 55 123 70.5 127.5 c 128,-1,8
 86 132 86 132 105 124 c 0,9,10
 146 107 146 107 180 100 c 128,-1,11
 214 93 214 93 247 93 c 0,12,13
 290 93 290 93 309.5 106.5 c 128,-1,14
 329 120 329 120 329 142 c 0,15,16
 329 162 329 162 316 172 c 128,-1,17
 303 182 303 182 278 186 c 2,18,-1
 173 205 l 2,19,20
 111 216 111 216 77.5 250.5 c 128,-1,21
 44 285 44 285 44 339 c 0,22,23
 44 389 44 389 72 425.5 c 128,-1,24
 100 462 100 462 149.5 481.5 c 128,-1,25
 199 501 199 501 262 501 c 0,26,27
 307 501 307 501 345 493 c 128,-1,28
 383 485 383 485 418 467 c 0,29,30
 436 458 436 458 443.5 443 c 128,-1,31
 451 428 451 428 448.5 412 c 128,-1,32
 446 396 446 396 436 383 c 128,-1,33
 426 370 426 370 410.5 366 c 128,-1,34
 395 362 395 362 375 370 c 0,35,36
 343 385 343 385 316 391.5 c 128,-1,37
 289 398 289 398 264 398 c 0,38,39
 219 398 219 398 199 383.5 c 128,-1,40
 179 369 179 369 179 347 c 0,41,42
 179 330 179 330 190.5 318.5 c 128,-1,43
 202 307 202 307 226 303 c 2,44,-1
 331 284 l 2,45,46
 396 273 396 273 430 240.5 c 128,-1,47
 464 208 464 208 464 152 c 0,48,49
 464 76 464 76 404.5 32.5 c 128,-1,50
 345 -11 345 -11 246 -11 c 0,0,1
EndSplineSet
EndChar

StartChar: germandbls
Encoding: 223 223 431
Width: 676
GlyphClass: 1
Flags: W
LayerCount: 2
Fore
SplineSet
455 -11 m 0,0,1
 414 -11 414 -11 370 -0.5 c 128,-1,2
 326 10 326 10 290 29 c 0,3,4
 270 39 270 39 262 55.5 c 128,-1,5
 254 72 254 72 256.5 89 c 128,-1,6
 259 106 259 106 270 119 c 128,-1,7
 281 132 281 132 297 136 c 128,-1,8
 313 140 313 140 332 131 c 0,9,10
 365 114 365 114 399 107 c 128,-1,11
 433 100 433 100 458 100 c 0,12,13
 488 100 488 100 505 112 c 128,-1,14
 522 124 522 124 522 147 c 0,15,16
 522 166 522 166 503.5 179.5 c 128,-1,17
 485 193 485 193 434 207 c 0,18,19
 355 230 355 230 323 264 c 128,-1,20
 291 298 291 298 291 348 c 0,21,22
 291 369 291 369 297 389 c 128,-1,23
 303 409 303 409 318 431 c 128,-1,24
 333 453 333 453 360 481 c 0,25,26
 383 504 383 504 392 521 c 128,-1,27
 401 538 401 538 401 557 c 0,28,29
 401 580 401 580 384 594 c 128,-1,30
 367 608 367 608 332 608 c 0,31,32
 272 608 272 608 240.5 572 c 128,-1,33
 209 536 209 536 209 471 c 2,34,-1
 209 68 l 2,35,36
 209 31 209 31 189.5 11 c 128,-1,37
 170 -9 170 -9 134 -9 c 0,38,39
 97 -9 97 -9 77.5 11 c 128,-1,40
 58 31 58 31 58 68 c 2,41,-1
 58 446 l 2,42,43
 58 576 58 576 129.5 646 c 128,-1,44
 201 716 201 716 334 716 c 0,45,46
 400 716 400 716 446.5 698 c 128,-1,47
 493 680 493 680 518 647.5 c 128,-1,48
 543 615 543 615 543 570 c 0,49,50
 543 537 543 537 529 507 c 128,-1,51
 515 477 515 477 480 443 c 0,52,53
 460 423 460 423 448.5 410 c 128,-1,54
 437 397 437 397 432.5 387.5 c 128,-1,55
 428 378 428 378 428 367 c 0,56,57
 428 349 428 349 447 335.5 c 128,-1,58
 466 322 466 322 521 306 c 0,59,60
 594 285 594 285 626 248 c 128,-1,61
 658 211 658 211 658 157 c 0,62,63
 658 106 658 106 633 68.5 c 128,-1,64
 608 31 608 31 562.5 10 c 128,-1,65
 517 -11 517 -11 455 -11 c 0,0,1
EndSplineSet
Substitution2: "Single Substitution lookup 39 subtable" germandbls.calt
Substitution2: "Single Substitution lookup 38 subtable" germandbls.calt
Substitution2: "'aalt' Access All Alternates lookup 0 subtable" germandbls.calt
EndChar

StartChar: t
Encoding: 116 116 432
Width: 404
GlyphClass: 2
Flags: W
AnchorPoint: "Anchor-5" 189 257 basechar 0
AnchorPoint: "Anchor-2" 238 0 basechar 0
AnchorPoint: "Anchor-1" 291 705 basechar 0
AnchorPoint: "Anchor-0" 168 635 basechar 0
LayerCount: 2
Fore
SplineSet
299 -11 m 0,0,1
 230 -11 230 -11 183.5 12 c 128,-1,2
 137 35 137 35 114.5 79 c 128,-1,3
 92 123 92 123 92 190 c 2,4,-1
 92 378 l 1,5,-1
 50 378 l 2,6,7
 22 378 22 378 6.5 393 c 128,-1,8
 -9 408 -9 408 -9 434 c 0,9,10
 -9 462 -9 462 6.5 476.5 c 128,-1,11
 22 491 22 491 50 491 c 2,12,-1
 92 491 l 1,13,-1
 92 567 l 2,14,15
 92 605 92 605 112 624.5 c 128,-1,16
 132 644 132 644 168 644 c 0,17,18
 205 644 205 644 224 624.5 c 128,-1,19
 243 605 243 605 243 567 c 2,20,-1
 243 491 l 1,21,-1
 338 491 l 2,22,23
 366 491 366 491 381 476.5 c 128,-1,24
 396 462 396 462 396 434 c 0,25,26
 396 408 396 408 381 393 c 128,-1,27
 366 378 366 378 338 378 c 2,28,-1
 243 378 l 1,29,-1
 243 196 l 2,30,31
 243 154 243 154 262.5 133 c 128,-1,32
 282 112 282 112 325 112 c 0,33,34
 340 112 340 112 353 115 c 128,-1,35
 366 118 366 118 377 119 c 0,36,37
 391 120 391 120 400 110.5 c 128,-1,38
 409 101 409 101 409 69 c 0,39,40
 409 45 409 45 401 27 c 128,-1,41
 393 9 393 9 373 1 c 0,42,43
 360 -4 360 -4 337.5 -7.5 c 128,-1,44
 315 -11 315 -11 299 -11 c 0,0,1
EndSplineSet
EndChar

StartChar: u
Encoding: 117 117 440
Width: 590
GlyphClass: 2
Flags: W
AnchorPoint: "Anchor-3" 485 0 basechar 0
AnchorPoint: "Anchor-2" 294 0 basechar 0
AnchorPoint: "Anchor-1" 422 484 basechar 0
AnchorPoint: "Anchor-0" 294 485 basechar 0
LayerCount: 2
Fore
SplineSet
239 -11 m 0,0,1
 177 -11 177 -11 136 12 c 128,-1,2
 95 35 95 35 75.5 81.5 c 128,-1,3
 56 128 56 128 56 197 c 2,4,-1
 56 423 l 2,5,6
 56 461 56 461 75.5 480 c 128,-1,7
 95 499 95 499 131 499 c 256,8,9
 167 499 167 499 187 480 c 128,-1,10
 207 461 207 461 207 423 c 2,11,-1
 207 193 l 2,12,13
 207 149 207 149 225 127.5 c 128,-1,14
 243 106 243 106 282 106 c 0,15,16
 325 106 325 106 352.5 136.5 c 128,-1,17
 380 167 380 167 380 217 c 2,18,-1
 380 423 l 2,19,20
 380 461 380 461 399.5 480 c 128,-1,21
 419 499 419 499 455 499 c 0,22,23
 492 499 492 499 511.5 480 c 128,-1,24
 531 461 531 461 531 423 c 2,25,-1
 531 68 l 2,26,27
 531 -9 531 -9 458 -9 c 0,28,29
 422 -9 422 -9 403 11 c 128,-1,30
 384 31 384 31 384 68 c 2,31,-1
 384 135 l 1,32,-1
 399 96 l 1,33,34
 377 45 377 45 336 17 c 128,-1,35
 295 -11 295 -11 239 -11 c 0,0,1
EndSplineSet
EndChar

StartChar: uhorn
Encoding: 432 432 450
Width: 590
GlyphClass: 2
Flags: W
AnchorPoint: "Anchor-2" 295 0 basechar 0
AnchorPoint: "Anchor-0" 294 484 basechar 0
LayerCount: 2
Fore
SplineSet
239 -11 m 0,0,1
 177 -11 177 -11 136 12 c 128,-1,2
 95 35 95 35 75.5 81.5 c 128,-1,3
 56 128 56 128 56 197 c 2,4,-1
 56 423 l 2,5,6
 56 460 56 460 75.5 479.5 c 128,-1,7
 95 499 95 499 131 499 c 256,8,9
 167 499 167 499 187 479.5 c 128,-1,10
 207 460 207 460 207 423 c 2,11,-1
 207 193 l 2,12,13
 207 149 207 149 225 127.5 c 128,-1,14
 243 106 243 106 282 106 c 0,15,16
 325 106 325 106 352.5 136.5 c 128,-1,17
 380 167 380 167 380 217 c 2,18,-1
 380 416 l 2,19,20
 380 454 380 454 399 471.5 c 128,-1,21
 418 489 418 489 452 494 c 0,22,23
 471 497 471 497 484 505 c 128,-1,24
 497 513 497 513 504.5 529 c 128,-1,25
 512 545 512 545 512 572 c 0,26,27
 512 618 512 618 578 618 c 0,28,29
 609 618 609 618 626 606.5 c 128,-1,30
 643 595 643 595 643 573 c 0,31,32
 643 515 643 515 612.5 474.5 c 128,-1,33
 582 434 582 434 531 422 c 1,34,-1
 531 68 l 2,35,36
 531 -9 531 -9 458 -9 c 0,37,38
 422 -9 422 -9 403 11 c 128,-1,39
 384 31 384 31 384 68 c 2,40,-1
 384 135 l 1,41,-1
 399 96 l 1,42,43
 377 45 377 45 336 17 c 128,-1,44
 295 -11 295 -11 239 -11 c 0,0,1
EndSplineSet
EndChar

StartChar: uogonek
Encoding: 371 371 460
Width: 590
GlyphClass: 1
Flags: W
LayerCount: 2
Fore
SplineSet
384 135 m 1,0,-1
 399 96 l 1,1,2
 377 45 377 45 336 17 c 128,-1,3
 295 -11 295 -11 239 -11 c 0,4,5
 177 -11 177 -11 136 12 c 128,-1,6
 95 35 95 35 75.5 81.5 c 128,-1,7
 56 128 56 128 56 197 c 2,8,-1
 56 423 l 2,9,10
 56 460 56 460 75.5 479.5 c 128,-1,11
 95 499 95 499 131 499 c 256,12,13
 167 499 167 499 187 479.5 c 128,-1,14
 207 460 207 460 207 423 c 2,15,-1
 207 193 l 2,16,17
 207 149 207 149 225 127.5 c 128,-1,18
 243 106 243 106 282 106 c 0,19,20
 325 106 325 106 352.5 136.5 c 128,-1,21
 380 167 380 167 380 217 c 2,22,-1
 380 423 l 2,23,24
 380 460 380 460 399.5 479.5 c 128,-1,25
 419 499 419 499 455 499 c 0,26,27
 492 499 492 499 511.5 479.5 c 128,-1,28
 531 460 531 460 531 423 c 2,29,-1
 531 68 l 2,30,31
 531 35 531 35 517.5 17 c 128,-1,32
 504 -1 504 -1 478 -8 c 0,33,34
 456 -14 456 -14 442.5 -32 c 128,-1,35
 429 -50 429 -50 429 -72 c 0,36,37
 429 -95 429 -95 444.5 -107.5 c 128,-1,38
 460 -120 460 -120 483 -120 c 0,39,40
 490 -120 490 -120 497 -119 c 128,-1,41
 504 -118 504 -118 512 -116 c 0,42,43
 532 -112 532 -112 543.5 -120 c 128,-1,44
 555 -128 555 -128 557.5 -142 c 128,-1,45
 560 -156 560 -156 552.5 -169 c 128,-1,46
 545 -182 545 -182 527 -188 c 0,47,48
 511 -194 511 -194 494 -195.5 c 128,-1,49
 477 -197 477 -197 463 -197 c 0,50,51
 403 -197 403 -197 370 -167.5 c 128,-1,52
 337 -138 337 -138 337 -89 c 0,53,54
 337 -53 337 -53 357 -22 c 128,-1,55
 377 9 377 9 411 30 c 1,56,-1
 402 12 l 1,57,58
 393 23 393 23 388.5 36.5 c 128,-1,59
 384 50 384 50 384 68 c 2,60,-1
 384 135 l 1,0,-1
EndSplineSet
EndChar

StartChar: v
Encoding: 118 118 464
Width: 534
GlyphClass: 2
Flags: W
AnchorPoint: "Anchor-2" 269 0 basechar 0
AnchorPoint: "Anchor-0" 269 484 basechar 0
LayerCount: 2
Fore
SplineSet
266 -9 m 0,0,1
 237 -9 237 -9 215 6.5 c 128,-1,2
 193 22 193 22 180 53 c 2,3,-1
 29 401 l 2,4,5
 18 427 18 427 21 449.5 c 128,-1,6
 24 472 24 472 42.5 485.5 c 128,-1,7
 61 499 61 499 94 499 c 0,8,9
 121 499 121 499 138 486.5 c 128,-1,10
 155 474 155 474 168 439 c 2,11,-1
 286 139 l 1,12,-1
 254 139 l 1,13,-1
 377 440 l 2,14,15
 391 474 391 474 408 486.5 c 128,-1,16
 425 499 425 499 455 499 c 0,17,18
 481 499 481 499 496.5 485.5 c 128,-1,19
 512 472 512 472 515.5 450 c 128,-1,20
 519 428 519 428 507 402 c 2,21,-1
 353 53 l 2,22,23
 340 21 340 21 318.5 6 c 128,-1,24
 297 -9 297 -9 266 -9 c 0,0,1
EndSplineSet
EndChar

StartChar: w
Encoding: 119 119 465
Width: 861
GlyphClass: 2
Flags: W
AnchorPoint: "Anchor-2" 431 0 basechar 0
AnchorPoint: "Anchor-0" 431 484 basechar 0
LayerCount: 2
Fore
SplineSet
260 -9 m 256,0,1
 230 -9 230 -9 209 5.5 c 128,-1,2
 188 20 188 20 175 52 c 2,3,-1
 34 401 l 2,4,5
 23 429 23 429 27 450.5 c 128,-1,6
 31 472 31 472 48.5 485.5 c 128,-1,7
 66 499 66 499 97 499 c 0,8,9
 123 499 123 499 140 486.5 c 128,-1,10
 157 474 157 474 169 439 c 2,11,-1
 279 146 l 1,12,-1
 256 146 l 1,13,-1
 370 452 l 2,14,15
 378 476 378 476 393.5 487.5 c 128,-1,16
 409 499 409 499 434 499 c 256,17,18
 459 499 459 499 474.5 487 c 128,-1,19
 490 475 490 475 499 452 c 2,20,-1
 611 146 l 1,21,-1
 592 146 l 1,22,-1
 701 443 l 2,23,24
 713 475 713 475 732 487 c 128,-1,25
 751 499 751 499 773 499 c 0,26,27
 801 499 801 499 816.5 485 c 128,-1,28
 832 471 832 471 834.5 449 c 128,-1,29
 837 427 837 427 826 401 c 2,30,-1
 686 52 l 2,31,32
 674 21 674 21 652.5 6 c 128,-1,33
 631 -9 631 -9 601 -9 c 0,34,35
 572 -9 572 -9 550.5 6 c 128,-1,36
 529 21 529 21 516 52 c 2,37,-1
 396 364 l 1,38,-1
 461 364 l 1,39,-1
 344 53 l 2,40,41
 332 22 332 22 311 6.5 c 128,-1,42
 290 -9 290 -9 260 -9 c 256,0,1
EndSplineSet
EndChar

StartChar: x
Encoding: 120 120 470
Width: 559
GlyphClass: 2
Flags: W
AnchorPoint: "Anchor-2" 280 0 basechar 0
AnchorPoint: "Anchor-0" 280 484 basechar 0
LayerCount: 2
Fore
SplineSet
110 -7 m 0,0,1
 82 -7 82 -7 65 8.5 c 128,-1,2
 48 24 48 24 47.5 48 c 128,-1,3
 47 72 47 72 67 97 c 2,4,-1
 222 287 l 1,5,-1
 222 219 l 1,6,-1
 78 395 l 2,7,8
 57 421 57 421 58 445 c 128,-1,9
 59 469 59 469 76 484 c 128,-1,10
 93 499 93 499 121 499 c 0,11,12
 148 499 148 499 166 490 c 128,-1,13
 184 481 184 481 200 460 c 2,14,-1
 307 323 l 1,15,-1
 254 323 l 1,16,-1
 361 460 l 2,17,18
 378 481 378 481 396 490 c 128,-1,19
 414 499 414 499 440 499 c 0,20,21
 468 499 468 499 485 483.5 c 128,-1,22
 502 468 502 468 502.5 444 c 128,-1,23
 503 420 503 420 482 395 c 2,24,-1
 338 219 l 1,25,-1
 338 287 l 1,26,-1
 494 97 l 2,27,28
 515 73 515 73 514 49 c 128,-1,29
 513 25 513 25 495.5 9 c 128,-1,30
 478 -7 478 -7 450 -7 c 0,31,32
 423 -7 423 -7 405.5 2.5 c 128,-1,33
 388 12 388 12 371 32 c 2,34,-1
 254 181 l 1,35,-1
 305 181 l 1,36,-1
 188 32 l 2,37,38
 172 13 172 13 154.5 3 c 128,-1,39
 137 -7 137 -7 110 -7 c 0,0,1
EndSplineSet
EndChar

StartChar: y
Encoding: 121 121 471
Width: 533
GlyphClass: 2
Flags: W
AnchorPoint: "Anchor-2" 422 0 basechar 0
AnchorPoint: "Anchor-0" 267 484 basechar 0
LayerCount: 2
Fore
SplineSet
192 -189 m 0,0,1
 166 -189 166 -189 149 -175 c 128,-1,2
 132 -161 132 -161 129 -138.5 c 128,-1,3
 126 -116 126 -116 137 -91 c 2,4,-1
 204 57 l 1,5,-1
 204 -5 l 1,6,-1
 27 401 l 2,7,8
 17 427 17 427 20.5 449.5 c 128,-1,9
 24 472 24 472 42.5 485.5 c 128,-1,10
 61 499 61 499 94 499 c 0,11,12
 121 499 121 499 137.5 486.5 c 128,-1,13
 154 474 154 474 168 439 c 2,14,-1
 286 139 l 1,15,-1
 254 139 l 1,16,-1
 376 440 l 2,17,18
 390 474 390 474 407.5 486.5 c 128,-1,19
 425 499 425 499 455 499 c 0,20,21
 481 499 481 499 496.5 485.5 c 128,-1,22
 512 472 512 472 515.5 450 c 128,-1,23
 519 428 519 428 507 402 c 2,24,-1
 272 -131 l 2,25,26
 257 -165 257 -165 238.5 -177 c 128,-1,27
 220 -189 220 -189 192 -189 c 0,0,1
EndSplineSet
EndChar

StartChar: uni01B4
Encoding: 436 436 478
Width: 583
GlyphClass: 1
Flags: W
LayerCount: 2
Fore
SplineSet
192 -189 m 0,0,1
 166 -189 166 -189 149 -175 c 128,-1,2
 132 -161 132 -161 129 -138 c 128,-1,3
 126 -115 126 -115 137 -90 c 2,4,-1
 204 57 l 1,5,-1
 204 -5 l 1,6,-1
 27 401 l 2,7,8
 16 427 16 427 19.5 449.5 c 128,-1,9
 23 472 23 472 42 485.5 c 128,-1,10
 61 499 61 499 94 499 c 0,11,12
 121 499 121 499 137.5 486.5 c 128,-1,13
 154 474 154 474 168 439 c 2,14,-1
 286 139 l 1,15,-1
 254 139 l 1,16,-1
 352 378 l 2,17,18
 367 415 367 415 390 442.5 c 128,-1,19
 413 470 413 470 448 485.5 c 128,-1,20
 483 501 483 501 534 501 c 0,21,22
 588 501 588 501 606 485.5 c 128,-1,23
 624 470 624 470 624 443 c 0,24,25
 624 414 624 414 615 398 c 128,-1,26
 606 382 606 382 586 382 c 0,27,28
 582 382 582 382 573.5 383 c 128,-1,29
 565 384 565 384 553 384 c 0,30,31
 527 384 527 384 506 368.5 c 128,-1,32
 485 353 485 353 469 317 c 2,33,-1
 272 -131 l 2,34,35
 257 -165 257 -165 238.5 -177 c 128,-1,36
 220 -189 220 -189 192 -189 c 0,0,1
EndSplineSet
EndChar

StartChar: z
Encoding: 122 122 482
Width: 480
GlyphClass: 2
Flags: W
AnchorPoint: "Anchor-2" 246 0 basechar 0
AnchorPoint: "Anchor-0" 246 484 basechar 0
LayerCount: 2
Fore
SplineSet
100 0 m 2,0,1
 78 0 78 0 63 11.5 c 128,-1,2
 48 23 48 23 43 41 c 128,-1,3
 38 59 38 59 43.5 80 c 128,-1,4
 49 101 49 101 66 119 c 2,5,-1
 311 413 l 1,6,-1
 311 378 l 1,7,-1
 94 378 l 2,8,9
 67 378 67 378 52 393 c 128,-1,10
 37 408 37 408 37 434 c 0,11,12
 37 462 37 462 52 476.5 c 128,-1,13
 67 491 67 491 94 491 c 2,14,-1
 383 491 l 2,15,16
 410 491 410 491 426 479 c 128,-1,17
 442 467 442 467 447.5 449.5 c 128,-1,18
 453 432 453 432 448.5 411.5 c 128,-1,19
 444 391 444 391 427 373 c 2,20,-1
 176 73 l 1,21,-1
 176 112 l 1,22,-1
 408 112 l 2,23,24
 465 112 465 112 465 56 c 0,25,26
 465 29 465 29 450 14.5 c 128,-1,27
 435 0 435 0 408 0 c 2,28,-1
 100 0 l 2,0,1
EndSplineSet
EndChar

StartChar: germandbls.calt
Encoding: 65540 -1 487
Width: 741
GlyphClass: 1
Flags: W
LayerCount: 2
Fore
SplineSet
464 -11 m 0,0,1
 419 -11 419 -11 380 -2 c 128,-1,2
 341 7 341 7 311 22 c 0,3,4
 290 33 290 33 282 50.5 c 128,-1,5
 274 68 274 68 276 86.5 c 128,-1,6
 278 105 278 105 288 120 c 128,-1,7
 298 135 298 135 314 140 c 128,-1,8
 330 145 330 145 349 136 c 0,9,10
 374 123 374 123 398 117.5 c 128,-1,11
 422 112 422 112 447 112 c 0,12,13
 494 112 494 112 520 136.5 c 128,-1,14
 546 161 546 161 546 203 c 0,15,16
 546 248 546 248 515.5 270.5 c 128,-1,17
 485 293 485 293 422 293 c 2,18,-1
 368 293 l 2,19,20
 342 293 342 293 325 308.5 c 128,-1,21
 308 324 308 324 308 353 c 0,22,23
 308 383 308 383 323 397.5 c 128,-1,24
 338 412 338 412 361 412 c 2,25,-1
 405 412 l 2,26,27
 453 412 453 412 481 435.5 c 128,-1,28
 509 459 509 459 509 502 c 0,29,30
 509 546 509 546 477 568.5 c 128,-1,31
 445 591 445 591 384 591 c 0,32,33
 305 591 305 591 265.5 554.5 c 128,-1,34
 226 518 226 518 226 443 c 2,35,-1
 226 71 l 2,36,37
 226 33 226 33 206 12 c 128,-1,38
 186 -9 186 -9 149 -9 c 0,39,40
 111 -9 111 -9 91 12 c 128,-1,41
 71 33 71 33 71 71 c 2,42,-1
 71 444 l 2,43,44
 71 533 71 533 108.5 593.5 c 128,-1,45
 146 654 146 654 217.5 684.5 c 128,-1,46
 289 715 289 715 392 715 c 0,47,48
 474 715 474 715 533.5 692 c 128,-1,49
 593 669 593 669 625.5 626 c 128,-1,50
 658 583 658 583 658 523 c 256,51,52
 658 463 658 463 625 418 c 128,-1,53
 592 373 592 373 533 354 c 1,54,-1
 533 372 l 1,55,56
 582 367 582 367 618.5 343.5 c 128,-1,57
 655 320 655 320 674.5 281.5 c 128,-1,58
 694 243 694 243 694 192 c 0,59,60
 694 128 694 128 666.5 83 c 128,-1,61
 639 38 639 38 587.5 13.5 c 128,-1,62
 536 -11 536 -11 464 -11 c 0,0,1
EndSplineSet
EndChar

StartChar: a.ss01
Encoding: 65542 -1 489
Width: 610
GlyphClass: 2
Flags: W
AnchorPoint: "Anchor-3" 506 0 basechar 0
AnchorPoint: "Anchor-2" 303 0 basechar 0
AnchorPoint: "Anchor-0" 303 484 basechar 0
LayerCount: 2
Fore
SplineSet
249 -11 m 0,0,1
 185 -11 185 -11 136.5 20 c 128,-1,2
 88 51 88 51 61 109 c 128,-1,3
 34 167 34 167 34 246 c 256,4,5
 34 325 34 325 61 382 c 128,-1,6
 88 439 88 439 136.5 470 c 128,-1,7
 185 501 185 501 249 501 c 0,8,9
 307 501 307 501 351.5 473 c 128,-1,10
 396 445 396 445 412 400 c 1,11,-1
 402 367 l 1,12,-1
 402 423 l 2,13,14
 402 460 402 460 422 479.5 c 128,-1,15
 442 499 442 499 477 499 c 0,16,17
 513 499 513 499 532.5 479.5 c 128,-1,18
 552 460 552 460 552 423 c 2,19,-1
 552 68 l 2,20,21
 552 31 552 31 532.5 11 c 128,-1,22
 513 -9 513 -9 477 -9 c 256,23,24
 441 -9 441 -9 421.5 11 c 128,-1,25
 402 31 402 31 402 68 c 2,26,-1
 402 123 l 1,27,-1
 413 97 l 1,28,29
 399 48 399 48 353.5 18.5 c 128,-1,30
 308 -11 308 -11 249 -11 c 0,0,1
294 102 m 0,31,32
 327 102 327 102 351 118 c 128,-1,33
 375 134 375 134 389 165.5 c 128,-1,34
 403 197 403 197 403 246 c 0,35,36
 403 319 403 319 373 353.5 c 128,-1,37
 343 388 343 388 294 388 c 0,38,39
 262 388 262 388 237.5 373 c 128,-1,40
 213 358 213 358 199.5 326.5 c 128,-1,41
 186 295 186 295 186 246 c 0,42,43
 186 173 186 173 216 137.5 c 128,-1,44
 246 102 246 102 294 102 c 0,31,32
EndSplineSet
EndChar

StartChar: l.ss02
Encoding: 65569 -1 516
Width: 267
GlyphClass: 2
Flags: W
AnchorPoint: "Anchor-5" 134 357 basechar 0
AnchorPoint: "Anchor-2" 134 0 basechar 0
AnchorPoint: "Anchor-1" 246 705 basechar 0
AnchorPoint: "Anchor-0" 134 705 basechar 0
LayerCount: 2
Fore
SplineSet
134 -9 m 0,0,1
 97 -9 97 -9 77.5 11 c 128,-1,2
 58 31 58 31 58 68 c 2,3,-1
 58 637 l 2,4,5
 58 675 58 675 77.5 694.5 c 128,-1,6
 97 714 97 714 134 714 c 0,7,8
 170 714 170 714 189.5 694.5 c 128,-1,9
 209 675 209 675 209 637 c 2,10,-1
 209 68 l 2,11,12
 209 -9 209 -9 134 -9 c 0,0,1
EndSplineSet
EndChar

StartChar: fi
Encoding: 64257 64257 525
Width: 642
GlyphClass: 3
LigCaretCntFixed: 1
Flags: W
LayerCount: 2
Fore
SplineSet
172 -9 m 0,0,1
 135 -9 135 -9 115.5 11 c 128,-1,2
 96 31 96 31 96 68 c 2,3,-1
 96 378 l 1,4,-1
 60 378 l 2,5,6
 32 378 32 378 16.5 393 c 128,-1,7
 1 408 1 408 1 434 c 0,8,9
 1 462 1 462 16.5 476.5 c 128,-1,10
 32 491 32 491 60 491 c 2,11,-1
 140 491 l 1,12,-1
 96 451 l 1,13,-1
 96 482 l 2,14,15
 96 587 96 587 148 641 c 128,-1,16
 200 695 200 695 302 706 c 2,17,-1
 331 709 l 2,18,19
 359 711 359 711 375.5 701.5 c 128,-1,20
 392 692 392 692 397.5 676 c 128,-1,21
 403 660 403 660 400 643 c 128,-1,22
 397 626 397 626 386.5 613.5 c 128,-1,23
 376 601 376 601 360 600 c 2,24,-1
 339 598 l 2,25,26
 289 595 289 595 268 573 c 128,-1,27
 247 551 247 551 247 508 c 2,28,-1
 247 474 l 1,29,-1
 228 491 l 1,30,-1
 508 491 l 2,31,32
 544 491 544 491 563.5 469.5 c 128,-1,33
 583 448 583 448 583 409 c 2,34,-1
 583 74 l 2,35,36
 583 35 583 35 564 13.5 c 128,-1,37
 545 -8 545 -8 508 -8 c 0,38,39
 472 -8 472 -8 452 13.5 c 128,-1,40
 432 35 432 35 432 74 c 2,41,-1
 432 378 l 1,42,-1
 247 378 l 1,43,-1
 247 68 l 2,44,45
 247 -9 247 -9 172 -9 c 0,0,1
511 581 m 256,46,47
 471 581 471 581 449.5 600.5 c 128,-1,48
 428 620 428 620 428 656 c 0,49,50
 428 693 428 693 449.5 712.5 c 128,-1,51
 471 732 471 732 511 732 c 256,52,53
 551 732 551 732 572.5 712.5 c 128,-1,54
 594 693 594 693 594 656 c 0,55,56
 594 620 594 620 572.5 600.5 c 128,-1,57
 551 581 551 581 511 581 c 256,46,47
EndSplineSet
Ligature2: "'liga' Standard Ligatures lookup 33 subtable" f i
LCarets2: 1 321
EndChar

StartChar: ordfeminine
Encoding: 170 170 529
Width: 346
GlyphClass: 1
Flags: W
LayerCount: 2
Fore
SplineSet
134 406 m 0,0,1
 82 406 82 406 50.5 433.5 c 128,-1,2
 19 461 19 461 19 502 c 0,3,4
 19 550 19 550 60.5 570 c 128,-1,5
 102 590 102 590 187 590 c 2,6,-1
 234 590 l 1,7,-1
 234 541 l 1,8,-1
 190 541 l 2,9,10
 148 541 148 541 131 532 c 128,-1,11
 114 523 114 523 114 505 c 0,12,13
 114 490 114 490 125 479.5 c 128,-1,14
 136 469 136 469 160 469 c 0,15,16
 179 469 179 469 193 477.5 c 128,-1,17
 207 486 207 486 215.5 502 c 128,-1,18
 224 518 224 518 224 540 c 2,19,-1
 224 598 l 2,20,21
 224 622 224 622 209 633.5 c 128,-1,22
 194 645 194 645 162 645 c 0,23,24
 148 645 148 645 130 642 c 128,-1,25
 112 639 112 639 87 632 c 0,26,27
 68 627 68 627 56 634 c 128,-1,28
 44 641 44 641 40.5 654 c 128,-1,29
 37 667 37 667 44 680 c 128,-1,30
 51 693 51 693 70 699 c 0,31,32
 97 709 97 709 122 712.5 c 128,-1,33
 147 716 147 716 170 716 c 0,34,35
 220 716 220 716 253 702 c 128,-1,36
 286 688 286 688 302 661 c 128,-1,37
 318 634 318 634 318 593 c 2,38,-1
 318 452 l 2,39,40
 318 406 318 406 274 406 c 0,41,42
 252 406 252 406 240 420 c 128,-1,43
 228 434 228 434 228 453 c 2,44,-1
 228 468 l 1,45,-1
 226 468 l 1,46,47
 211 437 211 437 189 421.5 c 128,-1,48
 167 406 167 406 134 406 c 0,0,1
EndSplineSet
EndChar

StartChar: ordmasculine
Encoding: 186 186 530
Width: 361
GlyphClass: 1
Flags: W
LayerCount: 2
Fore
SplineSet
181 408 m 256,0,1
 134 408 134 408 97 427 c 128,-1,2
 60 446 60 446 38.5 480.5 c 128,-1,3
 17 515 17 515 17 563 c 0,4,5
 17 610 17 610 38.5 644.5 c 128,-1,6
 60 679 60 679 97 697.5 c 128,-1,7
 134 716 134 716 181 716 c 256,8,9
 228 716 228 716 265 697.5 c 128,-1,10
 302 679 302 679 323.5 644.5 c 128,-1,11
 345 610 345 610 345 563 c 0,12,13
 345 515 345 515 323.5 480.5 c 128,-1,14
 302 446 302 446 265 427 c 128,-1,15
 228 408 228 408 181 408 c 256,0,1
181 481 m 256,16,17
 211 481 211 481 229 502 c 128,-1,18
 247 523 247 523 247 563 c 256,19,20
 247 603 247 603 229 623.5 c 128,-1,21
 211 644 211 644 181 644 c 256,22,23
 151 644 151 644 133 624 c 128,-1,24
 115 604 115 604 115 563 c 256,25,26
 115 522 115 522 133 501.5 c 128,-1,27
 151 481 151 481 181 481 c 256,16,17
EndSplineSet
EndChar

StartChar: uni0411
Encoding: 1041 1041 532
Width: 681
GlyphClass: 1
Flags: W
LayerCount: 2
Fore
SplineSet
152 0 m 2,0,1
 113 0 113 0 92 21 c 128,-1,2
 71 42 71 42 71 81 c 2,3,-1
 71 624 l 2,4,5
 71 663 71 663 92 684 c 128,-1,6
 113 705 113 705 152 705 c 2,7,-1
 525 705 l 2,8,9
 555 705 555 705 571 689.5 c 128,-1,10
 587 674 587 674 587 645 c 0,11,12
 587 615 587 615 571 599.5 c 128,-1,13
 555 584 555 584 525 584 c 2,14,-1
 219 584 l 1,15,-1
 219 421 l 1,16,-1
 405 421 l 2,17,18
 519 421 519 421 584 367 c 128,-1,19
 649 313 649 313 649 211 c 256,20,21
 649 109 649 109 584 54.5 c 128,-1,22
 519 0 519 0 405 0 c 2,23,-1
 152 0 l 2,0,1
219 120 m 1,24,-1
 384 120 l 2,25,26
 444 120 444 120 472 142.5 c 128,-1,27
 500 165 500 165 500 211 c 256,28,29
 500 257 500 257 472 279 c 128,-1,30
 444 301 444 301 384 301 c 2,31,-1
 219 301 l 1,32,-1
 219 120 l 1,24,-1
EndSplineSet
EndChar

StartChar: uni0413
Encoding: 1043 1043 534
Width: 569
GlyphClass: 2
Flags: W
AnchorPoint: "Anchor-4" 166 357 basechar 0
AnchorPoint: "Anchor-0" 282 705 basechar 0
LayerCount: 2
Fore
SplineSet
149 -9 m 256,0,1
 111 -9 111 -9 91 12 c 128,-1,2
 71 33 71 33 71 71 c 2,3,-1
 71 625 l 2,4,5
 71 664 71 664 91.5 684.5 c 128,-1,6
 112 705 112 705 151 705 c 2,7,-1
 495 705 l 2,8,9
 527 705 527 705 544 688.5 c 128,-1,10
 561 672 561 672 561 641 c 0,11,12
 561 611 561 611 544 594 c 128,-1,13
 527 577 527 577 495 577 c 2,14,-1
 226 577 l 1,15,-1
 226 71 l 2,16,17
 226 33 226 33 206.5 12 c 128,-1,18
 187 -9 187 -9 149 -9 c 256,0,1
EndSplineSet
EndChar

StartChar: uni0490
Encoding: 1168 1168 536
Width: 569
GlyphClass: 1
Flags: W
LayerCount: 2
Fore
SplineSet
149 -9 m 256,0,1
 111 -9 111 -9 91 12 c 128,-1,2
 71 33 71 33 71 71 c 2,3,-1
 71 625 l 2,4,5
 71 664 71 664 91.5 684.5 c 128,-1,6
 112 705 112 705 151 705 c 2,7,-1
 416 705 l 1,8,-1
 416 807 l 2,9,10
 416 876 416 876 484 876 c 0,11,12
 516 876 516 876 534 858.5 c 128,-1,13
 552 841 552 841 552 807 c 2,14,-1
 552 658 l 2,15,16
 552 619 552 619 531.5 598 c 128,-1,17
 511 577 511 577 472 577 c 2,18,-1
 226 577 l 1,19,-1
 226 71 l 2,20,21
 226 33 226 33 206.5 12 c 128,-1,22
 187 -9 187 -9 149 -9 c 256,0,1
EndSplineSet
EndChar

StartChar: uni04F6
Encoding: 1270 1270 537
Width: 569
GlyphClass: 1
Flags: W
LayerCount: 2
Fore
SplineSet
259 -178 m 0,0,1
 225 -178 225 -178 207.5 -160 c 128,-1,2
 190 -142 190 -142 190 -109 c 2,3,-1
 190 0 l 1,4,-1
 149 0 l 2,5,6
 111 0 111 0 91 21 c 128,-1,7
 71 42 71 42 71 80 c 2,8,-1
 71 625 l 2,9,10
 71 664 71 664 91.5 684.5 c 128,-1,11
 112 705 112 705 151 705 c 2,12,-1
 495 705 l 2,13,14
 527 705 527 705 544 688.5 c 128,-1,15
 561 672 561 672 561 641 c 0,16,17
 561 611 561 611 544 594 c 128,-1,18
 527 577 527 577 495 577 c 2,19,-1
 226 577 l 1,20,-1
 226 59 l 1,21,-1
 170 123 l 1,22,-1
 256 123 l 2,23,24
 289 123 289 123 307.5 104.5 c 128,-1,25
 326 86 326 86 326 55 c 2,26,-1
 326 -109 l 2,27,28
 326 -142 326 -142 308.5 -160 c 128,-1,29
 291 -178 291 -178 259 -178 c 0,0,1
EndSplineSet
EndChar

StartChar: uni0492
Encoding: 1170 1170 538
Width: 614
GlyphClass: 1
Flags: W
LayerCount: 2
Fore
SplineSet
194 -9 m 0,0,1
 156 -9 156 -9 136 12 c 128,-1,2
 116 33 116 33 116 71 c 2,3,-1
 116 289 l 1,4,-1
 82 289 l 2,5,6
 53 289 53 289 38 303.5 c 128,-1,7
 23 318 23 318 23 345 c 256,8,9
 23 372 23 372 38 386 c 128,-1,10
 53 400 53 400 82 400 c 2,11,-1
 116 400 l 1,12,-1
 116 625 l 2,13,14
 116 664 116 664 136.5 684.5 c 128,-1,15
 157 705 157 705 196 705 c 2,16,-1
 541 705 l 2,17,18
 573 705 573 705 589.5 688.5 c 128,-1,19
 606 672 606 672 606 641 c 0,20,21
 606 611 606 611 589.5 594 c 128,-1,22
 573 577 573 577 541 577 c 2,23,-1
 271 577 l 1,24,-1
 271 400 l 1,25,-1
 390 400 l 2,26,27
 418 400 418 400 433 386 c 128,-1,28
 448 372 448 372 448 345 c 256,29,30
 448 318 448 318 433 303.5 c 128,-1,31
 418 289 418 289 390 289 c 2,32,-1
 271 289 l 1,33,-1
 271 71 l 2,34,35
 271 33 271 33 252 12 c 128,-1,36
 233 -9 233 -9 194 -9 c 0,0,1
EndSplineSet
Substitution2: "'locl' Localized Forms in Cyrillic lookup 16 subtable" uni0492.loclBSH
Substitution2: "'aalt' Access All Alternates lookup 0 subtable" uni0492.loclBSH
EndChar

StartChar: uni0494
Encoding: 1172 1172 539
Width: 718
GlyphClass: 1
Flags: W
LayerCount: 2
Fore
SplineSet
431 -191 m 0,0,1
 414 -191 414 -191 388.5 -188.5 c 128,-1,2
 363 -186 363 -186 345 -182 c 0,3,4
 320 -176 320 -176 308 -161 c 128,-1,5
 296 -146 296 -146 295 -128.5 c 128,-1,6
 294 -111 294 -111 301.5 -95 c 128,-1,7
 309 -79 309 -79 324.5 -69.5 c 128,-1,8
 340 -60 340 -60 360 -64 c 0,9,10
 374 -67 374 -67 385.5 -68 c 128,-1,11
 397 -69 397 -69 411 -69 c 0,12,13
 459 -69 459 -69 486.5 -36 c 128,-1,14
 514 -3 514 -3 514 59 c 2,15,-1
 514 140 l 2,16,17
 514 233 514 233 469.5 273.5 c 128,-1,18
 425 314 425 314 345 314 c 0,19,20
 313 314 313 314 282 308 c 128,-1,21
 251 302 251 302 226 289 c 1,22,-1
 226 71 l 2,23,24
 226 33 226 33 206.5 12 c 128,-1,25
 187 -9 187 -9 149 -9 c 256,26,27
 111 -9 111 -9 91 12 c 128,-1,28
 71 33 71 33 71 71 c 2,29,-1
 71 625 l 2,30,31
 71 664 71 664 91.5 684.5 c 128,-1,32
 112 705 112 705 151 705 c 2,33,-1
 523 705 l 2,34,35
 554 705 554 705 571 688.5 c 128,-1,36
 588 672 588 672 588 641 c 0,37,38
 588 611 588 611 571 594 c 128,-1,39
 554 577 554 577 523 577 c 2,40,-1
 226 577 l 1,41,-1
 226 421 l 1,42,43
 249 432 249 432 286.5 439 c 128,-1,44
 324 446 324 446 363 446 c 0,45,46
 437 446 437 446 493.5 427.5 c 128,-1,47
 550 409 550 409 589 372 c 128,-1,48
 628 335 628 335 648.5 278.5 c 128,-1,49
 669 222 669 222 669 146 c 2,50,-1
 669 65 l 2,51,52
 669 -16 669 -16 639 -73.5 c 128,-1,53
 609 -131 609 -131 555.5 -161 c 128,-1,54
 502 -191 502 -191 431 -191 c 0,0,1
EndSplineSet
EndChar

StartChar: uni0414
Encoding: 1044 1044 540
Width: 811
GlyphClass: 1
Flags: W
AnchorPoint: "Anchor-0" 427 703 basechar 0
LayerCount: 2
Fore
SplineSet
81 -178 m 0,0,1
 47 -178 47 -178 29.5 -160.5 c 128,-1,2
 12 -143 12 -143 12 -109 c 2,3,-1
 12 52 l 2,4,5
 12 122 12 122 83 122 c 2,6,-1
 147 122 l 1,7,-1
 61 99 l 1,8,9
 117 151 117 151 144.5 255 c 128,-1,10
 172 359 172 359 172 519 c 2,11,-1
 172 624 l 2,12,13
 172 663 172 663 193 684 c 128,-1,14
 214 705 214 705 254 705 c 2,15,-1
 608 705 l 2,16,17
 647 705 647 705 668 684 c 128,-1,18
 689 663 689 663 689 624 c 2,19,-1
 689 65 l 1,20,-1
 632 122 l 1,21,-1
 719 122 l 2,22,23
 753 122 753 122 771 104 c 128,-1,24
 789 86 789 86 789 52 c 2,25,-1
 789 -109 l 2,26,27
 789 -178 789 -178 722 -178 c 0,28,29
 689 -178 689 -178 671 -160.5 c 128,-1,30
 653 -143 653 -143 653 -109 c 2,31,-1
 653 0 l 1,32,-1
 149 0 l 1,33,-1
 149 -109 l 2,34,35
 149 -178 149 -178 81 -178 c 0,0,1
239 122 m 1,36,-1
 533 122 l 1,37,-1
 533 584 l 1,38,-1
 315 584 l 1,39,-1
 315 504 l 2,40,41
 315 370 315 370 296 276.5 c 128,-1,42
 277 183 277 183 239 122 c 1,36,-1
EndSplineSet
EndChar

StartChar: uni0416
Encoding: 1046 1046 544
Width: 1041
GlyphClass: 2
Flags: W
AnchorPoint: "Anchor-0" 520 705 basechar 0
LayerCount: 2
Fore
SplineSet
521 -9 m 256,0,1
 485 -9 485 -9 466 12 c 128,-1,2
 447 33 447 33 447 71 c 2,3,-1
 447 286 l 1,4,-1
 391 286 l 2,5,6
 343 286 343 286 312.5 266 c 128,-1,7
 282 246 282 246 260 200 c 2,8,-1
 187 41 l 2,9,10
 174 13 174 13 151.5 1.5 c 128,-1,11
 129 -10 129 -10 105.5 -7.5 c 128,-1,12
 82 -5 82 -5 63.5 9 c 128,-1,13
 45 23 45 23 39.5 47 c 128,-1,14
 34 71 34 71 49 102 c 2,15,-1
 124 254 l 2,16,17
 157 324 157 324 203.5 360.5 c 128,-1,18
 250 397 250 397 317 409 c 1,19,-1
 255 366 l 1,20,-1
 102 602 l 2,21,22
 85 629 85 629 87.5 652 c 128,-1,23
 90 675 90 675 105.5 691 c 128,-1,24
 121 707 121 707 143 712 c 128,-1,25
 165 717 165 717 187.5 708 c 128,-1,26
 210 699 210 699 225 674 c 2,27,-1
 396 397 l 1,28,-1
 371 414 l 1,29,-1
 447 414 l 1,30,-1
 447 635 l 2,31,32
 447 673 447 673 466.5 693.5 c 128,-1,33
 486 714 486 714 521 714 c 0,34,35
 557 714 557 714 576 693.5 c 128,-1,36
 595 673 595 673 595 635 c 2,37,-1
 595 414 l 1,38,-1
 672 414 l 1,39,-1
 646 397 l 1,40,-1
 817 674 l 2,41,42
 833 699 833 699 855 708 c 128,-1,43
 877 717 877 717 899 712 c 128,-1,44
 921 707 921 707 936.5 691 c 128,-1,45
 952 675 952 675 954.5 652 c 128,-1,46
 957 629 957 629 940 602 c 2,47,-1
 787 366 l 1,48,-1
 725 409 l 1,49,50
 770 401 770 401 805 382 c 128,-1,51
 840 363 840 363 868 331.5 c 128,-1,52
 896 300 896 300 917 254 c 2,53,-1
 992 102 l 2,54,55
 1007 71 1007 71 1002 47 c 128,-1,56
 997 23 997 23 978 9 c 128,-1,57
 959 -5 959 -5 935.5 -7.5 c 128,-1,58
 912 -10 912 -10 889.5 1.5 c 128,-1,59
 867 13 867 13 854 41 c 2,60,-1
 781 200 l 2,61,62
 759 247 759 247 728.5 266.5 c 128,-1,63
 698 286 698 286 651 286 c 2,64,-1
 595 286 l 1,65,-1
 595 71 l 2,66,67
 595 33 595 33 576 12 c 128,-1,68
 557 -9 557 -9 521 -9 c 256,0,1
EndSplineSet
EndChar

StartChar: uni0417
Encoding: 1047 1047 545
Width: 632
GlyphClass: 2
Flags: W
AnchorPoint: "Anchor-2" 312 0 basechar 0
AnchorPoint: "Anchor-0" 304 705 basechar 0
LayerCount: 2
Fore
SplineSet
299 -11 m 0,0,1
 230 -11 230 -11 171 3.5 c 128,-1,2
 112 18 112 18 66 45 c 0,3,4
 42 58 42 58 33 77 c 128,-1,5
 24 96 24 96 27 114.5 c 128,-1,6
 30 133 30 133 42 147 c 128,-1,7
 54 161 54 161 74 165 c 128,-1,8
 94 169 94 169 119 157 c 0,9,10
 143 144 143 144 169.5 135.5 c 128,-1,11
 196 127 196 127 225.5 123 c 128,-1,12
 255 119 255 119 286 119 c 0,13,14
 337 119 337 119 369 129.5 c 128,-1,15
 401 140 401 140 417 161 c 128,-1,16
 433 182 433 182 433 214 c 0,17,18
 433 256 433 256 405 276.5 c 128,-1,19
 377 297 377 297 317 297 c 2,20,-1
 202 297 l 2,21,22
 171 297 171 297 154.5 312.5 c 128,-1,23
 138 328 138 328 138 358 c 0,24,25
 138 387 138 387 154.5 402.5 c 128,-1,26
 171 418 171 418 202 418 c 2,27,-1
 300 418 l 2,28,29
 358 418 358 418 386 438 c 128,-1,30
 414 458 414 458 414 500 c 0,31,32
 414 526 414 526 400.5 545.5 c 128,-1,33
 387 565 387 565 359.5 576 c 128,-1,34
 332 587 332 587 287 587 c 0,35,36
 249 587 249 587 210 578 c 128,-1,37
 171 569 171 569 138 553 c 0,38,39
 112 540 112 540 92.5 544 c 128,-1,40
 73 548 73 548 60.5 562.5 c 128,-1,41
 48 577 48 577 45.5 596 c 128,-1,42
 43 615 43 615 52 633.5 c 128,-1,43
 61 652 61 652 83 664 c 0,44,45
 131 690 131 690 188 703 c 128,-1,46
 245 716 245 716 306 716 c 0,47,48
 394 716 394 716 451.5 691 c 128,-1,49
 509 666 509 666 538 622.5 c 128,-1,50
 567 579 567 579 567 522 c 0,51,52
 567 459 567 459 530.5 415 c 128,-1,53
 494 371 494 371 432 356 c 1,54,-1
 432 372 l 1,55,56
 504 359 504 359 544.5 314.5 c 128,-1,57
 585 270 585 270 585 199 c 0,58,59
 585 137 585 137 554 89.5 c 128,-1,60
 523 42 523 42 459.5 15.5 c 128,-1,61
 396 -11 396 -11 299 -11 c 0,0,1
EndSplineSet
EndChar

StartChar: uni0418
Encoding: 1048 1048 546
Width: 753
GlyphClass: 2
Flags: W
AnchorPoint: "Anchor-0" 377 705 basechar 0
LayerCount: 2
Fore
SplineSet
137 -9 m 0,0,1
 122 -9 122 -9 109.5 -4 c 128,-1,2
 97 1 97 1 88.5 11 c 128,-1,3
 80 21 80 21 75.5 35.5 c 128,-1,4
 71 50 71 50 71 69 c 2,5,-1
 71 640 l 2,6,7
 71 675 71 675 89.5 694.5 c 128,-1,8
 108 714 108 714 143 714 c 0,9,10
 179 714 179 714 197 694.5 c 128,-1,11
 215 675 215 675 215 640 c 2,12,-1
 215 222 l 1,13,-1
 190 222 l 1,14,-1
 539 669 l 2,15,16
 557 693 557 693 574 703.5 c 128,-1,17
 591 714 591 714 619 714 c 0,18,19
 638 714 638 714 652 705 c 128,-1,20
 666 696 666 696 674 680 c 128,-1,21
 682 664 682 664 682 643 c 2,22,-1
 682 66 l 2,23,24
 682 30 682 30 663.5 10.5 c 128,-1,25
 645 -9 645 -9 610 -9 c 256,26,27
 575 -9 575 -9 556.5 10.5 c 128,-1,28
 538 30 538 30 538 66 c 2,29,-1
 538 484 l 1,30,-1
 562 484 l 1,31,-1
 214 37 l 2,32,33
 195 13 195 13 179.5 2 c 128,-1,34
 164 -9 164 -9 137 -9 c 0,0,1
EndSplineSet
EndChar

StartChar: uni048A
Encoding: 1162 1162 549
Width: 783
GlyphClass: 1
Flags: W
LayerCount: 2
Fore
SplineSet
720 -133 m 2,0,1
 712 -156 712 -156 695 -167.5 c 128,-1,2
 678 -179 678 -179 658 -179.5 c 128,-1,3
 638 -180 638 -180 621.5 -171 c 128,-1,4
 605 -162 605 -162 598 -143.5 c 128,-1,5
 591 -125 591 -125 599 -99 c 2,6,-1
 637 16 l 1,7,-1
 658 0 l 1,8,-1
 614 0 l 2,9,10
 577 0 577 0 557.5 17 c 128,-1,11
 538 34 538 34 538 71 c 2,12,-1
 538 484 l 1,13,-1
 562 484 l 1,14,-1
 214 37 l 2,15,16
 195 13 195 13 179.5 2 c 128,-1,17
 164 -9 164 -9 137 -9 c 0,18,19
 122 -9 122 -9 109.5 -4 c 128,-1,20
 97 1 97 1 88.5 11 c 128,-1,21
 80 21 80 21 75.5 35.5 c 128,-1,22
 71 50 71 50 71 69 c 2,23,-1
 71 640 l 2,24,25
 71 675 71 675 89.5 694.5 c 128,-1,26
 108 714 108 714 143 714 c 0,27,28
 179 714 179 714 197 694.5 c 128,-1,29
 215 675 215 675 215 640 c 2,30,-1
 215 222 l 1,31,-1
 190 222 l 1,32,-1
 539 669 l 2,33,34
 557 693 557 693 574 703.5 c 128,-1,35
 591 714 591 714 619 714 c 0,36,37
 638 714 638 714 652 705 c 128,-1,38
 666 696 666 696 674 680 c 128,-1,39
 682 664 682 664 682 643 c 2,40,-1
 682 74 l 1,41,-1
 650 123 l 1,42,-1
 710 123 l 2,43,44
 754 123 754 123 772 99.5 c 128,-1,45
 790 76 790 76 776 34 c 2,46,-1
 720 -133 l 2,0,1
377 760 m 0,47,48
 302 760 302 760 253 790 c 128,-1,49
 204 820 204 820 182 870 c 0,50,51
 173 891 173 891 180.5 905.5 c 128,-1,52
 188 920 188 920 206 926 c 256,53,54
 224 932 224 932 236.5 924.5 c 128,-1,55
 249 917 249 917 261 898 c 0,56,57
 279 869 279 869 307 854.5 c 128,-1,58
 335 840 335 840 377 840 c 0,59,60
 418 840 418 840 446.5 854.5 c 128,-1,61
 475 869 475 869 492 898 c 0,62,63
 504 917 504 917 516.5 924.5 c 128,-1,64
 529 932 529 932 547 926 c 256,65,66
 565 920 565 920 572.5 905.5 c 128,-1,67
 580 891 580 891 571 870 c 0,68,69
 549 820 549 820 500 790 c 128,-1,70
 451 760 451 760 377 760 c 0,47,48
EndSplineSet
EndChar

StartChar: uni041A
Encoding: 1050 1050 550
Width: 695
GlyphClass: 2
Flags: W
AnchorPoint: "Anchor-5" 356 353 basechar 0
AnchorPoint: "Anchor-0" 346 705 basechar 0
LayerCount: 2
Fore
SplineSet
149 -9 m 256,0,1
 111 -9 111 -9 91 12 c 128,-1,2
 71 33 71 33 71 71 c 2,3,-1
 71 635 l 2,4,5
 71 673 71 673 91 693.5 c 128,-1,6
 111 714 111 714 149 714 c 0,7,8
 186 714 186 714 206 693.5 c 128,-1,9
 226 673 226 673 226 635 c 2,10,-1
 226 414 l 1,11,-1
 326 414 l 1,12,-1
 300 397 l 1,13,-1
 471 674 l 2,14,15
 487 699 487 699 509.5 708 c 128,-1,16
 532 717 532 717 553.5 712 c 128,-1,17
 575 707 575 707 590.5 691 c 128,-1,18
 606 675 606 675 608.5 652 c 128,-1,19
 611 629 611 629 594 602 c 2,20,-1
 441 366 l 1,21,-1
 379 409 l 1,22,23
 447 397 447 397 492.5 360 c 128,-1,24
 538 323 538 323 572 254 c 2,25,-1
 646 102 l 2,26,27
 662 71 662 71 656.5 47 c 128,-1,28
 651 23 651 23 632 9 c 128,-1,29
 613 -5 613 -5 589.5 -7.5 c 128,-1,30
 566 -10 566 -10 543.5 1.5 c 128,-1,31
 521 13 521 13 509 41 c 2,32,-1
 435 200 l 2,33,34
 413 247 413 247 382.5 266.5 c 128,-1,35
 352 286 352 286 305 286 c 2,36,-1
 226 286 l 1,37,-1
 226 71 l 2,38,39
 226 33 226 33 206.5 12 c 128,-1,40
 187 -9 187 -9 149 -9 c 256,0,1
EndSplineSet
EndChar

StartChar: uni041B
Encoding: 1051 1051 552
Width: 758
GlyphClass: 2
Flags: W
LayerCount: 2
Fore
SplineSet
610 -9 m 256,0,1
 572 -9 572 -9 552 12 c 128,-1,2
 532 33 532 33 532 71 c 2,3,-1
 532 577 l 1,4,-1
 314 577 l 1,5,-1
 314 449 l 2,6,7
 314 365 314 365 302 297 c 128,-1,8
 290 229 290 229 267 174.5 c 128,-1,9
 244 120 244 120 210.5 78 c 128,-1,10
 177 36 177 36 134 6 c 0,11,12
 108 -13 108 -13 80.5 -8.5 c 128,-1,13
 53 -4 53 -4 33 22 c 0,14,15
 13 49 13 49 19.5 75.5 c 128,-1,16
 26 102 26 102 52 122 c 0,17,18
 83 145 83 145 105.5 177.5 c 128,-1,19
 128 210 128 210 142.5 254 c 128,-1,20
 157 298 157 298 164 356.5 c 128,-1,21
 171 415 171 415 171 489 c 2,22,-1
 171 624 l 2,23,24
 171 663 171 663 192 684 c 128,-1,25
 213 705 213 705 253 705 c 2,26,-1
 606 705 l 2,27,28
 646 705 646 705 667 684 c 128,-1,29
 688 663 688 663 688 624 c 2,30,-1
 688 71 l 2,31,32
 688 33 688 33 668 12 c 128,-1,33
 648 -9 648 -9 610 -9 c 256,0,1
EndSplineSet
EndChar

StartChar: uni041F
Encoding: 1055 1055 556
Width: 772
GlyphClass: 2
Flags: W
LayerCount: 2
Fore
SplineSet
149 -9 m 256,0,1
 111 -9 111 -9 91 12 c 128,-1,2
 71 33 71 33 71 71 c 2,3,-1
 71 624 l 2,4,5
 71 663 71 663 92 684 c 128,-1,6
 113 705 113 705 152 705 c 2,7,-1
 621 705 l 2,8,9
 660 705 660 705 681 684 c 128,-1,10
 702 663 702 663 702 624 c 2,11,-1
 702 71 l 2,12,13
 702 33 702 33 682 12 c 128,-1,14
 662 -9 662 -9 625 -9 c 0,15,16
 587 -9 587 -9 567 12 c 128,-1,17
 547 33 547 33 547 71 c 2,18,-1
 547 577 l 1,19,-1
 226 577 l 1,20,-1
 226 71 l 2,21,22
 226 33 226 33 206.5 12 c 128,-1,23
 187 -9 187 -9 149 -9 c 256,0,1
EndSplineSet
EndChar

StartChar: uni0423
Encoding: 1059 1059 560
Width: 671
GlyphClass: 2
Flags: W
AnchorPoint: "Anchor-0" 340 705 basechar 0
LayerCount: 2
Fore
SplineSet
277 -9 m 0,0,1
 250 -9 250 -9 231 5 c 128,-1,2
 212 19 212 19 208 42.5 c 128,-1,3
 204 66 204 66 219 96 c 2,4,-1
 292 239 l 1,5,-1
 292 194 l 1,6,-1
 35 612 l 2,7,8
 19 638 19 638 22.5 661.5 c 128,-1,9
 26 685 26 685 45 699.5 c 128,-1,10
 64 714 64 714 94 714 c 256,11,12
 124 714 124 714 140 699 c 128,-1,13
 156 684 156 684 172 657 c 2,14,-1
 367 332 l 1,15,-1
 340 332 l 1,16,-1
 504 656 l 2,17,18
 516 678 516 678 532.5 696 c 128,-1,19
 549 714 549 714 582 714 c 0,20,21
 610 714 610 714 628.5 700.5 c 128,-1,22
 647 687 647 687 652 663.5 c 128,-1,23
 657 640 657 640 640 609 c 2,24,-1
 356 49 l 2,25,26
 345 27 345 27 328 9 c 128,-1,27
 311 -9 311 -9 277 -9 c 0,0,1
EndSplineSet
EndChar

StartChar: uni0424
Encoding: 1060 1060 562
Width: 908
GlyphClass: 1
Flags: W
LayerCount: 2
Fore
SplineSet
455 -35 m 256,0,1
 417 -35 417 -35 396.5 -14.5 c 128,-1,2
 376 6 376 6 376 44 c 2,3,-1
 376 94 l 1,4,-1
 414 54 l 1,5,-1
 387 54 l 2,6,7
 283 54 283 54 207.5 89.5 c 128,-1,8
 132 125 132 125 91 192.5 c 128,-1,9
 50 260 50 260 50 358 c 0,10,11
 50 432 50 432 72.5 488.5 c 128,-1,12
 95 545 95 545 138.5 583.5 c 128,-1,13
 182 622 182 622 245 642 c 128,-1,14
 308 662 308 662 387 662 c 2,15,-1
 414 662 l 1,16,-1
 376 622 l 1,17,-1
 376 666 l 2,18,19
 376 705 376 705 396.5 725 c 128,-1,20
 417 745 417 745 455 745 c 0,21,22
 492 745 492 745 512 725 c 128,-1,23
 532 705 532 705 532 666 c 2,24,-1
 532 622 l 1,25,-1
 494 662 l 1,26,-1
 521 662 l 2,27,28
 628 662 628 662 703 627 c 128,-1,29
 778 592 778 592 818 524.5 c 128,-1,30
 858 457 858 457 858 358 c 0,31,32
 858 285 858 285 835 228 c 128,-1,33
 812 171 812 171 768 132.5 c 128,-1,34
 724 94 724 94 662 74 c 128,-1,35
 600 54 600 54 521 54 c 2,36,-1
 494 54 l 1,37,-1
 532 94 l 1,38,-1
 532 44 l 2,39,40
 532 6 532 6 512.5 -14.5 c 128,-1,41
 493 -35 493 -35 455 -35 c 256,0,1
377 146 m 1,42,-1
 377 570 l 1,43,-1
 409 545 l 1,44,-1
 373 545 l 2,45,46
 338 545 338 545 307.5 534 c 128,-1,47
 277 523 277 523 254.5 500 c 128,-1,48
 232 477 232 477 220 441.5 c 128,-1,49
 208 406 208 406 208 358 c 0,50,51
 208 295 208 295 230 253.5 c 128,-1,52
 252 212 252 212 289.5 191.5 c 128,-1,53
 327 171 327 171 373 171 c 2,54,-1
 409 171 l 1,55,-1
 377 146 l 1,42,-1
531 146 m 1,56,-1
 500 171 l 1,57,-1
 535 171 l 2,58,59
 570 171 570 171 600 182 c 128,-1,60
 630 193 630 193 652.5 216.5 c 128,-1,61
 675 240 675 240 687.5 275.5 c 128,-1,62
 700 311 700 311 700 358 c 0,63,64
 700 423 700 423 679 464 c 128,-1,65
 658 505 658 505 620.5 525 c 128,-1,66
 583 545 583 545 535 545 c 2,67,-1
 500 545 l 1,68,-1
 531 570 l 1,69,-1
 531 146 l 1,56,-1
EndSplineSet
EndChar

StartChar: uni0427
Encoding: 1063 1063 564
Width: 708
GlyphClass: 2
Flags: W
AnchorPoint: "Anchor-5" 307 295 basechar 0
AnchorPoint: "Anchor-0" 339 705 basechar 0
LayerCount: 2
Fore
SplineSet
561 -9 m 256,0,1
 523 -9 523 -9 503 12 c 128,-1,2
 483 33 483 33 483 71 c 2,3,-1
 483 262 l 1,4,5
 458 251 458 251 419 244 c 128,-1,6
 380 237 380 237 341 237 c 0,7,8
 248 237 248 237 183 270 c 128,-1,9
 118 303 118 303 84 369.5 c 128,-1,10
 50 436 50 436 50 537 c 2,11,-1
 50 634 l 2,12,13
 50 672 50 672 70 693 c 128,-1,14
 90 714 90 714 128 714 c 0,15,16
 165 714 165 714 185 693 c 128,-1,17
 205 672 205 672 205 634 c 2,18,-1
 205 543 l 2,19,20
 205 451 205 451 244 409.5 c 128,-1,21
 283 368 283 368 359 368 c 0,22,23
 390 368 390 368 423 374.5 c 128,-1,24
 456 381 456 381 483 394 c 1,25,-1
 483 634 l 2,26,27
 483 672 483 672 503 693 c 128,-1,28
 523 714 523 714 561 714 c 0,29,30
 598 714 598 714 618 693 c 128,-1,31
 638 672 638 672 638 634 c 2,32,-1
 638 71 l 2,33,34
 638 33 638 33 618.5 12 c 128,-1,35
 599 -9 599 -9 561 -9 c 256,0,1
EndSplineSet
EndChar

StartChar: uni0426
Encoding: 1062 1062 565
Width: 824
GlyphClass: 1
Flags: W
LayerCount: 2
Fore
SplineSet
735 -180 m 0,0,1
 702 -180 702 -180 684 -162.5 c 128,-1,2
 666 -145 666 -145 666 -111 c 2,3,-1
 666 0 l 1,4,-1
 152 0 l 2,5,6
 113 0 113 0 92 21 c 128,-1,7
 71 42 71 42 71 81 c 2,8,-1
 71 631 l 2,9,10
 71 669 71 669 91 689.5 c 128,-1,11
 111 710 111 710 149 710 c 0,12,13
 186 710 186 710 206 689.5 c 128,-1,14
 226 669 226 669 226 631 c 2,15,-1
 226 128 l 1,16,-1
 547 128 l 1,17,-1
 547 631 l 2,18,19
 547 669 547 669 567 689.5 c 128,-1,20
 587 710 587 710 625 710 c 0,21,22
 662 710 662 710 682 689.5 c 128,-1,23
 702 669 702 669 702 631 c 2,24,-1
 702 58 l 1,25,-1
 632 128 l 1,26,-1
 732 128 l 2,27,28
 766 128 766 128 784 110 c 128,-1,29
 802 92 802 92 802 57 c 2,30,-1
 802 -111 l 2,31,32
 802 -180 802 -180 735 -180 c 0,0,1
EndSplineSet
EndChar

StartChar: uni0428
Encoding: 1064 1064 566
Width: 1080
GlyphClass: 1
Flags: W
LayerCount: 2
Fore
SplineSet
152 0 m 2,0,1
 113 0 113 0 92 21 c 128,-1,2
 71 42 71 42 71 81 c 2,3,-1
 71 634 l 2,4,5
 71 672 71 672 91 693 c 128,-1,6
 111 714 111 714 147 714 c 0,7,8
 184 714 184 714 203.5 693 c 128,-1,9
 223 672 223 672 223 634 c 2,10,-1
 223 128 l 1,11,-1
 464 128 l 1,12,-1
 464 634 l 2,13,14
 464 672 464 672 483.5 693 c 128,-1,15
 503 714 503 714 540 714 c 256,16,17
 577 714 577 714 596.5 693 c 128,-1,18
 616 672 616 672 616 634 c 2,19,-1
 616 128 l 1,20,-1
 856 128 l 1,21,-1
 856 634 l 2,22,23
 856 672 856 672 876 693 c 128,-1,24
 896 714 896 714 933 714 c 256,25,26
 970 714 970 714 989.5 693 c 128,-1,27
 1009 672 1009 672 1009 634 c 2,28,-1
 1009 81 l 2,29,30
 1009 42 1009 42 988 21 c 128,-1,31
 967 0 967 0 928 0 c 2,32,-1
 152 0 l 2,0,1
EndSplineSet
EndChar

StartChar: uni0429
Encoding: 1065 1065 567
Width: 1131
GlyphClass: 1
Flags: W
LayerCount: 2
Fore
SplineSet
1042 -178 m 0,0,1
 1008 -178 1008 -178 990.5 -160.5 c 128,-1,2
 973 -143 973 -143 973 -109 c 2,3,-1
 973 0 l 1,4,-1
 152 0 l 2,5,6
 113 0 113 0 92 21 c 128,-1,7
 71 42 71 42 71 81 c 2,8,-1
 71 634 l 2,9,10
 71 672 71 672 91 693 c 128,-1,11
 111 714 111 714 147 714 c 0,12,13
 184 714 184 714 203.5 693 c 128,-1,14
 223 672 223 672 223 634 c 2,15,-1
 223 128 l 1,16,-1
 464 128 l 1,17,-1
 464 634 l 2,18,19
 464 672 464 672 483.5 693 c 128,-1,20
 503 714 503 714 540 714 c 256,21,22
 577 714 577 714 596.5 693 c 128,-1,23
 616 672 616 672 616 634 c 2,24,-1
 616 128 l 1,25,-1
 856 128 l 1,26,-1
 856 634 l 2,27,28
 856 672 856 672 876 693 c 128,-1,29
 896 714 896 714 933 714 c 256,30,31
 970 714 970 714 989.5 693 c 128,-1,32
 1009 672 1009 672 1009 634 c 2,33,-1
 1009 58 l 1,34,-1
 939 128 l 1,35,-1
 1038 128 l 2,36,37
 1073 128 1073 128 1091 110 c 128,-1,38
 1109 92 1109 92 1109 57 c 2,39,-1
 1109 -109 l 2,40,41
 1109 -143 1109 -143 1091.5 -160.5 c 128,-1,42
 1074 -178 1074 -178 1042 -178 c 0,0,1
EndSplineSet
EndChar

StartChar: uni040F
Encoding: 1039 1039 568
Width: 772
GlyphClass: 1
Flags: W
LayerCount: 2
Fore
SplineSet
387 -178 m 256,0,1
 354 -178 354 -178 336.5 -160.5 c 128,-1,2
 319 -143 319 -143 319 -109 c 2,3,-1
 319 0 l 1,4,-1
 152 0 l 2,5,6
 113 0 113 0 92 21 c 128,-1,7
 71 42 71 42 71 81 c 2,8,-1
 71 634 l 2,9,10
 71 672 71 672 91 693 c 128,-1,11
 111 714 111 714 149 714 c 0,12,13
 186 714 186 714 206 693 c 128,-1,14
 226 672 226 672 226 634 c 2,15,-1
 226 128 l 1,16,-1
 547 128 l 1,17,-1
 547 634 l 2,18,19
 547 672 547 672 567 693 c 128,-1,20
 587 714 587 714 625 714 c 0,21,22
 662 714 662 714 682 693 c 128,-1,23
 702 672 702 672 702 634 c 2,24,-1
 702 81 l 2,25,26
 702 42 702 42 681 21 c 128,-1,27
 660 0 660 0 621 0 c 2,28,-1
 454 0 l 1,29,-1
 454 -109 l 2,30,31
 454 -143 454 -143 437 -160.5 c 128,-1,32
 420 -178 420 -178 387 -178 c 256,0,1
EndSplineSet
EndChar

StartChar: uni042C
Encoding: 1068 1068 569
Width: 681
GlyphClass: 1
Flags: W
LayerCount: 2
Fore
SplineSet
152 0 m 2,0,1
 113 0 113 0 92 21 c 128,-1,2
 71 42 71 42 71 81 c 2,3,-1
 71 634 l 2,4,5
 71 672 71 672 91 693 c 128,-1,6
 111 714 111 714 149 714 c 0,7,8
 186 714 186 714 206 693 c 128,-1,9
 226 672 226 672 226 634 c 2,10,-1
 226 421 l 1,11,-1
 405 421 l 2,12,13
 481 421 481 421 535.5 396.5 c 128,-1,14
 590 372 590 372 619.5 325.5 c 128,-1,15
 649 279 649 279 649 211 c 0,16,17
 649 109 649 109 584 54.5 c 128,-1,18
 519 0 519 0 405 0 c 2,19,-1
 152 0 l 2,0,1
226 120 m 1,20,-1
 384 120 l 2,21,22
 444 120 444 120 472 142.5 c 128,-1,23
 500 165 500 165 500 211 c 256,24,25
 500 257 500 257 472 279 c 128,-1,26
 444 301 444 301 384 301 c 2,27,-1
 226 301 l 1,28,-1
 226 120 l 1,20,-1
EndSplineSet
EndChar

StartChar: uni042B
Encoding: 1067 1067 570
Width: 928
GlyphClass: 2
Flags: W
AnchorPoint: "Anchor-0" 464 705 basechar 0
LayerCount: 2
Fore
SplineSet
152 0 m 2,0,1
 113 0 113 0 92 21 c 128,-1,2
 71 42 71 42 71 81 c 2,3,-1
 71 634 l 2,4,5
 71 672 71 672 91 693 c 128,-1,6
 111 714 111 714 149 714 c 0,7,8
 186 714 186 714 206 693 c 128,-1,9
 226 672 226 672 226 634 c 2,10,-1
 226 421 l 1,11,-1
 375 421 l 2,12,13
 451 421 451 421 505.5 396.5 c 128,-1,14
 560 372 560 372 589.5 325.5 c 128,-1,15
 619 279 619 279 619 211 c 0,16,17
 619 109 619 109 554 54.5 c 128,-1,18
 489 0 489 0 375 0 c 2,19,-1
 152 0 l 2,0,1
226 120 m 1,20,-1
 354 120 l 2,21,22
 414 120 414 120 442 142.5 c 128,-1,23
 470 165 470 165 470 211 c 256,24,25
 470 257 470 257 442 279 c 128,-1,26
 414 301 414 301 354 301 c 2,27,-1
 226 301 l 1,28,-1
 226 120 l 1,20,-1
780 -9 m 0,29,30
 742 -9 742 -9 722 12 c 128,-1,31
 702 33 702 33 702 71 c 2,32,-1
 702 634 l 2,33,34
 702 672 702 672 722 693 c 128,-1,35
 742 714 742 714 780 714 c 256,36,37
 818 714 818 714 838 693 c 128,-1,38
 858 672 858 672 858 634 c 2,39,-1
 858 71 l 2,40,41
 858 33 858 33 838.5 12 c 128,-1,42
 819 -9 819 -9 780 -9 c 0,29,30
EndSplineSet
EndChar

StartChar: uni042A
Encoding: 1066 1066 571
Width: 816
GlyphClass: 1
Flags: W
LayerCount: 2
Fore
SplineSet
287 0 m 2,0,1
 248 0 248 0 227 21 c 128,-1,2
 206 42 206 42 206 81 c 2,3,-1
 206 577 l 1,4,-1
 64 577 l 2,5,6
 32 577 32 577 14.5 594 c 128,-1,7
 -3 611 -3 611 -3 641 c 0,8,9
 -3 672 -3 672 14.5 688.5 c 128,-1,10
 32 705 32 705 64 705 c 2,11,-1
 280 705 l 2,12,13
 320 705 320 705 341 684 c 128,-1,14
 362 663 362 663 362 624 c 2,15,-1
 362 421 l 1,16,-1
 540 421 l 2,17,18
 617 421 617 421 671 396.5 c 128,-1,19
 725 372 725 372 754.5 325.5 c 128,-1,20
 784 279 784 279 784 211 c 0,21,22
 784 109 784 109 719 54.5 c 128,-1,23
 654 0 654 0 540 0 c 2,24,-1
 287 0 l 2,0,1
362 120 m 1,25,-1
 520 120 l 2,26,27
 579 120 579 120 607.5 142.5 c 128,-1,28
 636 165 636 165 636 211 c 256,29,30
 636 257 636 257 607.5 279 c 128,-1,31
 579 301 579 301 520 301 c 2,32,-1
 362 301 l 1,33,-1
 362 120 l 1,25,-1
EndSplineSet
EndChar

StartChar: uni0409
Encoding: 1033 1033 572
Width: 1135
GlyphClass: 1
Flags: W
LayerCount: 2
Fore
SplineSet
607 0 m 2,0,1
 567 0 567 0 546 21 c 128,-1,2
 525 42 525 42 525 81 c 2,3,-1
 525 577 l 1,4,-1
 314 577 l 1,5,-1
 314 449 l 2,6,7
 314 366 314 366 302 297.5 c 128,-1,8
 290 229 290 229 267 174 c 128,-1,9
 244 119 244 119 210.5 77 c 128,-1,10
 177 35 177 35 132 6 c 0,11,12
 115 -6 115 -6 97 -8.5 c 128,-1,13
 79 -11 79 -11 62.5 -3 c 128,-1,14
 46 5 46 5 33 22 c 0,15,16
 13 49 13 49 19.5 75 c 128,-1,17
 26 101 26 101 52 122 c 0,18,19
 83 145 83 145 105.5 177.5 c 128,-1,20
 128 210 128 210 142.5 254 c 128,-1,21
 157 298 157 298 164 356.5 c 128,-1,22
 171 415 171 415 171 489 c 2,23,-1
 171 624 l 2,24,25
 171 663 171 663 192 684 c 128,-1,26
 213 705 213 705 253 705 c 2,27,-1
 599 705 l 2,28,29
 639 705 639 705 660 684 c 128,-1,30
 681 663 681 663 681 624 c 2,31,-1
 681 421 l 1,32,-1
 859 421 l 2,33,34
 935 421 935 421 990 396.5 c 128,-1,35
 1045 372 1045 372 1074 325.5 c 128,-1,36
 1103 279 1103 279 1103 211 c 0,37,38
 1103 109 1103 109 1038 54.5 c 128,-1,39
 973 0 973 0 859 0 c 2,40,-1
 607 0 l 2,0,1
681 120 m 1,41,-1
 839 120 l 2,42,43
 899 120 899 120 926.5 142.5 c 128,-1,44
 954 165 954 165 954 211 c 256,45,46
 954 257 954 257 926.5 279 c 128,-1,47
 899 301 899 301 839 301 c 2,48,-1
 681 301 l 1,49,-1
 681 120 l 1,41,-1
EndSplineSet
EndChar

StartChar: uni040A
Encoding: 1034 1034 573
Width: 1163
GlyphClass: 1
Flags: W
LayerCount: 2
Fore
SplineSet
149 -9 m 256,0,1
 111 -9 111 -9 91 12 c 128,-1,2
 71 33 71 33 71 71 c 2,3,-1
 71 634 l 2,4,5
 71 672 71 672 91 693 c 128,-1,6
 111 714 111 714 149 714 c 0,7,8
 186 714 186 714 206 693 c 128,-1,9
 226 672 226 672 226 634 c 2,10,-1
 226 422 l 1,11,-1
 554 422 l 1,12,-1
 554 634 l 2,13,14
 554 672 554 672 574 693 c 128,-1,15
 594 714 594 714 631 714 c 0,16,17
 669 714 669 714 689 693 c 128,-1,18
 709 672 709 672 709 634 c 2,19,-1
 709 421 l 1,20,-1
 888 421 l 2,21,22
 964 421 964 421 1018.5 396.5 c 128,-1,23
 1073 372 1073 372 1102 325.5 c 128,-1,24
 1131 279 1131 279 1131 211 c 0,25,26
 1131 109 1131 109 1066.5 54.5 c 128,-1,27
 1002 0 1002 0 888 0 c 2,28,-1
 635 0 l 2,29,30
 595 0 595 0 574.5 21 c 128,-1,31
 554 42 554 42 554 81 c 2,32,-1
 554 293 l 1,33,-1
 226 293 l 1,34,-1
 226 71 l 2,35,36
 226 33 226 33 206.5 12 c 128,-1,37
 187 -9 187 -9 149 -9 c 256,0,1
709 120 m 1,38,-1
 867 120 l 2,39,40
 927 120 927 120 955 142.5 c 128,-1,41
 983 165 983 165 983 211 c 256,42,43
 983 257 983 257 955 279 c 128,-1,44
 927 301 927 301 867 301 c 2,45,-1
 709 301 l 1,46,-1
 709 120 l 1,38,-1
EndSplineSet
EndChar

StartChar: uni0404
Encoding: 1028 1028 575
Width: 684
GlyphClass: 2
Flags: W
AnchorPoint: "Anchor-2" 394 0 basechar 0
AnchorPoint: "Anchor-0" 395 705 basechar 0
LayerCount: 2
Fore
SplineSet
413 -11 m 0,0,1
 299 -11 299 -11 218 34 c 128,-1,2
 137 79 137 79 93.5 160.5 c 128,-1,3
 50 242 50 242 50 353 c 0,4,5
 50 436 50 436 74.5 502.5 c 128,-1,6
 99 569 99 569 146 616.5 c 128,-1,7
 193 664 193 664 260.5 690 c 128,-1,8
 328 716 328 716 413 716 c 0,9,10
 464 716 464 716 514.5 703.5 c 128,-1,11
 565 691 565 691 610 664 c 0,12,13
 634 651 634 651 642.5 631 c 128,-1,14
 651 611 651 611 648 591 c 128,-1,15
 645 571 645 571 631 556 c 128,-1,16
 617 541 617 541 596 537 c 128,-1,17
 575 533 575 533 549 546 c 0,18,19
 518 563 518 563 485.5 571 c 128,-1,20
 453 579 453 579 418 579 c 0,21,22
 357 579 357 579 313 556 c 128,-1,23
 269 533 269 533 243.5 489.5 c 128,-1,24
 218 446 218 446 213 382 c 1,25,-1
 170 420 l 1,26,-1
 459 420 l 2,27,28
 490 420 490 420 506.5 404 c 128,-1,29
 523 388 523 388 523 359 c 0,30,31
 523 329 523 329 506.5 313.5 c 128,-1,32
 490 298 490 298 459 298 c 2,33,-1
 168 298 l 1,34,-1
 212 335 l 1,35,36
 216 265 216 265 242 218.5 c 128,-1,37
 268 172 268 172 312.5 149 c 128,-1,38
 357 126 357 126 418 126 c 0,39,40
 453 126 453 126 487.5 134.5 c 128,-1,41
 522 143 522 143 554 162 c 0,42,43
 580 177 580 177 600.5 173 c 128,-1,44
 621 169 621 169 633 153.5 c 128,-1,45
 645 138 645 138 648 116.5 c 128,-1,46
 651 95 651 95 642 74.5 c 128,-1,47
 633 54 633 54 610 41 c 0,48,49
 568 16 568 16 517 2.5 c 128,-1,50
 466 -11 466 -11 413 -11 c 0,0,1
EndSplineSet
EndChar

StartChar: uni042D
Encoding: 1069 1069 576
Width: 684
GlyphClass: 2
Flags: W
AnchorPoint: "Anchor-2" 309 0 basechar 0
AnchorPoint: "Anchor-0" 309 705 basechar 0
LayerCount: 2
Fore
SplineSet
271 -11 m 0,0,1
 219 -11 219 -11 168.5 2.5 c 128,-1,2
 118 16 118 16 76 40 c 0,3,4
 53 53 53 53 44 73 c 128,-1,5
 35 93 35 93 37 114 c 128,-1,6
 39 135 39 135 51.5 151 c 128,-1,7
 64 167 64 167 84.5 171 c 128,-1,8
 105 175 105 175 131 162 c 0,9,10
 164 143 164 143 197.5 134.5 c 128,-1,11
 231 126 231 126 266 126 c 0,12,13
 327 126 327 126 371.5 149 c 128,-1,14
 416 172 416 172 441.5 217.5 c 128,-1,15
 467 263 467 263 471 330 c 1,16,-1
 515 298 l 1,17,-1
 225 298 l 2,18,19
 194 298 194 298 177.5 311.5 c 128,-1,20
 161 325 161 325 161 355 c 0,21,22
 161 384 161 384 177.5 402 c 128,-1,23
 194 420 194 420 225 420 c 2,24,-1
 515 420 l 1,25,-1
 471 377 l 1,26,27
 466 444 466 444 441.5 488.5 c 128,-1,28
 417 533 417 533 373.5 556 c 128,-1,29
 330 579 330 579 270 579 c 0,30,31
 235 579 235 579 200.5 570 c 128,-1,32
 166 561 166 561 135 544 c 0,33,34
 109 530 109 530 88 533.5 c 128,-1,35
 67 537 67 537 53.5 552 c 128,-1,36
 40 567 40 567 36.5 587.5 c 128,-1,37
 33 608 33 608 42 628 c 128,-1,38
 51 648 51 648 74 661 c 0,39,40
 119 688 119 688 172.5 702 c 128,-1,41
 226 716 226 716 278 716 c 0,42,43
 390 716 390 716 469.5 670.5 c 128,-1,44
 549 625 549 625 591.5 544 c 128,-1,45
 634 463 634 463 634 353 c 0,46,47
 634 270 634 270 609 203 c 128,-1,48
 584 136 584 136 537.5 88.5 c 128,-1,49
 491 41 491 41 424 15 c 128,-1,50
 357 -11 357 -11 271 -11 c 0,0,1
EndSplineSet
EndChar

StartChar: uni040B
Encoding: 1035 1035 580
Width: 876
GlyphClass: 1
Flags: W
LayerCount: 2
Fore
SplineSet
317 -9 m 256,0,1
 279 -9 279 -9 259 12 c 128,-1,2
 239 33 239 33 239 71 c 2,3,-1
 239 577 l 1,4,-1
 62 577 l 2,5,6
 31 577 31 577 14 594 c 128,-1,7
 -3 611 -3 611 -3 641 c 0,8,9
 -3 672 -3 672 14 688.5 c 128,-1,10
 31 705 31 705 62 705 c 2,11,-1
 571 705 l 2,12,13
 602 705 602 705 619 688.5 c 128,-1,14
 636 672 636 672 636 641 c 0,15,16
 636 611 636 611 619 594 c 128,-1,17
 602 577 602 577 571 577 c 2,18,-1
 394 577 l 1,19,-1
 394 421 l 1,20,21
 419 433 419 433 458 439.5 c 128,-1,22
 497 446 497 446 536 446 c 0,23,24
 629 446 629 446 694 413 c 128,-1,25
 759 380 759 380 793 314 c 128,-1,26
 827 248 827 248 827 146 c 2,27,-1
 827 71 l 2,28,29
 827 33 827 33 806.5 12 c 128,-1,30
 786 -9 786 -9 749 -9 c 0,31,32
 711 -9 711 -9 691.5 12 c 128,-1,33
 672 33 672 33 672 71 c 2,34,-1
 672 140 l 2,35,36
 672 233 672 233 632.5 273.5 c 128,-1,37
 593 314 593 314 516 314 c 0,38,39
 485 314 485 314 453.5 308.5 c 128,-1,40
 422 303 422 303 394 289 c 1,41,-1
 394 71 l 2,42,43
 394 33 394 33 374.5 12 c 128,-1,44
 355 -9 355 -9 317 -9 c 256,0,1
EndSplineSet
EndChar

StartChar: uni042E
Encoding: 1070 1070 581
Width: 1067
GlyphClass: 1
Flags: W
AnchorPoint: "Anchor-0" 545 674 basechar 0
LayerCount: 2
Fore
SplineSet
677 -11 m 0,0,1
 585 -11 585 -11 514.5 26.5 c 128,-1,2
 444 64 444 64 400 132 c 128,-1,3
 356 200 356 200 344 293 c 1,4,-1
 226 293 l 1,5,-1
 226 71 l 2,6,7
 226 33 226 33 206.5 12 c 128,-1,8
 187 -9 187 -9 149 -9 c 256,9,10
 111 -9 111 -9 91 12 c 128,-1,11
 71 33 71 33 71 71 c 2,12,-1
 71 634 l 2,13,14
 71 672 71 672 91 693 c 128,-1,15
 111 714 111 714 149 714 c 0,16,17
 186 714 186 714 206 693 c 128,-1,18
 226 672 226 672 226 634 c 2,19,-1
 226 422 l 1,20,-1
 345 422 l 1,21,22
 358 512 358 512 402 578 c 128,-1,23
 446 644 446 644 516 680 c 128,-1,24
 586 716 586 716 677 716 c 0,25,26
 781 716 781 716 857 671 c 128,-1,27
 933 626 933 626 975 544.5 c 128,-1,28
 1017 463 1017 463 1017 353 c 0,29,30
 1017 270 1017 270 992.5 203 c 128,-1,31
 968 136 968 136 923.5 88.5 c 128,-1,32
 879 41 879 41 816.5 15 c 128,-1,33
 754 -11 754 -11 677 -11 c 0,0,1
678 121 m 0,34,35
 734 121 734 121 773.5 148.5 c 128,-1,36
 813 176 813 176 834 228.5 c 128,-1,37
 855 281 855 281 855 353 c 0,38,39
 855 463 855 463 808.5 523.5 c 128,-1,40
 762 584 762 584 678 584 c 0,41,42
 622 584 622 584 582 557 c 128,-1,43
 542 530 542 530 521.5 478 c 128,-1,44
 501 426 501 426 501 353 c 0,45,46
 501 244 501 244 547.5 182.5 c 128,-1,47
 594 121 594 121 678 121 c 0,34,35
EndSplineSet
EndChar

StartChar: uni042F
Encoding: 1071 1071 582
Width: 699
GlyphClass: 1
Flags: W
AnchorPoint: "Anchor-0" 365 688 basechar 0
LayerCount: 2
Fore
SplineSet
551 -9 m 0,0,1
 514 -9 514 -9 493.5 12 c 128,-1,2
 473 33 473 33 473 71 c 2,3,-1
 473 273 l 1,4,-1
 407 273 l 2,5,6
 387 273 387 273 370.5 268.5 c 128,-1,7
 354 264 354 264 341.5 254 c 128,-1,8
 329 244 329 244 319 225 c 2,9,-1
 217 38 l 2,10,11
 201 9 201 9 178 -1 c 128,-1,12
 155 -11 155 -11 132 -7 c 128,-1,13
 109 -3 109 -3 92 13 c 128,-1,14
 75 29 75 29 71 52.5 c 128,-1,15
 67 76 67 76 82 105 c 2,16,-1
 139 209 l 2,17,18
 160 249 160 249 192.5 270.5 c 128,-1,19
 225 292 225 292 267 292 c 2,20,-1
 305 292 l 1,21,-1
 306 275 l 1,22,23
 188 275 188 275 124 332 c 128,-1,24
 60 389 60 389 60 489 c 0,25,26
 60 557 60 557 88.5 605 c 128,-1,27
 117 653 117 653 172 679 c 128,-1,28
 227 705 227 705 306 705 c 2,29,-1
 547 705 l 2,30,31
 587 705 587 705 608 684 c 128,-1,32
 629 663 629 663 629 624 c 2,33,-1
 629 71 l 2,34,35
 629 33 629 33 609 12 c 128,-1,36
 589 -9 589 -9 551 -9 c 0,0,1
333 385 m 2,37,-1
 473 385 l 1,38,-1
 473 584 l 1,39,-1
 333 584 l 2,40,41
 272 584 272 584 240.5 559 c 128,-1,42
 209 534 209 534 209 485 c 0,43,44
 209 435 209 435 240.5 410 c 128,-1,45
 272 385 272 385 333 385 c 2,37,-1
EndSplineSet
EndChar

StartChar: uni0402
Encoding: 1026 1026 583
Width: 887
GlyphClass: 1
Flags: W
LayerCount: 2
Fore
SplineSet
597 -191 m 0,0,1
 580 -191 580 -191 555.5 -188.5 c 128,-1,2
 531 -186 531 -186 513 -182 c 0,3,4
 489 -176 489 -176 477.5 -161 c 128,-1,5
 466 -146 466 -146 464.5 -128.5 c 128,-1,6
 463 -111 463 -111 470 -95 c 128,-1,7
 477 -79 477 -79 492 -69.5 c 128,-1,8
 507 -60 507 -60 528 -64 c 0,9,10
 541 -67 541 -67 552.5 -68 c 128,-1,11
 564 -69 564 -69 579 -69 c 0,12,13
 626 -69 626 -69 654 -36 c 128,-1,14
 682 -3 682 -3 682 59 c 2,15,-1
 682 140 l 2,16,17
 682 233 682 233 638 273.5 c 128,-1,18
 594 314 594 314 513 314 c 0,19,20
 481 314 481 314 450.5 308 c 128,-1,21
 420 302 420 302 394 289 c 1,22,-1
 394 71 l 2,23,24
 394 33 394 33 374.5 12 c 128,-1,25
 355 -9 355 -9 317 -9 c 256,26,27
 279 -9 279 -9 259 12 c 128,-1,28
 239 33 239 33 239 71 c 2,29,-1
 239 577 l 1,30,-1
 62 577 l 2,31,32
 31 577 31 577 14 594 c 128,-1,33
 -3 611 -3 611 -3 641 c 0,34,35
 -3 672 -3 672 14 688.5 c 128,-1,36
 31 705 31 705 62 705 c 2,37,-1
 571 705 l 2,38,39
 602 705 602 705 619 688.5 c 128,-1,40
 636 672 636 672 636 641 c 0,41,42
 636 611 636 611 619 594 c 128,-1,43
 602 577 602 577 571 577 c 2,44,-1
 394 577 l 1,45,-1
 394 421 l 1,46,47
 417 432 417 432 455 439 c 128,-1,48
 493 446 493 446 531 446 c 0,49,50
 605 446 605 446 661.5 427.5 c 128,-1,51
 718 409 718 409 757.5 372 c 128,-1,52
 797 335 797 335 817 278.5 c 128,-1,53
 837 222 837 222 837 146 c 2,54,-1
 837 65 l 2,55,56
 837 -16 837 -16 807 -73.5 c 128,-1,57
 777 -131 777 -131 723 -161 c 128,-1,58
 669 -191 669 -191 597 -191 c 0,0,1
EndSplineSet
EndChar

StartChar: uni0462
Encoding: 1122 1122 584
Width: 755
GlyphClass: 1
Flags: W
LayerCount: 2
Fore
SplineSet
233 0 m 2,0,1
 193 0 193 0 172 21 c 128,-1,2
 151 42 151 42 151 81 c 2,3,-1
 151 515 l 1,4,-1
 29 515 l 2,5,6
 1 515 1 515 -14 529.5 c 128,-1,7
 -29 544 -29 544 -29 570 c 0,8,9
 -29 625 -29 625 29 625 c 2,10,-1
 192 625 l 1,11,-1
 151 555 l 1,12,-1
 151 634 l 2,13,14
 151 672 151 672 171 693 c 128,-1,15
 191 714 191 714 226 714 c 0,16,17
 262 714 262 714 281.5 693 c 128,-1,18
 301 672 301 672 301 634 c 2,19,-1
 301 555 l 1,20,-1
 260 625 l 1,21,-1
 487 625 l 2,22,23
 515 625 515 625 529.5 611 c 128,-1,24
 544 597 544 597 544 570 c 0,25,26
 544 515 544 515 487 515 c 2,27,-1
 301 515 l 1,28,-1
 301 421 l 1,29,-1
 479 421 l 2,30,31
 593 421 593 421 658 367 c 128,-1,32
 723 313 723 313 723 211 c 256,33,34
 723 109 723 109 658 54.5 c 128,-1,35
 593 0 593 0 479 0 c 2,36,-1
 233 0 l 2,0,1
300 120 m 1,37,-1
 459 120 l 2,38,39
 518 120 518 120 546.5 142.5 c 128,-1,40
 575 165 575 165 575 211 c 256,41,42
 575 257 575 257 546.5 279 c 128,-1,43
 518 301 518 301 459 301 c 2,44,-1
 300 301 l 1,45,-1
 300 120 l 1,37,-1
EndSplineSet
EndChar

StartChar: uni046A
Encoding: 1130 1130 585
Width: 1041
GlyphClass: 1
Flags: W
LayerCount: 2
Fore
SplineSet
520 -9 m 0,0,1
 483 -9 483 -9 463 12 c 128,-1,2
 443 33 443 33 443 71 c 2,3,-1
 443 286 l 1,4,-1
 390 286 l 2,5,6
 338 286 338 286 309.5 265 c 128,-1,7
 281 244 281 244 261 200 c 2,8,-1
 187 41 l 2,9,10
 174 13 174 13 151.5 1.5 c 128,-1,11
 129 -10 129 -10 105.5 -7.5 c 128,-1,12
 82 -5 82 -5 63.5 9 c 128,-1,13
 45 23 45 23 39.5 47 c 128,-1,14
 34 71 34 71 49 102 c 2,15,-1
 126 260 l 2,16,17
 150 308 150 308 185.5 342 c 128,-1,18
 221 376 221 376 268.5 394 c 128,-1,19
 316 412 316 412 375 412 c 2,20,-1
 408 412 l 1,21,-1
 406 377 l 1,22,-1
 196 616 l 2,23,24
 178 637 178 637 176.5 657.5 c 128,-1,25
 175 678 175 678 191.5 691.5 c 128,-1,26
 208 705 208 705 242 705 c 2,27,-1
 799 705 l 2,28,29
 833 705 833 705 849 691.5 c 128,-1,30
 865 678 865 678 864 657.5 c 128,-1,31
 863 637 863 637 844 616 c 2,32,-1
 633 377 l 1,33,-1
 631 412 l 1,34,-1
 664 412 l 2,35,36
 724 412 724 412 771.5 394 c 128,-1,37
 819 376 819 376 855 342 c 128,-1,38
 891 308 891 308 914 260 c 2,39,-1
 991 102 l 2,40,41
 1006 70 1006 70 1000.5 46.5 c 128,-1,42
 995 23 995 23 976.5 8.5 c 128,-1,43
 958 -6 958 -6 934.5 -8 c 128,-1,44
 911 -10 911 -10 888.5 1.5 c 128,-1,45
 866 13 866 13 853 41 c 2,46,-1
 779 200 l 2,47,48
 759 244 759 244 730.5 265 c 128,-1,49
 702 286 702 286 650 286 c 2,50,-1
 598 286 l 1,51,-1
 598 71 l 2,52,53
 598 33 598 33 578.5 12 c 128,-1,54
 559 -9 559 -9 520 -9 c 0,0,1
519 411 m 1,55,-1
 521 411 l 1,56,-1
 712 636 l 1,57,-1
 712 601 l 1,58,-1
 328 601 l 1,59,-1
 328 636 l 1,60,-1
 519 411 l 1,55,-1
EndSplineSet
EndChar

StartChar: uni0474
Encoding: 1140 1140 587
Width: 786
GlyphClass: 1
Flags: W
LayerCount: 2
Fore
SplineSet
364 -9 m 0,0,1
 332 -9 332 -9 311.5 5.5 c 128,-1,2
 291 20 291 20 278 50 c 2,3,-1
 26 610 l 2,4,5
 12 640 12 640 18 663.5 c 128,-1,6
 24 687 24 687 43 700.5 c 128,-1,7
 62 714 62 714 89 714 c 0,8,9
 123 714 123 714 141 698.5 c 128,-1,10
 159 683 159 683 171 653 c 2,11,-1
 391 142 l 1,12,-1
 342 142 l 1,13,-1
 492 507 l 2,14,15
 520 574 520 574 551 618 c 128,-1,16
 582 662 582 662 624 685 c 128,-1,17
 666 708 666 708 725 712 c 0,18,19
 755 715 755 715 773 704 c 128,-1,20
 791 693 791 693 798 675 c 128,-1,21
 805 657 805 657 801 637.5 c 128,-1,22
 797 618 797 618 783 603 c 128,-1,23
 769 588 769 588 744 583 c 0,24,25
 715 579 715 579 694.5 563 c 128,-1,26
 674 547 674 547 656 518 c 128,-1,27
 638 489 638 489 618 442 c 2,28,-1
 449 50 l 2,29,30
 437 21 437 21 417 6 c 128,-1,31
 397 -9 397 -9 364 -9 c 0,0,1
EndSplineSet
EndChar

StartChar: uni0496
Encoding: 1174 1174 588
Width: 1062
GlyphClass: 1
Flags: W
LayerCount: 2
Fore
SplineSet
1018 -178 m 0,0,1
 984 -178 984 -178 966.5 -160 c 128,-1,2
 949 -142 949 -142 949 -109 c 2,3,-1
 949 45 l 1,4,-1
 995 0 l 1,5,-1
 928 0 l 2,6,7
 907 0 907 0 886 9.5 c 128,-1,8
 865 19 865 19 853 44 c 2,9,-1
 781 200 l 2,10,11
 759 247 759 247 728.5 266.5 c 128,-1,12
 698 286 698 286 651 286 c 2,13,-1
 595 286 l 1,14,-1
 595 71 l 2,15,16
 595 33 595 33 576 12 c 128,-1,17
 557 -9 557 -9 521 -9 c 256,18,19
 485 -9 485 -9 466 12 c 128,-1,20
 447 33 447 33 447 71 c 2,21,-1
 447 286 l 1,22,-1
 391 286 l 2,23,24
 343 286 343 286 312.5 266 c 128,-1,25
 282 246 282 246 260 200 c 2,26,-1
 187 41 l 2,27,28
 174 13 174 13 151.5 1.5 c 128,-1,29
 129 -10 129 -10 105.5 -7.5 c 128,-1,30
 82 -5 82 -5 63.5 9 c 128,-1,31
 45 23 45 23 39.5 47 c 128,-1,32
 34 71 34 71 49 102 c 2,33,-1
 124 254 l 2,34,35
 157 324 157 324 203.5 360.5 c 128,-1,36
 250 397 250 397 317 409 c 1,37,-1
 255 366 l 1,38,-1
 102 602 l 2,39,40
 85 629 85 629 87.5 652 c 128,-1,41
 90 675 90 675 105.5 691 c 128,-1,42
 121 707 121 707 143 712 c 128,-1,43
 165 717 165 717 187.5 708 c 128,-1,44
 210 699 210 699 225 674 c 2,45,-1
 396 397 l 1,46,-1
 371 414 l 1,47,-1
 447 414 l 1,48,-1
 447 635 l 2,49,50
 447 673 447 673 466.5 693.5 c 128,-1,51
 486 714 486 714 521 714 c 0,52,53
 557 714 557 714 576 693.5 c 128,-1,54
 595 673 595 673 595 635 c 2,55,-1
 595 414 l 1,56,-1
 672 414 l 1,57,-1
 646 397 l 1,58,-1
 817 674 l 2,59,60
 833 699 833 699 855 708 c 128,-1,61
 877 717 877 717 899 712 c 128,-1,62
 921 707 921 707 936.5 691 c 128,-1,63
 952 675 952 675 954.5 652 c 128,-1,64
 957 629 957 629 940 602 c 2,65,-1
 787 366 l 1,66,-1
 725 409 l 1,67,68
 770 401 770 401 805 382 c 128,-1,69
 840 363 840 363 868 331.5 c 128,-1,70
 896 300 896 300 917 254 c 2,71,-1
 1012 60 l 1,72,-1
 961 123 l 1,73,-1
 1014 123 l 2,74,75
 1048 123 1048 123 1067 104.5 c 128,-1,76
 1086 86 1086 86 1086 52 c 2,77,-1
 1086 -109 l 2,78,79
 1086 -142 1086 -142 1068 -160 c 128,-1,80
 1050 -178 1050 -178 1018 -178 c 0,0,1
EndSplineSet
EndChar

StartChar: uni0498
Encoding: 1176 1176 589
Width: 632
GlyphClass: 2
Flags: W
AnchorPoint: "Anchor-2" 312 0 basechar 0
AnchorPoint: "Anchor-0" 304 705 basechar 0
LayerCount: 2
Fore
SplineSet
311 -178 m 0,0,1
 279 -178 279 -178 262 -160 c 128,-1,2
 245 -142 245 -142 245 -108 c 2,3,-1
 245 76 l 1,4,-1
 377 76 l 1,5,-1
 377 -108 l 2,6,7
 377 -142 377 -142 360.5 -160 c 128,-1,8
 344 -178 344 -178 311 -178 c 0,0,1
299 -11 m 0,9,10
 230 -11 230 -11 171 3.5 c 128,-1,11
 112 18 112 18 66 45 c 0,12,13
 42 58 42 58 33 77 c 128,-1,14
 24 96 24 96 27 114.5 c 128,-1,15
 30 133 30 133 42 147 c 128,-1,16
 54 161 54 161 74 165 c 128,-1,17
 94 169 94 169 119 157 c 0,18,19
 143 144 143 144 169.5 135.5 c 128,-1,20
 196 127 196 127 225.5 123 c 128,-1,21
 255 119 255 119 286 119 c 0,22,23
 337 119 337 119 369 129.5 c 128,-1,24
 401 140 401 140 417 161 c 128,-1,25
 433 182 433 182 433 214 c 0,26,27
 433 256 433 256 405 276.5 c 128,-1,28
 377 297 377 297 317 297 c 2,29,-1
 202 297 l 2,30,31
 171 297 171 297 154.5 312.5 c 128,-1,32
 138 328 138 328 138 358 c 0,33,34
 138 387 138 387 154.5 402.5 c 128,-1,35
 171 418 171 418 202 418 c 2,36,-1
 300 418 l 2,37,38
 358 418 358 418 386 438 c 128,-1,39
 414 458 414 458 414 500 c 0,40,41
 414 526 414 526 400.5 545.5 c 128,-1,42
 387 565 387 565 359.5 576 c 128,-1,43
 332 587 332 587 287 587 c 0,44,45
 249 587 249 587 210 578 c 128,-1,46
 171 569 171 569 138 553 c 0,47,48
 112 540 112 540 92.5 544 c 128,-1,49
 73 548 73 548 60.5 562.5 c 128,-1,50
 48 577 48 577 45.5 596 c 128,-1,51
 43 615 43 615 52 633.5 c 128,-1,52
 61 652 61 652 83 664 c 0,53,54
 131 690 131 690 188 703 c 128,-1,55
 245 716 245 716 306 716 c 0,56,57
 394 716 394 716 451.5 691 c 128,-1,58
 509 666 509 666 538 622.5 c 128,-1,59
 567 579 567 579 567 522 c 0,60,61
 567 459 567 459 530.5 415 c 128,-1,62
 494 371 494 371 432 356 c 1,63,-1
 432 372 l 1,64,65
 504 359 504 359 544.5 314.5 c 128,-1,66
 585 270 585 270 585 199 c 0,67,68
 585 137 585 137 554 89.5 c 128,-1,69
 523 42 523 42 459.5 15.5 c 128,-1,70
 396 -11 396 -11 299 -11 c 0,9,10
EndSplineSet
Substitution2: "'locl' Localized Forms in Cyrillic lookup 17 subtable" uni0498.loclCHU
Substitution2: "'locl' Localized Forms in Cyrillic lookup 16 subtable" uni0498.loclBSH
AlternateSubs2: "'aalt' Access All Alternates lookup 1 subtable" uni0498.loclBSH uni0498.loclCHU
EndChar

StartChar: uni049A
Encoding: 1178 1178 590
Width: 716
GlyphClass: 1
Flags: W
LayerCount: 2
Fore
SplineSet
672 -178 m 0,0,1
 638 -178 638 -178 620.5 -160 c 128,-1,2
 603 -142 603 -142 603 -109 c 2,3,-1
 603 23 l 1,4,-1
 623 0 l 1,5,-1
 582 0 l 2,6,7
 561 0 561 0 540 9.5 c 128,-1,8
 519 19 519 19 507 44 c 2,9,-1
 435 200 l 2,10,11
 413 247 413 247 382.5 266.5 c 128,-1,12
 352 286 352 286 305 286 c 2,13,-1
 226 286 l 1,14,-1
 226 71 l 2,15,16
 226 33 226 33 206.5 12 c 128,-1,17
 187 -9 187 -9 149 -9 c 256,18,19
 111 -9 111 -9 91 12 c 128,-1,20
 71 33 71 33 71 71 c 2,21,-1
 71 635 l 2,22,23
 71 673 71 673 91 693.5 c 128,-1,24
 111 714 111 714 149 714 c 0,25,26
 186 714 186 714 206 693.5 c 128,-1,27
 226 673 226 673 226 635 c 2,28,-1
 226 414 l 1,29,-1
 326 414 l 1,30,-1
 300 397 l 1,31,-1
 471 674 l 2,32,33
 487 699 487 699 509.5 708 c 128,-1,34
 532 717 532 717 553.5 712 c 128,-1,35
 575 707 575 707 590.5 691 c 128,-1,36
 606 675 606 675 608.5 652 c 128,-1,37
 611 629 611 629 594 602 c 2,38,-1
 441 366 l 1,39,-1
 379 409 l 1,40,41
 447 397 447 397 492.5 360 c 128,-1,42
 538 323 538 323 572 254 c 2,43,-1
 666 60 l 1,44,-1
 607 123 l 1,45,-1
 668 123 l 2,46,47
 702 123 702 123 721 104.5 c 128,-1,48
 740 86 740 86 740 52 c 2,49,-1
 740 -109 l 2,50,51
 740 -142 740 -142 722 -160 c 128,-1,52
 704 -178 704 -178 672 -178 c 0,0,1
EndSplineSet
EndChar

StartChar: uni049C
Encoding: 1180 1180 591
Width: 761
GlyphClass: 1
Flags: W
LayerCount: 2
Fore
SplineSet
149 -9 m 256,0,1
 111 -9 111 -9 91 12 c 128,-1,2
 71 33 71 33 71 71 c 2,3,-1
 71 635 l 2,4,5
 71 673 71 673 91 693.5 c 128,-1,6
 111 714 111 714 149 714 c 0,7,8
 186 714 186 714 206 693.5 c 128,-1,9
 226 673 226 673 226 635 c 2,10,-1
 226 413 l 1,11,-1
 277 413 l 1,12,-1
 277 529 l 2,13,14
 277 582 277 582 326 582 c 0,15,16
 350 582 350 582 362.5 568.5 c 128,-1,17
 375 555 375 555 375 529 c 2,18,-1
 375 413 l 1,19,-1
 381 413 l 1,20,-1
 373 409 l 1,21,-1
 536 674 l 2,22,23
 552 699 552 699 574 708 c 128,-1,24
 596 717 596 717 618.5 711.5 c 128,-1,25
 641 706 641 706 656 690.5 c 128,-1,26
 671 675 671 675 673.5 652 c 128,-1,27
 676 629 676 629 659 602 c 2,28,-1
 506 366 l 1,29,-1
 444 409 l 1,30,31
 489 401 489 401 524 382.5 c 128,-1,32
 559 364 559 364 587 333 c 128,-1,33
 615 302 615 302 638 254 c 2,34,-1
 712 102 l 2,35,36
 728 70 728 70 722.5 46.5 c 128,-1,37
 717 23 717 23 698.5 8.5 c 128,-1,38
 680 -6 680 -6 656 -8 c 128,-1,39
 632 -10 632 -10 610 1.5 c 128,-1,40
 588 13 588 13 575 41 c 2,41,-1
 500 200 l 2,42,43
 479 247 479 247 448 268 c 128,-1,44
 417 289 417 289 370 289 c 2,45,-1
 350 289 l 1,46,-1
 375 300 l 1,47,-1
 375 178 l 2,48,49
 375 125 375 125 326 125 c 256,50,51
 277 125 277 125 277 178 c 2,52,-1
 277 289 l 1,53,-1
 226 289 l 1,54,-1
 226 71 l 2,55,56
 226 33 226 33 206.5 12 c 128,-1,57
 187 -9 187 -9 149 -9 c 256,0,1
EndSplineSet
EndChar

StartChar: uni049E
Encoding: 1182 1182 592
Width: 761
GlyphClass: 1
Flags: W
LayerCount: 2
Fore
SplineSet
207 -9 m 0,0,1
 170 -9 170 -9 149.5 12 c 128,-1,2
 129 33 129 33 129 71 c 2,3,-1
 129 520 l 1,4,-1
 37 520 l 2,5,6
 10 520 10 520 -5 534.5 c 128,-1,7
 -20 549 -20 549 -20 574 c 256,8,9
 -20 599 -20 599 -5 613 c 128,-1,10
 10 627 10 627 37 627 c 2,11,-1
 145 627 l 1,12,-1
 129 576 l 1,13,-1
 129 635 l 2,14,15
 129 673 129 673 149.5 693.5 c 128,-1,16
 170 714 170 714 207 714 c 0,17,18
 245 714 245 714 265 693.5 c 128,-1,19
 285 673 285 673 285 635 c 2,20,-1
 285 576 l 1,21,-1
 269 627 l 1,22,-1
 364 627 l 2,23,24
 392 627 392 627 406.5 613 c 128,-1,25
 421 599 421 599 421 574 c 256,26,27
 421 549 421 549 406.5 534.5 c 128,-1,28
 392 520 392 520 364 520 c 2,29,-1
 285 520 l 1,30,-1
 285 414 l 1,31,-1
 407 414 l 1,32,-1
 373 384 l 1,33,-1
 558 674 l 2,34,35
 575 700 575 700 597.5 708.5 c 128,-1,36
 620 717 620 717 642 712 c 128,-1,37
 664 707 664 707 678.5 690.5 c 128,-1,38
 693 674 693 674 695 651.5 c 128,-1,39
 697 629 697 629 680 602 c 2,40,-1
 513 352 l 1,41,-1
 434 409 l 1,42,43
 479 401 479 401 514 382.5 c 128,-1,44
 549 364 549 364 576.5 333 c 128,-1,45
 604 302 604 302 627 254 c 2,46,-1
 701 102 l 2,47,48
 717 71 717 71 711.5 47 c 128,-1,49
 706 23 706 23 687.5 9 c 128,-1,50
 669 -5 669 -5 645 -7.5 c 128,-1,51
 621 -10 621 -10 599 1.5 c 128,-1,52
 577 13 577 13 564 41 c 2,53,-1
 490 200 l 2,54,55
 469 247 469 247 438 266.5 c 128,-1,56
 407 286 407 286 360 286 c 2,57,-1
 285 286 l 1,58,-1
 285 71 l 2,59,60
 285 33 285 33 265.5 12 c 128,-1,61
 246 -9 246 -9 207 -9 c 0,0,1
EndSplineSet
EndChar

StartChar: uni04A0
Encoding: 1184 1184 593
Width: 831
GlyphClass: 1
Flags: W
LayerCount: 2
Fore
SplineSet
284 -9 m 0,0,1
 247 -9 247 -9 227 12 c 128,-1,2
 207 33 207 33 207 71 c 2,3,-1
 207 578 l 1,4,-1
 64 578 l 2,5,6
 32 578 32 578 14.5 594.5 c 128,-1,7
 -3 611 -3 611 -3 641 c 0,8,9
 -3 672 -3 672 14.5 688.5 c 128,-1,10
 32 705 32 705 64 705 c 2,11,-1
 284 705 l 2,12,13
 322 705 322 705 342 685 c 128,-1,14
 362 665 362 665 362 626 c 2,15,-1
 362 414 l 1,16,-1
 462 414 l 1,17,-1
 436 397 l 1,18,-1
 607 674 l 2,19,20
 623 699 623 699 645 708 c 128,-1,21
 667 717 667 717 689 712 c 128,-1,22
 711 707 711 707 726.5 691 c 128,-1,23
 742 675 742 675 744.5 652 c 128,-1,24
 747 629 747 629 730 602 c 2,25,-1
 577 366 l 1,26,-1
 515 409 l 1,27,28
 583 397 583 397 628.5 360 c 128,-1,29
 674 323 674 323 707 254 c 2,30,-1
 782 102 l 2,31,32
 797 71 797 71 792 47 c 128,-1,33
 787 23 787 23 768 9 c 128,-1,34
 749 -5 749 -5 725.5 -7.5 c 128,-1,35
 702 -10 702 -10 679.5 1.5 c 128,-1,36
 657 13 657 13 644 41 c 2,37,-1
 571 200 l 2,38,39
 549 247 549 247 518.5 266.5 c 128,-1,40
 488 286 488 286 441 286 c 2,41,-1
 362 286 l 1,42,-1
 362 71 l 2,43,44
 362 33 362 33 342.5 12 c 128,-1,45
 323 -9 323 -9 284 -9 c 0,0,1
EndSplineSet
EndChar

StartChar: uni04A2
Encoding: 1186 1186 594
Width: 828
GlyphClass: 1
Flags: W
LayerCount: 2
Fore
SplineSet
742 -178 m 0,0,1
 708 -178 708 -178 690.5 -160 c 128,-1,2
 673 -142 673 -142 673 -109 c 2,3,-1
 673 0 l 1,4,-1
 631 0 l 2,5,6
 594 0 594 0 574 21 c 128,-1,7
 554 42 554 42 554 80 c 2,8,-1
 554 293 l 1,9,-1
 226 293 l 1,10,-1
 226 71 l 2,11,12
 226 33 226 33 206.5 12 c 128,-1,13
 187 -9 187 -9 149 -9 c 256,14,15
 111 -9 111 -9 91 12 c 128,-1,16
 71 33 71 33 71 71 c 2,17,-1
 71 634 l 2,18,19
 71 672 71 672 91 693 c 128,-1,20
 111 714 111 714 149 714 c 0,21,22
 186 714 186 714 206 693 c 128,-1,23
 226 672 226 672 226 634 c 2,24,-1
 226 422 l 1,25,-1
 554 422 l 1,26,-1
 554 634 l 2,27,28
 554 672 554 672 574 693 c 128,-1,29
 594 714 594 714 631 714 c 0,30,31
 669 714 669 714 689 693 c 128,-1,32
 709 672 709 672 709 634 c 2,33,-1
 709 59 l 1,34,-1
 648 123 l 1,35,-1
 739 123 l 2,36,37
 772 123 772 123 790.5 104.5 c 128,-1,38
 809 86 809 86 809 55 c 2,39,-1
 809 -109 l 2,40,41
 809 -142 809 -142 791.5 -160 c 128,-1,42
 774 -178 774 -178 742 -178 c 0,0,1
EndSplineSet
EndChar

StartChar: uni04A4
Encoding: 1188 1188 595
Width: 948
GlyphClass: 1
Flags: W
LayerCount: 2
Fore
SplineSet
149 -9 m 256,0,1
 111 -9 111 -9 91 12 c 128,-1,2
 71 33 71 33 71 71 c 2,3,-1
 71 634 l 2,4,5
 71 672 71 672 91 693 c 128,-1,6
 111 714 111 714 149 714 c 0,7,8
 186 714 186 714 206 693 c 128,-1,9
 226 672 226 672 226 634 c 2,10,-1
 226 422 l 1,11,-1
 554 422 l 1,12,-1
 554 625 l 2,13,14
 554 664 554 664 574.5 684.5 c 128,-1,15
 595 705 595 705 634 705 c 2,16,-1
 885 705 l 2,17,18
 917 705 917 705 934 688.5 c 128,-1,19
 951 672 951 672 951 641 c 0,20,21
 951 611 951 611 934 594 c 128,-1,22
 917 577 917 577 885 577 c 2,23,-1
 709 577 l 1,24,-1
 709 71 l 2,25,26
 709 33 709 33 689 12 c 128,-1,27
 669 -9 669 -9 631 -9 c 0,28,29
 594 -9 594 -9 574 12 c 128,-1,30
 554 33 554 33 554 71 c 2,31,-1
 554 293 l 1,32,-1
 226 293 l 1,33,-1
 226 71 l 2,34,35
 226 33 226 33 206.5 12 c 128,-1,36
 187 -9 187 -9 149 -9 c 256,0,1
EndSplineSet
EndChar

StartChar: uni0524
Encoding: 1316 1316 596
Width: 821
GlyphClass: 1
Flags: W
LayerCount: 2
Fore
SplineSet
735 -178 m 256,0,1
 702 -178 702 -178 684 -160 c 128,-1,2
 666 -142 666 -142 666 -109 c 2,3,-1
 666 0 l 1,4,-1
 625 0 l 2,5,6
 587 0 587 0 567 21 c 128,-1,7
 547 42 547 42 547 80 c 2,8,-1
 547 577 l 1,9,-1
 226 577 l 1,10,-1
 226 71 l 2,11,12
 226 33 226 33 206.5 12 c 128,-1,13
 187 -9 187 -9 149 -9 c 256,14,15
 111 -9 111 -9 91 12 c 128,-1,16
 71 33 71 33 71 71 c 2,17,-1
 71 624 l 2,18,19
 71 663 71 663 92 684 c 128,-1,20
 113 705 113 705 152 705 c 2,21,-1
 621 705 l 2,22,23
 660 705 660 705 681 684 c 128,-1,24
 702 663 702 663 702 624 c 2,25,-1
 702 59 l 1,26,-1
 646 123 l 1,27,-1
 732 123 l 2,28,29
 765 123 765 123 783.5 104.5 c 128,-1,30
 802 86 802 86 802 55 c 2,31,-1
 802 -109 l 2,32,33
 802 -142 802 -142 785 -160 c 128,-1,34
 768 -178 768 -178 735 -178 c 256,0,1
EndSplineSet
EndChar

StartChar: uni04A8
Encoding: 1192 1192 597
Width: 862
GlyphClass: 1
Flags: W
LayerCount: 2
Fore
SplineSet
396 -11 m 0,0,1
 289 -11 289 -11 211 33 c 128,-1,2
 133 77 133 77 91.5 157.5 c 128,-1,3
 50 238 50 238 50 347 c 0,4,5
 50 434 50 434 74.5 502.5 c 128,-1,6
 99 571 99 571 144.5 618.5 c 128,-1,7
 190 666 190 666 254 691 c 128,-1,8
 318 716 318 716 396 716 c 0,9,10
 401 716 401 716 405.5 716 c 128,-1,11
 410 716 410 716 419 715 c 0,12,13
 447 714 447 714 462 697 c 128,-1,14
 477 680 477 680 476 653 c 0,15,16
 476 631 476 631 465.5 617.5 c 128,-1,17
 455 604 455 604 440.5 598 c 128,-1,18
 426 592 426 592 412 591 c 0,19,20
 404 591 404 591 394 590.5 c 128,-1,21
 384 590 384 590 377 589 c 0,22,23
 322 583 322 583 285 554 c 128,-1,24
 248 525 248 525 229 474.5 c 128,-1,25
 210 424 210 424 210 353 c 0,26,27
 210 271 210 271 232.5 216 c 128,-1,28
 255 161 255 161 300 133.5 c 128,-1,29
 345 106 345 106 411 106 c 0,30,31
 469 106 469 106 511 118.5 c 128,-1,32
 553 131 553 131 580.5 157 c 128,-1,33
 608 183 608 183 621 222.5 c 128,-1,34
 634 262 634 262 634 315 c 0,35,36
 634 374 634 374 614 403.5 c 128,-1,37
 594 433 594 433 559 433 c 0,38,39
 537 433 537 433 520 419.5 c 128,-1,40
 503 406 503 406 494 380 c 128,-1,41
 485 354 485 354 485 315 c 0,42,43
 485 242 485 242 508 196 c 128,-1,44
 531 150 531 150 580.5 128 c 128,-1,45
 630 106 630 106 708 106 c 0,46,47
 730 106 730 106 755 109.5 c 128,-1,48
 780 113 780 113 802 121 c 0,49,50
 826 130 826 130 843 123 c 128,-1,51
 860 116 860 116 869 101 c 128,-1,52
 878 86 878 86 878 67.5 c 128,-1,53
 878 49 878 49 868.5 33 c 128,-1,54
 859 17 859 17 838 10 c 0,55,56
 810 -1 810 -1 775.5 -6 c 128,-1,57
 741 -11 741 -11 703 -11 c 0,58,59
 630 -11 630 -11 565 13 c 128,-1,60
 500 37 500 37 449.5 81.5 c 128,-1,61
 399 126 399 126 370.5 186 c 128,-1,62
 342 246 342 246 342 318 c 0,63,64
 342 387 342 387 368 439.5 c 128,-1,65
 394 492 394 492 442.5 522 c 128,-1,66
 491 552 491 552 559 552 c 0,67,68
 628 552 628 552 676.5 522 c 128,-1,69
 725 492 725 492 751 439.5 c 128,-1,70
 777 387 777 387 777 318 c 0,71,72
 777 245 777 245 747.5 184.5 c 128,-1,73
 718 124 718 124 666 80 c 128,-1,74
 614 36 614 36 544.5 12.5 c 128,-1,75
 475 -11 475 -11 396 -11 c 0,0,1
EndSplineSet
EndChar

StartChar: uni04AA
Encoding: 1194 1194 598
Width: 684
GlyphClass: 2
Flags: W
AnchorPoint: "Anchor-2" 401 0 basechar 0
AnchorPoint: "Anchor-0" 395 705 basechar 0
LayerCount: 2
Fore
SplineSet
395 -178 m 0,0,1
 362 -178 362 -178 345 -160 c 128,-1,2
 328 -142 328 -142 328 -108 c 2,3,-1
 328 76 l 1,4,-1
 461 76 l 1,5,-1
 461 -108 l 2,6,7
 461 -142 461 -142 444 -160 c 128,-1,8
 427 -178 427 -178 395 -178 c 0,0,1
413 -11 m 0,9,10
 299 -11 299 -11 218 34 c 128,-1,11
 137 79 137 79 93.5 160.5 c 128,-1,12
 50 242 50 242 50 353 c 0,13,14
 50 436 50 436 74.5 502.5 c 128,-1,15
 99 569 99 569 146 616.5 c 128,-1,16
 193 664 193 664 260.5 690 c 128,-1,17
 328 716 328 716 413 716 c 0,18,19
 463 716 463 716 514.5 703.5 c 128,-1,20
 566 691 566 691 604 668 c 0,21,22
 629 654 629 654 638 633 c 128,-1,23
 647 612 647 612 643.5 591 c 128,-1,24
 640 570 640 570 626.5 555 c 128,-1,25
 613 540 613 540 593 536 c 128,-1,26
 573 532 573 532 548 545 c 0,27,28
 518 563 518 563 485 571 c 128,-1,29
 452 579 452 579 418 579 c 0,30,31
 351 579 351 579 305.5 552.5 c 128,-1,32
 260 526 260 526 237 476 c 128,-1,33
 214 426 214 426 214 353 c 0,34,35
 214 281 214 281 237 230 c 128,-1,36
 260 179 260 179 305.5 152.5 c 128,-1,37
 351 126 351 126 418 126 c 0,38,39
 450 126 450 126 483.5 134 c 128,-1,40
 517 142 517 142 548 159 c 0,41,42
 574 172 574 172 594.5 168.5 c 128,-1,43
 615 165 615 165 628.5 150.5 c 128,-1,44
 642 136 642 136 645.5 116 c 128,-1,45
 649 96 649 96 641 76 c 128,-1,46
 633 56 633 56 611 42 c 0,47,48
 574 17 574 17 520 3 c 128,-1,49
 466 -11 466 -11 413 -11 c 0,9,10
EndSplineSet
Substitution2: "'locl' Localized Forms in Cyrillic lookup 17 subtable" uni04AA.loclCHU
Substitution2: "'locl' Localized Forms in Cyrillic lookup 16 subtable" uni04AA.loclBSH
AlternateSubs2: "'aalt' Access All Alternates lookup 1 subtable" uni04AA.loclBSH uni04AA.loclCHU
EndChar

StartChar: uni04AC
Encoding: 1196 1196 599
Width: 609
GlyphClass: 1
Flags: W
LayerCount: 2
Fore
SplineSet
414 -178 m 0,0,1
 381 -178 381 -178 363.5 -160.5 c 128,-1,2
 346 -143 346 -143 346 -109 c 2,3,-1
 346 0 l 1,4,-1
 308 0 l 2,5,6
 268 0 268 0 247.5 21 c 128,-1,7
 227 42 227 42 227 81 c 2,8,-1
 227 577 l 1,9,-1
 54 577 l 2,10,11
 22 577 22 577 5 594 c 128,-1,12
 -12 611 -12 611 -12 641 c 0,13,14
 -12 672 -12 672 5 688.5 c 128,-1,15
 22 705 22 705 54 705 c 2,16,-1
 558 705 l 2,17,18
 590 705 590 705 607 688.5 c 128,-1,19
 624 672 624 672 624 641 c 0,20,21
 624 611 624 611 607 594 c 128,-1,22
 590 577 590 577 558 577 c 2,23,-1
 382 577 l 1,24,-1
 382 58 l 1,25,-1
 312 125 l 1,26,-1
 412 125 l 2,27,28
 446 125 446 125 464 108.5 c 128,-1,29
 482 92 482 92 482 57 c 2,30,-1
 482 -109 l 2,31,32
 482 -178 482 -178 414 -178 c 0,0,1
EndSplineSet
EndChar

StartChar: uni04B2
Encoding: 1202 1202 602
Width: 706
GlyphClass: 1
Flags: W
LayerCount: 2
Fore
SplineSet
657 -178 m 0,0,1
 624 -178 624 -178 606.5 -160 c 128,-1,2
 589 -142 589 -142 589 -109 c 2,3,-1
 589 19 l 1,4,-1
 610 0 l 1,5,-1
 570 0 l 2,6,7
 546 0 546 0 527.5 7.5 c 128,-1,8
 509 15 509 15 489 42 c 2,9,-1
 317 279 l 1,10,-1
 368 279 l 1,11,-1
 196 42 l 2,12,13
 177 15 177 15 158 3 c 128,-1,14
 139 -9 139 -9 115 -9 c 0,15,16
 85 -9 85 -9 65.5 7.5 c 128,-1,17
 46 24 46 24 43 48.5 c 128,-1,18
 40 73 40 73 59 99 c 2,19,-1
 280 392 l 1,20,-1
 280 323 l 1,21,-1
 68 605 l 2,22,23
 49 632 49 632 51.5 656.5 c 128,-1,24
 54 681 54 681 73.5 697.5 c 128,-1,25
 93 714 93 714 122 714 c 0,26,27
 147 714 147 714 165.5 702 c 128,-1,28
 184 690 184 690 203 664 c 2,29,-1
 368 436 l 1,30,-1
 318 436 l 1,31,-1
 482 664 l 2,32,33
 501 691 501 691 520 702.5 c 128,-1,34
 539 714 539 714 564 714 c 0,35,36
 594 714 594 714 613.5 698 c 128,-1,37
 633 682 633 682 635.5 657.5 c 128,-1,38
 638 633 638 633 618 605 c 2,39,-1
 405 323 l 1,40,-1
 405 392 l 1,41,-1
 650 67 l 1,42,-1
 571 123 l 1,43,-1
 653 123 l 2,44,45
 687 123 687 123 706 104.5 c 128,-1,46
 725 86 725 86 725 52 c 2,47,-1
 725 -109 l 2,48,49
 725 -142 725 -142 707 -160 c 128,-1,50
 689 -178 689 -178 657 -178 c 0,0,1
EndSplineSet
EndChar

StartChar: uni04B4
Encoding: 1204 1204 603
Width: 960
GlyphClass: 1
Flags: W
LayerCount: 2
Fore
SplineSet
871 -175 m 0,0,1
 837 -175 837 -175 819.5 -157.5 c 128,-1,2
 802 -140 802 -140 802 -106 c 2,3,-1
 802 0 l 1,4,-1
 287 0 l 2,5,6
 248 0 248 0 227 21 c 128,-1,7
 206 42 206 42 206 81 c 2,8,-1
 206 577 l 1,9,-1
 62 577 l 2,10,11
 30 577 30 577 13 594 c 128,-1,12
 -4 611 -4 611 -4 641 c 0,13,14
 -4 672 -4 672 13 688.5 c 128,-1,15
 30 705 30 705 62 705 c 2,16,-1
 492 705 l 2,17,18
 524 705 524 705 541 688.5 c 128,-1,19
 558 672 558 672 558 641 c 256,20,21
 558 610 558 610 541 593.5 c 128,-1,22
 524 577 524 577 492 577 c 2,23,-1
 361 577 l 1,24,-1
 361 128 l 1,25,-1
 683 128 l 1,26,-1
 683 628 l 2,27,28
 683 667 683 667 703 687.5 c 128,-1,29
 723 708 723 708 761 708 c 0,30,31
 798 708 798 708 818 687.5 c 128,-1,32
 838 667 838 667 838 628 c 2,33,-1
 838 58 l 1,34,-1
 768 128 l 1,35,-1
 867 128 l 2,36,37
 902 128 902 128 920 110 c 128,-1,38
 938 92 938 92 938 58 c 2,39,-1
 938 -106 l 2,40,41
 938 -175 938 -175 871 -175 c 0,0,1
EndSplineSet
EndChar

StartChar: uni04B6
Encoding: 1206 1206 604
Width: 757
GlyphClass: 1
Flags: W
LayerCount: 2
Fore
SplineSet
483 262 m 1,0,1
 458 251 458 251 419 244 c 128,-1,2
 380 237 380 237 341 237 c 0,3,4
 248 237 248 237 183 270 c 128,-1,5
 118 303 118 303 84 369.5 c 128,-1,6
 50 436 50 436 50 537 c 2,7,-1
 50 634 l 2,8,9
 50 672 50 672 70 693 c 128,-1,10
 90 714 90 714 128 714 c 0,11,12
 165 714 165 714 185 693 c 128,-1,13
 205 672 205 672 205 634 c 2,14,-1
 205 543 l 2,15,16
 205 451 205 451 244 409.5 c 128,-1,17
 283 368 283 368 359 368 c 0,18,19
 390 368 390 368 423 374.5 c 128,-1,20
 456 381 456 381 483 394 c 1,21,-1
 483 634 l 2,22,23
 483 672 483 672 503 693 c 128,-1,24
 523 714 523 714 561 714 c 0,25,26
 598 714 598 714 618 693 c 128,-1,27
 638 672 638 672 638 634 c 2,28,-1
 638 59 l 1,29,-1
 582 123 l 1,30,-1
 668 123 l 2,31,32
 701 123 701 123 719.5 104.5 c 128,-1,33
 738 86 738 86 738 55 c 2,34,-1
 738 -109 l 2,35,36
 738 -142 738 -142 721 -160 c 128,-1,37
 704 -178 704 -178 671 -178 c 256,38,39
 638 -178 638 -178 620 -160 c 128,-1,40
 602 -142 602 -142 602 -109 c 2,41,-1
 602 0 l 1,42,-1
 561 0 l 2,43,44
 523 0 523 0 503 21 c 128,-1,45
 483 42 483 42 483 80 c 2,46,-1
 483 262 l 1,0,1
EndSplineSet
EndChar

StartChar: uni04B8
Encoding: 1208 1208 605
Width: 708
GlyphClass: 1
Flags: W
LayerCount: 2
Fore
SplineSet
561 -9 m 256,0,1
 523 -9 523 -9 503 12 c 128,-1,2
 483 33 483 33 483 71 c 2,3,-1
 483 262 l 1,4,5
 459 251 459 251 428 245 c 128,-1,6
 397 239 397 239 369 238 c 1,7,-1
 398 257 l 1,8,-1
 398 147 l 2,9,10
 398 94 398 94 349 94 c 0,11,12
 325 94 325 94 312 107.5 c 128,-1,13
 299 121 299 121 299 147 c 2,14,-1
 299 257 l 1,15,-1
 322 237 l 1,16,17
 237 240 237 240 176.5 273 c 128,-1,18
 116 306 116 306 83 371 c 128,-1,19
 50 436 50 436 50 537 c 2,20,-1
 50 634 l 2,21,22
 50 672 50 672 70 693 c 128,-1,23
 90 714 90 714 128 714 c 0,24,25
 165 714 165 714 185 693 c 128,-1,26
 205 672 205 672 205 634 c 2,27,-1
 205 543 l 2,28,29
 205 462 205 462 237.5 418.5 c 128,-1,30
 270 375 270 375 335 370 c 1,31,-1
 299 358 l 1,32,-1
 299 485 l 2,33,34
 299 538 299 538 349 538 c 0,35,36
 373 538 373 538 385.5 524.5 c 128,-1,37
 398 511 398 511 398 485 c 2,38,-1
 398 358 l 1,39,-1
 360 368 l 1,40,41
 390 368 390 368 424.5 374.5 c 128,-1,42
 459 381 459 381 483 394 c 1,43,-1
 483 634 l 2,44,45
 483 672 483 672 503 693 c 128,-1,46
 523 714 523 714 561 714 c 0,47,48
 598 714 598 714 618 693 c 128,-1,49
 638 672 638 672 638 634 c 2,50,-1
 638 71 l 2,51,52
 638 33 638 33 618.5 12 c 128,-1,53
 599 -9 599 -9 561 -9 c 256,0,1
EndSplineSet
EndChar

StartChar: uni04BA
Encoding: 1210 1210 606
Width: 708
GlyphClass: 2
Flags: W
LayerCount: 2
Fore
SplineSet
148 -9 m 0,0,1
 111 -9 111 -9 91 12 c 128,-1,2
 71 33 71 33 71 71 c 2,3,-1
 71 634 l 2,4,5
 71 672 71 672 91 693 c 128,-1,6
 111 714 111 714 148 714 c 0,7,8
 186 714 186 714 206 693 c 128,-1,9
 226 672 226 672 226 634 c 2,10,-1
 226 443 l 1,11,12
 251 455 251 455 290 461.5 c 128,-1,13
 329 468 329 468 367 468 c 0,14,15
 461 468 461 468 526 435.5 c 128,-1,16
 591 403 591 403 625 336.5 c 128,-1,17
 659 270 659 270 659 168 c 2,18,-1
 659 71 l 2,19,20
 659 33 659 33 638.5 12 c 128,-1,21
 618 -9 618 -9 581 -9 c 0,22,23
 543 -9 543 -9 523.5 12 c 128,-1,24
 504 33 504 33 504 71 c 2,25,-1
 504 162 l 2,26,27
 504 256 504 256 465 296.5 c 128,-1,28
 426 337 426 337 349 337 c 0,29,30
 318 337 318 337 286 331.5 c 128,-1,31
 254 326 254 326 226 312 c 1,32,-1
 226 71 l 2,33,34
 226 33 226 33 206 12 c 128,-1,35
 186 -9 186 -9 148 -9 c 0,0,1
EndSplineSet
EndChar

StartChar: uni0526
Encoding: 1318 1318 607
Width: 757
GlyphClass: 1
Flags: W
LayerCount: 2
Fore
SplineSet
504 162 m 2,0,1
 504 256 504 256 465 296.5 c 128,-1,2
 426 337 426 337 349 337 c 0,3,4
 318 337 318 337 286 331.5 c 128,-1,5
 254 326 254 326 226 312 c 1,6,-1
 226 71 l 2,7,8
 226 33 226 33 206 12 c 128,-1,9
 186 -9 186 -9 148 -9 c 0,10,11
 111 -9 111 -9 91 12 c 128,-1,12
 71 33 71 33 71 71 c 2,13,-1
 71 634 l 2,14,15
 71 672 71 672 91 693 c 128,-1,16
 111 714 111 714 148 714 c 0,17,18
 186 714 186 714 206 693 c 128,-1,19
 226 672 226 672 226 634 c 2,20,-1
 226 443 l 1,21,22
 251 455 251 455 290 461.5 c 128,-1,23
 329 468 329 468 367 468 c 0,24,25
 461 468 461 468 526 435.5 c 128,-1,26
 591 403 591 403 625 336.5 c 128,-1,27
 659 270 659 270 659 168 c 2,28,-1
 659 59 l 1,29,-1
 603 123 l 1,30,-1
 689 123 l 2,31,32
 722 123 722 123 740.5 104.5 c 128,-1,33
 759 86 759 86 759 55 c 2,34,-1
 759 -109 l 2,35,36
 759 -142 759 -142 741.5 -160 c 128,-1,37
 724 -178 724 -178 692 -178 c 0,38,39
 658 -178 658 -178 640.5 -160 c 128,-1,40
 623 -142 623 -142 623 -109 c 2,41,-1
 623 0 l 1,42,-1
 582 0 l 2,43,44
 544 0 544 0 524 21 c 128,-1,45
 504 42 504 42 504 80 c 2,46,-1
 504 162 l 2,0,1
EndSplineSet
EndChar

StartChar: uni04BC
Encoding: 1212 1212 608
Width: 986
GlyphClass: 2
Flags: W
AnchorPoint: "Anchor-3" 693 0 basechar 0
LayerCount: 2
Fore
SplineSet
634 -11 m 0,0,1
 514 -11 514 -11 426.5 31.5 c 128,-1,2
 339 74 339 74 290.5 153 c 128,-1,3
 242 232 242 232 239 340 c 1,4,-1
 262 291 l 1,5,-1
 212 291 l 2,6,7
 144 291 144 291 99.5 315.5 c 128,-1,8
 55 340 55 340 33 379.5 c 128,-1,9
 11 419 11 419 11 466 c 2,10,-1
 11 483 l 2,11,12
 11 556 11 556 89 556 c 0,13,14
 133 556 133 556 148.5 538.5 c 128,-1,15
 164 521 164 521 164 496 c 0,16,17
 164 486 164 486 164.5 477.5 c 128,-1,18
 165 469 165 469 167 463 c 0,19,20
 172 434 172 434 189 423.5 c 128,-1,21
 206 413 206 413 233 413 c 2,22,-1
 262 413 l 1,23,-1
 239 362 l 1,24,25
 242 441 242 441 267.5 506 c 128,-1,26
 293 571 293 571 340 618 c 128,-1,27
 387 665 387 665 451.5 690.5 c 128,-1,28
 516 716 516 716 595 716 c 0,29,30
 667 716 667 716 722.5 696 c 128,-1,31
 778 676 778 676 818.5 641 c 128,-1,32
 859 606 859 606 885 560.5 c 128,-1,33
 911 515 911 515 923.5 464.5 c 128,-1,34
 936 414 936 414 936 363 c 0,35,36
 936 334 936 334 927 318.5 c 128,-1,37
 918 303 918 303 900 297 c 128,-1,38
 882 291 882 291 854 291 c 2,39,-1
 389 291 l 1,40,-1
 402 342 l 1,41,42
 405 270 405 270 432 220.5 c 128,-1,43
 459 171 459 171 511.5 146 c 128,-1,44
 564 121 564 121 641 121 c 0,45,46
 684 121 684 121 727 129.5 c 128,-1,47
 770 138 770 138 810 159 c 0,48,49
 837 171 837 171 857.5 167 c 128,-1,50
 878 163 878 163 890 147.5 c 128,-1,51
 902 132 902 132 903.5 111.5 c 128,-1,52
 905 91 905 91 894 71 c 128,-1,53
 883 51 883 51 859 39 c 0,54,55
 811 15 811 15 754 2 c 128,-1,56
 697 -11 697 -11 634 -11 c 0,0,1
599 590 m 0,57,58
 537 590 537 590 492.5 563 c 128,-1,59
 448 536 448 536 424.5 483 c 128,-1,60
 401 430 401 430 401 352 c 1,61,-1
 387 413 l 1,62,-1
 819 413 l 1,63,-1
 785 352 l 1,64,65
 785 432 785 432 763.5 485 c 128,-1,66
 742 538 742 538 701 564 c 128,-1,67
 660 590 660 590 599 590 c 0,57,58
EndSplineSet
EndChar

StartChar: uni04C3
Encoding: 1219 1219 612
Width: 718
GlyphClass: 1
Flags: W
LayerCount: 2
Fore
SplineSet
431 -191 m 0,0,1
 414 -191 414 -191 389.5 -188.5 c 128,-1,2
 365 -186 365 -186 346 -183 c 0,3,4
 322 -177 322 -177 310 -163 c 128,-1,5
 298 -149 298 -149 296.5 -130.5 c 128,-1,6
 295 -112 295 -112 302.5 -95.5 c 128,-1,7
 310 -79 310 -79 325 -69.5 c 128,-1,8
 340 -60 340 -60 360 -64 c 0,9,10
 373 -67 373 -67 384.5 -68 c 128,-1,11
 396 -69 396 -69 410 -69 c 0,12,13
 458 -69 458 -69 486 -36 c 128,-1,14
 514 -3 514 -3 514 59 c 2,15,-1
 514 115 l 2,16,17
 514 176 514 176 493.5 216 c 128,-1,18
 473 256 473 256 434.5 275 c 128,-1,19
 396 294 396 294 339 294 c 2,20,-1
 226 294 l 1,21,-1
 226 71 l 2,22,23
 226 33 226 33 206.5 12 c 128,-1,24
 187 -9 187 -9 149 -9 c 256,25,26
 111 -9 111 -9 91 12 c 128,-1,27
 71 33 71 33 71 71 c 2,28,-1
 71 635 l 2,29,30
 71 673 71 673 91 693.5 c 128,-1,31
 111 714 111 714 149 714 c 0,32,33
 186 714 186 714 206 693.5 c 128,-1,34
 226 673 226 673 226 635 c 2,35,-1
 226 422 l 1,36,-1
 345 422 l 1,37,-1
 310 397 l 1,38,-1
 480 674 l 2,39,40
 496 699 496 699 518.5 708 c 128,-1,41
 541 717 541 717 563 712 c 128,-1,42
 585 707 585 707 600.5 691 c 128,-1,43
 616 675 616 675 618 652 c 128,-1,44
 620 629 620 629 603 602 c 2,45,-1
 450 366 l 1,46,-1
 424 416 l 1,47,48
 503 407 503 407 558 371.5 c 128,-1,49
 613 336 613 336 641 273.5 c 128,-1,50
 669 211 669 211 669 121 c 2,51,-1
 669 65 l 2,52,53
 669 -16 669 -16 639.5 -73.5 c 128,-1,54
 610 -131 610 -131 556.5 -161 c 128,-1,55
 503 -191 503 -191 431 -191 c 0,0,1
EndSplineSet
EndChar

StartChar: uni04C5
Encoding: 1221 1221 613
Width: 789
GlyphClass: 1
Flags: W
LayerCount: 2
Fore
SplineSet
725 -133 m 2,0,1
 717 -156 717 -156 700 -167.5 c 128,-1,2
 683 -179 683 -179 663 -179.5 c 128,-1,3
 643 -180 643 -180 627 -171 c 128,-1,4
 611 -162 611 -162 603.5 -143.5 c 128,-1,5
 596 -125 596 -125 605 -99 c 2,6,-1
 643 18 l 1,7,-1
 653 0 l 1,8,-1
 609 0 l 2,9,10
 572 0 572 0 552 17 c 128,-1,11
 532 34 532 34 532 71 c 2,12,-1
 532 577 l 1,13,-1
 314 577 l 1,14,-1
 314 449 l 2,15,16
 314 365 314 365 302 297 c 128,-1,17
 290 229 290 229 267 174.5 c 128,-1,18
 244 120 244 120 210.5 78 c 128,-1,19
 177 36 177 36 134 6 c 0,20,21
 108 -13 108 -13 80.5 -8.5 c 128,-1,22
 53 -4 53 -4 33 22 c 0,23,24
 13 49 13 49 19.5 75.5 c 128,-1,25
 26 102 26 102 52 122 c 0,26,27
 83 145 83 145 105.5 177.5 c 128,-1,28
 128 210 128 210 142.5 254 c 128,-1,29
 157 298 157 298 164 356.5 c 128,-1,30
 171 415 171 415 171 489 c 2,31,-1
 171 624 l 2,32,33
 171 663 171 663 192 684 c 128,-1,34
 213 705 213 705 253 705 c 2,35,-1
 606 705 l 2,36,37
 646 705 646 705 667 684 c 128,-1,38
 688 663 688 663 688 624 c 2,39,-1
 688 72 l 1,40,-1
 654 123 l 1,41,-1
 715 123 l 2,42,43
 759 123 759 123 777 99.5 c 128,-1,44
 795 76 795 76 782 34 c 2,45,-1
 725 -133 l 2,0,1
EndSplineSet
EndChar

StartChar: uni04C7
Encoding: 1223 1223 614
Width: 780
GlyphClass: 1
Flags: W
LayerCount: 2
Fore
SplineSet
501 -189 m 0,0,1
 468 -190 468 -190 451.5 -174.5 c 128,-1,2
 435 -159 435 -159 433.5 -138 c 128,-1,3
 432 -117 432 -117 443.5 -100 c 128,-1,4
 455 -83 455 -83 478 -80 c 0,5,6
 516 -77 516 -77 535 -59 c 128,-1,7
 554 -41 554 -41 554 -2 c 2,8,-1
 554 293 l 1,9,-1
 226 293 l 1,10,-1
 226 71 l 2,11,12
 226 33 226 33 206.5 12 c 128,-1,13
 187 -9 187 -9 149 -9 c 256,14,15
 111 -9 111 -9 91 12 c 128,-1,16
 71 33 71 33 71 71 c 2,17,-1
 71 634 l 2,18,19
 71 672 71 672 91 693 c 128,-1,20
 111 714 111 714 149 714 c 0,21,22
 186 714 186 714 206 693 c 128,-1,23
 226 672 226 672 226 634 c 2,24,-1
 226 422 l 1,25,-1
 554 422 l 1,26,-1
 554 634 l 2,27,28
 554 672 554 672 574 693 c 128,-1,29
 594 714 594 714 631 714 c 0,30,31
 669 714 669 714 689 693 c 128,-1,32
 709 672 709 672 709 634 c 2,33,-1
 709 9 l 2,34,35
 709 -58 709 -58 686 -100.5 c 128,-1,36
 663 -143 663 -143 616.5 -164 c 128,-1,37
 570 -185 570 -185 501 -189 c 0,0,1
EndSplineSet
EndChar

StartChar: uni04C9
Encoding: 1225 1225 615
Width: 810
GlyphClass: 1
Flags: W
LayerCount: 2
Fore
SplineSet
747 -133 m 2,0,1
 739 -156 739 -156 721.5 -167.5 c 128,-1,2
 704 -179 704 -179 684.5 -179.5 c 128,-1,3
 665 -180 665 -180 648.5 -171 c 128,-1,4
 632 -162 632 -162 624.5 -143.5 c 128,-1,5
 617 -125 617 -125 626 -99 c 2,6,-1
 665 18 l 1,7,-1
 675 0 l 1,8,-1
 630 0 l 2,9,10
 593 0 593 0 573.5 17 c 128,-1,11
 554 34 554 34 554 71 c 2,12,-1
 554 293 l 1,13,-1
 226 293 l 1,14,-1
 226 71 l 2,15,16
 226 33 226 33 206.5 12 c 128,-1,17
 187 -9 187 -9 149 -9 c 256,18,19
 111 -9 111 -9 91 12 c 128,-1,20
 71 33 71 33 71 71 c 2,21,-1
 71 634 l 2,22,23
 71 672 71 672 91 693 c 128,-1,24
 111 714 111 714 149 714 c 0,25,26
 186 714 186 714 206 693 c 128,-1,27
 226 672 226 672 226 634 c 2,28,-1
 226 422 l 1,29,-1
 554 422 l 1,30,-1
 554 634 l 2,31,32
 554 672 554 672 574 693 c 128,-1,33
 594 714 594 714 631 714 c 0,34,35
 669 714 669 714 689 693 c 128,-1,36
 709 672 709 672 709 634 c 2,37,-1
 709 52 l 1,38,-1
 655 123 l 1,39,-1
 737 123 l 2,40,41
 780 123 780 123 798 99.5 c 128,-1,42
 816 76 816 76 803 34 c 2,43,-1
 747 -133 l 2,0,1
EndSplineSet
EndChar

StartChar: uni04CB
Encoding: 1227 1227 616
Width: 729
GlyphClass: 1
Flags: W
LayerCount: 2
Fore
SplineSet
450 -178 m 0,0,1
 418 -178 418 -178 400.5 -160 c 128,-1,2
 383 -142 383 -142 383 -109 c 2,3,-1
 383 55 l 2,4,5
 383 86 383 86 402 104.5 c 128,-1,6
 421 123 421 123 453 123 c 2,7,-1
 539 123 l 1,8,-1
 483 59 l 1,9,-1
 483 262 l 1,10,11
 458 251 458 251 419 244 c 128,-1,12
 380 237 380 237 341 237 c 0,13,14
 248 237 248 237 183 270 c 128,-1,15
 118 303 118 303 84 369.5 c 128,-1,16
 50 436 50 436 50 537 c 2,17,-1
 50 634 l 2,18,19
 50 672 50 672 70 693 c 128,-1,20
 90 714 90 714 128 714 c 0,21,22
 165 714 165 714 185 693 c 128,-1,23
 205 672 205 672 205 634 c 2,24,-1
 205 543 l 2,25,26
 205 451 205 451 244 409.5 c 128,-1,27
 283 368 283 368 359 368 c 0,28,29
 390 368 390 368 423 374.5 c 128,-1,30
 456 381 456 381 483 394 c 1,31,-1
 483 634 l 2,32,33
 483 672 483 672 503 693 c 128,-1,34
 523 714 523 714 561 714 c 0,35,36
 598 714 598 714 618 693 c 128,-1,37
 638 672 638 672 638 634 c 2,38,-1
 638 80 l 2,39,40
 638 42 638 42 618 21 c 128,-1,41
 598 0 598 0 560 0 c 2,42,-1
 519 0 l 1,43,-1
 519 -109 l 2,44,45
 519 -142 519 -142 501.5 -160 c 128,-1,46
 484 -178 484 -178 450 -178 c 0,0,1
EndSplineSet
EndChar

StartChar: uni04CD
Encoding: 1229 1229 617
Width: 907
GlyphClass: 1
Flags: W
LayerCount: 2
Fore
SplineSet
842 -133 m 2,0,1
 834 -156 834 -156 816.5 -167.5 c 128,-1,2
 799 -179 799 -179 779 -179.5 c 128,-1,3
 759 -180 759 -180 743 -171 c 128,-1,4
 727 -162 727 -162 719.5 -143.5 c 128,-1,5
 712 -125 712 -125 721 -99 c 2,6,-1
 760 18 l 1,7,-1
 776 0 l 1,8,-1
 740 0 l 2,9,10
 703 0 703 0 683 17 c 128,-1,11
 663 34 663 34 663 71 c 2,12,-1
 663 468 l 1,13,-1
 685 468 l 1,14,-1
 499 135 l 2,15,16
 487 116 487 116 473.5 106.5 c 128,-1,17
 460 97 460 97 438 97 c 256,18,19
 416 97 416 97 402 107 c 128,-1,20
 388 117 388 117 377 135 c 2,21,-1
 189 469 l 1,22,-1
 213 469 l 1,23,-1
 213 63 l 2,24,25
 213 29 213 29 195.5 10 c 128,-1,26
 178 -9 178 -9 143 -9 c 0,27,28
 109 -9 109 -9 91 10 c 128,-1,29
 73 29 73 29 73 63 c 2,30,-1
 73 642 l 2,31,32
 73 676 73 676 92.5 695 c 128,-1,33
 112 714 112 714 146 714 c 0,34,35
 176 714 176 714 193.5 702.5 c 128,-1,36
 211 691 211 691 226 663 c 2,37,-1
 457 241 l 1,38,-1
 423 241 l 1,39,-1
 654 663 l 2,40,41
 669 691 669 691 686.5 702.5 c 128,-1,42
 704 714 704 714 733 714 c 0,43,44
 767 714 767 714 785.5 695 c 128,-1,45
 804 676 804 676 804 642 c 2,46,-1
 804 72 l 1,47,-1
 770 123 l 1,48,-1
 832 123 l 2,49,50
 875 123 875 123 893 99.5 c 128,-1,51
 911 76 911 76 898 34 c 2,52,-1
 842 -133 l 2,0,1
EndSplineSet
EndChar

StartChar: uni04E0
Encoding: 1248 1248 626
Width: 632
GlyphClass: 1
Flags: W
LayerCount: 2
Fore
SplineSet
299 -11 m 0,0,1
 230 -11 230 -11 171.5 3.5 c 128,-1,2
 113 18 113 18 68 44 c 0,3,4
 45 56 45 56 36 75.5 c 128,-1,5
 27 95 27 95 29.5 114 c 128,-1,6
 32 133 32 133 44 147.5 c 128,-1,7
 56 162 56 162 75.5 166 c 128,-1,8
 95 170 95 170 119 158 c 0,9,10
 157 139 157 139 198.5 128.5 c 128,-1,11
 240 118 240 118 286 118 c 0,12,13
 337 118 337 118 369 128.5 c 128,-1,14
 401 139 401 139 417 159.5 c 128,-1,15
 433 180 433 180 433 210 c 256,16,17
 433 240 433 240 420 259 c 128,-1,18
 407 278 407 278 377 287.5 c 128,-1,19
 347 297 347 297 297 297 c 2,20,-1
 219 297 l 2,21,22
 198 297 198 297 185 307.5 c 128,-1,23
 172 318 172 318 167.5 334.5 c 128,-1,24
 163 351 163 351 168.5 369.5 c 128,-1,25
 174 388 174 388 191 405 c 2,26,-1
 404 612 l 1,27,-1
 404 578 l 1,28,-1
 98 578 l 2,29,30
 66 578 66 578 49 594.5 c 128,-1,31
 32 611 32 611 32 641 c 0,32,33
 32 672 32 672 49 688.5 c 128,-1,34
 66 705 66 705 98 705 c 2,35,-1
 502 705 l 2,36,37
 527 705 527 705 542.5 693 c 128,-1,38
 558 681 558 681 562.5 662 c 128,-1,39
 567 643 567 643 560.5 621 c 128,-1,40
 554 599 554 599 533 580 c 2,41,-1
 326 378 l 1,42,-1
 291 415 l 1,43,-1
 347 415 l 2,44,45
 423 415 423 415 476 390.5 c 128,-1,46
 529 366 529 366 557 321 c 128,-1,47
 585 276 585 276 585 215 c 0,48,49
 585 145 585 145 554 94 c 128,-1,50
 523 43 523 43 459.5 16 c 128,-1,51
 396 -11 396 -11 299 -11 c 0,0,1
EndSplineSet
EndChar

StartChar: uni04E8
Encoding: 1256 1256 630
Width: 797
GlyphClass: 2
Flags: W
AnchorPoint: "Anchor-5" 398 353 basechar 0
AnchorPoint: "Anchor-3" 459 0 basechar 0
AnchorPoint: "Anchor-2" 397 0 basechar 0
AnchorPoint: "Anchor-1" 465 705 basechar 0
AnchorPoint: "Anchor-0" 394 705 basechar 0
LayerCount: 2
Fore
SplineSet
140 301 m 1,0,-1
 140 415 l 1,1,-1
 656 415 l 1,2,-1
 656 301 l 1,3,-1
 140 301 l 1,0,-1
398 -11 m 0,4,5
 294 -11 294 -11 215.5 34.5 c 128,-1,6
 137 80 137 80 93.5 162 c 128,-1,7
 50 244 50 244 50 353 c 0,8,9
 50 436 50 436 74.5 502.5 c 128,-1,10
 99 569 99 569 145 616.5 c 128,-1,11
 191 664 191 664 255.5 690 c 128,-1,12
 320 716 320 716 398 716 c 0,13,14
 504 716 504 716 582 671 c 128,-1,15
 660 626 660 626 703.5 544.5 c 128,-1,16
 747 463 747 463 747 354 c 0,17,18
 747 271 747 271 722 204 c 128,-1,19
 697 137 697 137 651 89 c 128,-1,20
 605 41 605 41 541 15 c 128,-1,21
 477 -11 477 -11 398 -11 c 0,4,5
398 121 m 0,22,23
 457 121 457 121 498.5 148.5 c 128,-1,24
 540 176 540 176 562.5 228.5 c 128,-1,25
 585 281 585 281 585 353 c 0,26,27
 585 463 585 463 536 523.5 c 128,-1,28
 487 584 487 584 398 584 c 0,29,30
 340 584 340 584 298 557 c 128,-1,31
 256 530 256 530 234 478 c 128,-1,32
 212 426 212 426 212 353 c 0,33,34
 212 244 212 244 261 182.5 c 128,-1,35
 310 121 310 121 398 121 c 0,22,23
EndSplineSet
EndChar

StartChar: uni04FA
Encoding: 1274 1274 638
Width: 614
GlyphClass: 1
Flags: W
LayerCount: 2
Fore
SplineSet
134 -183 m 2,0,1
 108 -184 108 -184 92 -172.5 c 128,-1,2
 76 -161 76 -161 74 -137 c 0,3,4
 73 -113 73 -113 84.5 -98 c 128,-1,5
 96 -83 96 -83 124 -81 c 2,6,-1
 135 -80 l 2,7,8
 185 -75 185 -75 207.5 -55 c 128,-1,9
 230 -35 230 -35 230 0 c 1,10,-1
 186 0 l 2,11,12
 153 0 153 0 134.5 18 c 128,-1,13
 116 36 116 36 116 71 c 2,14,-1
 116 289 l 1,15,-1
 82 289 l 2,16,17
 53 289 53 289 38 303.5 c 128,-1,18
 23 318 23 318 23 345 c 256,19,20
 23 372 23 372 38 386 c 128,-1,21
 53 400 53 400 82 400 c 2,22,-1
 116 400 l 1,23,-1
 116 625 l 2,24,25
 116 664 116 664 136.5 684.5 c 128,-1,26
 157 705 157 705 196 705 c 2,27,-1
 541 705 l 2,28,29
 573 705 573 705 589.5 688.5 c 128,-1,30
 606 672 606 672 606 641 c 0,31,32
 606 611 606 611 589.5 594 c 128,-1,33
 573 577 573 577 541 577 c 2,34,-1
 271 577 l 1,35,-1
 271 400 l 1,36,-1
 390 400 l 2,37,38
 418 400 418 400 433 386 c 128,-1,39
 448 372 448 372 448 345 c 256,40,41
 448 318 448 318 433 303.5 c 128,-1,42
 418 289 418 289 390 289 c 2,43,-1
 271 289 l 1,44,-1
 271 53 l 1,45,-1
 201 123 l 1,46,-1
 301 123 l 2,47,48
 336 123 336 123 353.5 105 c 128,-1,49
 371 87 371 87 371 53 c 2,50,-1
 371 31 l 2,51,52
 371 -37 371 -37 348.5 -83 c 128,-1,53
 326 -129 326 -129 279 -153.5 c 128,-1,54
 232 -178 232 -178 159 -182 c 2,55,-1
 134 -183 l 2,0,1
EndSplineSet
EndChar

StartChar: uni04FC
Encoding: 1276 1276 639
Width: 685
GlyphClass: 1
Flags: W
LayerCount: 2
Fore
SplineSet
478 -178 m 0,0,1
 444 -186 444 -186 420 -172 c 128,-1,2
 396 -158 396 -158 389 -128 c 0,3,4
 383 -97 383 -97 394.5 -80.5 c 128,-1,5
 406 -64 406 -64 429 -58 c 0,6,7
 463 -50 463 -50 475.5 -32.5 c 128,-1,8
 488 -15 488 -15 488 11 c 0,9,10
 488 27 488 27 478 49 c 128,-1,11
 468 71 468 71 445 102 c 2,12,-1
 317 279 l 1,13,-1
 368 279 l 1,14,-1
 196 42 l 2,15,16
 177 15 177 15 158 3 c 128,-1,17
 139 -9 139 -9 115 -9 c 0,18,19
 85 -9 85 -9 65.5 7.5 c 128,-1,20
 46 24 46 24 43 48.5 c 128,-1,21
 40 73 40 73 59 99 c 2,22,-1
 280 392 l 1,23,-1
 280 323 l 1,24,-1
 68 605 l 2,25,26
 49 632 49 632 51.5 656.5 c 128,-1,27
 54 681 54 681 73.5 697.5 c 128,-1,28
 93 714 93 714 122 714 c 0,29,30
 147 714 147 714 165.5 702 c 128,-1,31
 184 690 184 690 203 664 c 2,32,-1
 368 436 l 1,33,-1
 318 436 l 1,34,-1
 482 664 l 2,35,36
 501 691 501 691 520 702.5 c 128,-1,37
 539 714 539 714 564 714 c 0,38,39
 594 714 594 714 613.5 698 c 128,-1,40
 633 682 633 682 635.5 657.5 c 128,-1,41
 638 633 638 633 618 605 c 2,42,-1
 405 323 l 1,43,-1
 405 392 l 1,44,-1
 577 163 l 2,45,46
 617 110 617 110 633 68.5 c 128,-1,47
 649 27 649 27 649 -8 c 0,48,49
 649 -73 649 -73 608 -116 c 128,-1,50
 567 -159 567 -159 478 -178 c 0,0,1
EndSplineSet
EndChar

